SplineFontDB: 3.2
FontName: ZameroSans-SemiBold
FullName: Zamero Sans SemiBold
FamilyName: Zamero Sans
Weight: SemiBold
Copyright: Copyright (c) 2024-2025, Zamero Type Foundry
UComments: "2024-1-17: Created with FontForge (http://fontforge.org)+AAoACgAK-Instead of Charlie and the Alphabet and Charlie and the Numbers, how about Charlie and the Fonts? :)"
Version: 001.100
ItalicAngle: 0
UnderlinePosition: -100
UnderlineWidth: 50
Ascent: 800
Descent: 200
InvalidEm: 0
LayerCount: 2
Layer: 0 0 "Back" 1
Layer: 1 0 "Fore" 0
XUID: [1021 474 1118879153 20760]
StyleMap: 0x0020
FSType: 0
OS2Version: 0
OS2_WeightWidthSlopeOnly: 0
OS2_UseTypoMetrics: 1
CreationTime: 1705525712
ModificationTime: 1743186827
PfmFamily: 33
TTFWeight: 600
TTFWidth: 5
LineGap: 90
VLineGap: 90
OS2TypoAscent: 0
OS2TypoAOffset: 1
OS2TypoDescent: 0
OS2TypoDOffset: 1
OS2TypoLinegap: 90
OS2WinAscent: 0
OS2WinAOffset: 1
OS2WinDescent: 0
OS2WinDOffset: 1
HheadAscent: 0
HheadAOffset: 1
HheadDescent: 0
HheadDOffset: 1
OS2Vendor: 'ZAM '
Lookup: 1 0 0 "Single Substitution lookup 5" { "Single Substitution lookup 5 subtable"  } []
Lookup: 1 0 0 "Single Substitution lookup 6" { "Single Substitution lookup 6 subtable"  } []
Lookup: 1 0 0 "'ss15' Style Set 15 lookup 20" { "'ss15' Style Set 15 lookup 20-1" ("ss15") } ['ss15' ('DFLT' <'dflt' > 'grek' <'dflt' > 'latn' <'dflt' > ) ]
Lookup: 1 0 0 "'ss14' Style Set 14 lookup 19" { "'ss14' Style Set 14 lookup 19-1" ("ss14") } ['ss14' ('DFLT' <'dflt' > 'grek' <'dflt' > 'latn' <'dflt' > ) ]
Lookup: 1 0 0 "'onum' Oldstyle Figures lookup 18" { "'onum' Oldstyle Figures lookup 18-1" ("osf") } ['onum' ('DFLT' <'dflt' > 'grek' <'dflt' > 'latn' <'dflt' > ) ]
Lookup: 1 0 0 "'tnum' Tabular Numbers lookup 17" { "'tnum' Tabular Numbers lookup 17-1" ("tf") } ['tnum' ('DFLT' <'dflt' > 'grek' <'dflt' > 'latn' <'dflt' > ) ]
Lookup: 1 0 0 "'dnom' Denominators lookup 0" { "'dnom' Denominators lookup 0 subtable" ("dnom") } ['dnom' ('DFLT' <'dflt' > 'latn' <'dflt' > ) ]

StartChar: I
Encoding: 73 73 0
Width: 434
Flags: W
HStem: 0 133.75<32.5 139 295 401.5> 30 103.75<139 295> 596.25 134.75<32.5 139 295 401.5> 596.25 104.75<139 295>
VStem: 32.5 369<0 133.75 596.25 731> 139 156<30 701>
LayerCount: 2
Fore
SplineSet
401.5 0 m 1x88
 32.5 0 l 1
 32.5 133.75 l 1
 401.5 133.75 l 1
 401.5 0 l 1x88
401.5 596.25 m 1x28
 32.5 596.25 l 1
 32.5 731 l 1
 401.5 731 l 1
 401.5 596.25 l 1x28
139 30 m 1x54
 139 701 l 1
 295 701 l 1
 295 30 l 1
 139 30 l 1x54
EndSplineSet
EndChar

StartChar: O
Encoding: 79 79 1
Width: 797
Flags: W
HStem: -9.99805 141.383<297.963 499.814> 597.738 141.383<297.963 499.814>
VStem: 37.8375 153.399<244.711 484.412> 606.541 153.399<244.711 484.412>
LayerCount: 2
Fore
SplineSet
191.236132812 364.561523438 m 0
 191.236132812 224.736471413 253.83185434 131.385117188 398.888671875 131.385117188 c 0
 543.94548941 131.385117188 606.541210938 224.736471413 606.541210938 364.561523438 c 0
 606.541210938 504.38657546 543.94548941 597.737929688 398.888671875 597.737929688 c 0
 253.83185434 597.737929688 191.236132812 504.38657546 191.236132812 364.561523438 c 0
37.8375 364.561523438 m 0
 37.8375 591.206054688 174.452321122 739.12109375 398.888671875 739.12109375 c 0
 623.325022628 739.12109375 759.93984375 591.206054688 759.93984375 364.561523438 c 0
 759.93984375 137.916992188 623.325022628 -9.998046875 398.888671875 -9.998046875 c 0
 174.452321122 -9.998046875 37.8375 137.916992188 37.8375 364.561523438 c 0
EndSplineSet
EndChar

StartChar: H
Encoding: 72 72 2
Width: 719
Flags: W
HStem: 0 21G<57.8375 214.137 504.863 661.163> 291.012 133.975<136.15 567.85> 711.008 20G<57.8375 214.137 504.863 661.163>
VStem: 57.8375 156.3<0 291.012 424.988 731.008> 136.15 77.9875<291.012 424.988> 504.863 156.3<0 291.012 424.988 731.008> 504.863 62.9875<291.012 424.988>
LayerCount: 2
Fore
SplineSet
567.85 291.0125 m 1xea
 136.15 291.0125 l 1
 136.15 424.9875 l 1
 567.85 424.9875 l 1
 567.85 291.0125 l 1xea
504.8625 0 m 1xe4
 504.8625 731.0078125 l 1
 661.1625 731.0078125 l 1
 661.1625 0 l 1
 504.8625 0 l 1xe4
57.8375 0 m 1xf0
 57.8375 731.0078125 l 1xf0
 214.1375 731.0078125 l 1
 214.1375 0 l 1xe8
 57.8375 0 l 1xf0
EndSplineSet
EndChar

StartChar: V
Encoding: 86 86 4
Width: 699
Flags: W
HStem: 0 21G<247.513 461.213> 711.008 20G<7.8375 172.82 526.18 691.163>
LayerCount: 2
Fore
SplineSet
254.255 0 m 1
 7.8375 731.0078125 l 1
 172.82 731.0078125 l 1
 172.82 731.0078125 353.606445312 157.893085938 353.606445312 157.893085938 c 1
 353.606445312 157.893085938 526.18 731.0078125 526.18 731.0078125 c 1
 691.1625 731.0078125 l 1
 454.745 0 l 1
 254.255 0 l 1
EndSplineSet
EndChar

StartChar: D
Encoding: 68 68 5
Width: 727
Flags: W
HStem: 0 139.206<214.137 423.419> 591.796 139.212<214.137 423.661>
VStem: 57.8375 156.3<139.206 591.796> 532.791 157.149<248.952 480.38>
LayerCount: 2
Fore
SplineSet
57.8375 0 m 1
 57.8375 731.0078125 l 1
 316.388671875 731.0078125 l 2
 512.932049862 731.0078125 689.93984375 631.206054688 689.93984375 364.561523438 c 0
 689.93984375 97.9169921875 511.781700027 -2.29737579705e-14 316.388671875 0 c 2
 57.8375 0 l 1
214.1375 591.795960485 m 1
 214.1375 591.795960485 214.1375 139.205660214 214.1375 139.205660214 c 1
 214.1375 139.205660214 291.388671875 139.315664062 291.388671875 139.315664062 c 2
 429.591490141 139.467620627 532.791210938 180.492959597 532.791210938 364.561523438 c 0
 532.791210938 548.550310536 429.591491536 591.548886864 291.388671875 591.692148438 c 2
 214.1375 591.795960485 l 1
EndSplineSet
EndChar

StartChar: U
Encoding: 85 85 6
Width: 719
Flags: W
HStem: -9.99805 141.417<269.317 446.46> 711.008 20G<57.8375 214.137 501.64 657.94>
VStem: 57.8375 156.3<184.889 731.008> 501.64 156.3<184.889 731.008>
LayerCount: 2
Fore
SplineSet
357.888671875 -9.998046875 m 0
 133.807549059 -9.998046875 57.8375 102.642200375 57.8375 275.236523438 c 2
 57.8375 731.0078125 l 1
 214.1375 731.0078125 l 1
 214.1375 304.561523438 l 2
 214.1375 200.735920724 234.294757567 131.418867188 357.888671875 131.418867188 c 0
 481.482586182 131.418867188 501.63984375 200.735920724 501.63984375 304.561523438 c 2
 501.63984375 731.0078125 l 1
 657.93984375 731.0078125 l 1
 657.93984375 275.236523438 l 2
 657.93984375 102.642200375 581.969794691 -9.998046875 357.888671875 -9.998046875 c 0
EndSplineSet
EndChar

StartChar: L
Encoding: 76 76 7
Width: 568
Flags: W
HStem: 0 135.056<214.137 544> 711.008 20G<57.8375 214.137>
VStem: 57.8375 156.3<135.056 731.008>
LayerCount: 2
Fore
SplineSet
214.1375 135.05625 m 1
 544 135.05625 l 1
 544 0 l 1
 57.8375 0 l 1
 57.8375 731.0078125 l 1
 214.1375 731.0078125 l 1
 214.1375 135.05625 l 1
EndSplineSet
EndChar

StartChar: F
Encoding: 70 70 8
Width: 574
Flags: W
HStem: 0 21G<57.8375 214.137> 270.688 135.887<136.15 480.825> 595.952 135.056<214.137 540.825>
VStem: 57.8375 156.3<0 270.688 406.575 595.952> 136.15 77.9875<270.688 406.575>
LayerCount: 2
Fore
SplineSet
480.825 270.6875 m 1xe8
 136.15 270.6875 l 1
 136.15 406.575 l 1
 480.825 406.575 l 1
 480.825 270.6875 l 1xe8
214.1375 595.9515625 m 1
 214.1375 0 l 1xe8
 57.8375 0 l 1
 57.8375 731.0078125 l 1xf0
 540.825 731.0078125 l 1
 540.825 595.9515625 l 1
 214.1375 595.9515625 l 1
EndSplineSet
EndChar

StartChar: C
Encoding: 67 67 9
Width: 667
Flags: W
HStem: -9.99805 141.248<313.153 547.284> 597.873 141.248<311.229 529.632>
VStem: 38.5875 159.311<244.773 479.608>
LayerCount: 2
Fore
SplineSet
38.5875 360.561523438 m 0
 38.5875 589.626439045 171.62523723 739.12109375 405.888671875 739.12109375 c 0
 570.994332396 739.12109375 639.344140625 672.891601562 639.344140625 672.891601562 c 1
 582.57796875 544.751171875 l 1
 582.57796875 544.751171875 528.504573581 597.872929688 419.888671875 597.872929688 c 0
 264.383385977 597.872929688 197.89868164 502.866142752 197.89868164 360.561523438 c 0
 197.89868164 223.054132256 264.589738427 131.250117188 419.551171875 131.250117188 c 0
 536.727318966 131.250117188 598.788554688 177.516953125 598.788554688 177.516953125 c 1
 642.489648438 44.595703125 l 1
 642.489648438 44.595703125 570.218052059 -9.998046875 405.888671875 -9.998046875 c 0
 171.62523723 -9.998046875 38.5875 136.337376545 38.5875 360.561523438 c 0
EndSplineSet
Substitution2: "'ss12' Style Set 12 lookup 13-1" C.ss12
EndChar

StartChar: E
Encoding: 69 69 10
Width: 579
Flags: W
HStem: 0 135.056<214.137 546.163> 297.1 136.137<136.488 486.163> 595.952 135.056<214.137 546.163>
VStem: 136.488 77.65<297.1 433.238>
LayerCount: 2
Fore
SplineSet
486.1625 297.1 m 1
 136.4875 297.1 l 1
 136.4875 433.2375 l 1
 486.1625 433.2375 l 1
 486.1625 297.1 l 1
214.1375 595.9515625 m 1
 214.1375 135.05625 l 1
 546.1625 135.05625 l 1
 546.1625 0 l 1
 57.8375 0 l 1
 57.8375 731.0078125 l 1
 546.1625 731.0078125 l 1
 546.1625 595.9515625 l 1
 214.1375 595.9515625 l 1
EndSplineSet
EndChar

StartChar: N
Encoding: 78 78 11
Width: 719
Flags: W
HStem: 0 21G<57.8375 206.205 491.057 661.163> 711.008 20G<57.8375 228.287 512.795 661.163>
VStem: 57.8375 148.367<0 467.23> 512.795 148.368<276.037 731.008>
LayerCount: 2
Fore
SplineSet
57.8375 0 m 1
 57.8375 731.0078125 l 1
 215.205 731.0078125 l 1
 512.795 276.037109375 l 1
 512.795 731.0078125 l 1
 661.1625 731.0078125 l 1
 661.1625 0 l 1
 503.795 0 l 1
 206.205 467.229882812 l 1
 206.205 0 l 1
 57.8375 0 l 1
EndSplineSet
EndChar

StartChar: M
Encoding: 77 77 12
Width: 830
Flags: W
HStem: 0 21G<57.8375 214.137 615.862 772.163> 711.008 20G<57.8375 244.021 585.979 772.163>
VStem: 57.8375 156.3<0 445.405> 615.862 156.3<0 445.405>
LayerCount: 2
Fore
SplineSet
57.8375 0 m 1
 57.8375 731.0078125 l 1
 234.1375 731.0078125 l 1
 415 365.022109375 l 1
 595.8625 731.0078125 l 1
 772.1625 731.0078125 l 1
 772.1625 0 l 1
 615.8625 0 l 1
 615.8625 445.404882812 l 1
 463.9875 157.5 l 1
 366.0125 157.5 l 1
 214.1375 445.404882812 l 1
 214.1375 0 l 1
 57.8375 0 l 1
EndSplineSet
EndChar

StartChar: G
Encoding: 71 71 13
Width: 789
Flags: W
HStem: -9.99805 141.248<299.177 495.027> 290.762 128.306<406.337 535.956 684.45 761.163> 290.762 19.8457<535.956 684.45> 597.873 141.248<307.337 534.727>
VStem: 37.8375 159.277<242.253 481.979> 548.473 150.335<178.211 290.346>
LayerCount: 2
Fore
SplineSet
761.1625 290.7625 m 1xdc
 406.3375 290.7625 l 1
 406.3375 419.06875 l 1
 761.1625 419.06875 l 1
 761.1625 290.7625 l 1xdc
37.8375 364.561523438 m 0
 37.8375 591.206054688 178.236128842 739.12109375 408.888671875 739.12109375 c 0
 580.17836956 739.12109375 650.594140625 670.641601562 650.594140625 670.641601562 c 1
 592.78046875 543.764921875 l 1
 592.78046875 543.764921875 534.353520968 597.872929688 415.888671875 597.872929688 c 0
 263.086060666 597.872929688 197.114990234 504.467528685 197.114990234 364.561523438 c 0
 197.114990234 224.655518188 253.566881777 131.250117188 404.638671875 131.250117188 c 0
 507.004007384 131.250117188 548.472695312 177.897737189 548.472695312 247.9125 c 0
 548.472695312 291.424562873 535.956054688 310.608203125 535.956054688 310.608203125 c 1
 684.449648438 310.608203125 l 1xbc
 684.449648438 310.608203125 698.807421875 289.516444784 698.807421875 222 c 0
 698.807421875 93.0184042083 602.604854399 -9.998046875 399.888671875 -9.998046875 c 0
 169.280003244 -9.998046875 37.8375 137.916992188 37.8375 364.561523438 c 0
EndSplineSet
Substitution2: "'ss12' Style Set 12 lookup 13-1" G.ss12
Substitution2: "'ss08' Style Set 8 lookup 9-1" G.ss08
EndChar

StartChar: A
Encoding: 65 65 14
Width: 719
Flags: W
HStem: 0 21G<7.8375 179.43 539.274 711.163> 141.012 135.124<160.988 557.013> 711.008 20G<264.469 444.805>
LayerCount: 2
Fore
SplineSet
557.0125 141.0125 m 1
 160.9875 141.0125 l 1
 160.9875 276.13625 l 1
 557.0125 276.13625 l 1
 557.0125 141.0125 l 1
437.3125 731.0078125 m 1
 711.1625 0 l 1
 546.14625 0 l 1
 355.393554688 555.175976562 l 1
 172.85375 0 l 1
 7.8375 0 l 1
 271.6875 731.0078125 l 1
 437.3125 731.0078125 l 1
EndSplineSet
EndChar

StartChar: P
Encoding: 80 80 15
Width: 655
Flags: W
HStem: 0 21G<57.8375 214.137> 237.512 131.408<159.475 425.447> 595.593 135.415<214.137 419.542>
VStem: 57.8375 156.3<0 237.512 368.92 595.593> 159.475 54.6625<237.512 368.92> 465.791 157.149<410.102 553.546>
LayerCount: 2
Fore
SplineSet
159.475 237.5125 m 1xec
 159.475 368.9203125 l 1
 324.388671875 369.030664062 l 2
 405.341479196 369.154285555 465.791210938 389.526366494 465.791210938 481.216523438 c 0
 465.791210938 573.789942007 405.341488157 595.373003171 324.388671875 595.489648438 c 2
 214.1375 595.593164062 l 1
 214.1375 0 l 1xec
 57.8375 0 l 1
 57.8375 731.0078125 l 1xf4
 346.388671875 731.0078125 l 2
 491.895648158 731.0078125 622.93984375 662.977079268 622.93984375 481.216523438 c 0
 622.93984375 302.968570992 491.044009564 237.5125 346.388671875 237.5125 c 2
 159.475 237.5125 l 1xec
EndSplineSet
EndChar

StartChar: R
Encoding: 82 82 16
Width: 660
Flags: W
HStem: 0 21G<57.8375 214.137 483.371 649.663> 261.012 131.043<159.475 399.006> 595.377 135.631<214.137 411.662>
VStem: 57.8375 156.3<0 261.012 392.055 595.377> 159.475 54.6625<261.012 392.055> 449.109 161.331<426.77 557.722>
LayerCount: 2
Back
SplineSet
124 383.3515625 m 1xec
 300.888671875 383.461914062 l 2
 383.403259307 383.509014034 462.928710938 404.697396723 462.928710938 501.561523438 c 0
 462.928710938 596.672668425 383.403268044 618.487535435 300.888671875 618.545898438 c 2
 184 618.649414062 l 1
 184 0 l 1
 55 0 l 1
 55 731.0078125 l 1xf4
 308.888671875 731.0078125 l 2
 457.204101562 731.0078125 590.77734375 670.696715458 590.77734375 509.561523438 c 4
 590.77734375 364.195131811 466.688476562 330.276367188 466.688476562 330.276367188 c 1
 466.688476562 330.276367188 540.174524344 311.767586577 573.702148438 195.399414062 c 2
 630 0 l 1
 492 0 l 1
 447 165 l 2
 420.732434887 256.417062766 391.813913829 266 270 266 c 2
 124 266 l 1
 124 383.3515625 l 1xec
EndSplineSet
Fore
SplineSet
159.475 392.0553125 m 1xec
 308.178671875 392.165664062 l 2
 388.860909267 392.214457145 449.108710938 410.488960462 449.108710938 492.567773438 c 0
 449.108710938 575.867447044 390.155173463 595.21071336 311.206171875 595.273398438 c 2
 214.1375 595.376914062 l 1
 214.1375 0 l 1xec
 57.8375 0 l 1
 57.8375 731.0078125 l 1xf4
 331.388671875 731.0078125 l 2
 478.211153907 731.0078125 610.43984375 669.61275886 610.43984375 505.581523438 c 0
 610.43984375 362.713526591 493.207740478 330.247039795 493.207740478 330.247039795 c 1
 493.207740478 330.247039795 553.493761822 314.119942921 590.107337647 195.200618896 c 2
 649.6625 0 l 1
 489.295 0 l 1
 440.834946289 163.612426758 l 2
 413.637305617 249.768219978 392.059027492 261.0125 288.81 261.0125 c 2
 159.475 261.0125 l 1
 159.475 392.0553125 l 1xec
EndSplineSet
Substitution2: "'ss01' Style Set 1 lookup 2-1" R.ss01
EndChar

StartChar: T
Encoding: 84 84 17
Width: 614
Flags: W
HStem: 0 21G<228.85 385.15> 595.944 135.056<32.5 228.85 385.15 581.5> 595.944 105.056<228.85 385.15>
VStem: 228.85 156.3<0 701>
LayerCount: 2
Fore
SplineSet
581.5 595.94375 m 1xd0
 32.5 595.94375 l 1
 32.5 731 l 1
 581.5 731 l 1
 581.5 595.94375 l 1xd0
228.85 0 m 1
 228.85 701 l 1
 385.15 701 l 1xb0
 385.15 0 l 1
 228.85 0 l 1
EndSplineSet
EndChar

StartChar: Q
Encoding: 81 81 18
Width: 856
Flags: W
HStem: -9.99805 141.721<300.437 633.889 668.144 764.669> 597.738 141.383<301.855 502.382>
VStem: 37.8375 153.399<247.261 481.946> 606.541 155.399<248.449 484.765>
LayerCount: 2
Fore
SplineSet
37.8375 364.561523438 m 0
 37.8375 591.206054687 176.344224981 739.12109375 403.888671875 739.12109375 c 0
 626.460225649 739.12109375 761.939941406 588.681024983 761.939941406 383.561523438 c 0
 761.939941406 207.880276974 668.143554688 135.62109375 668.143554688 135.62109375 c 1
 733.574745532 136.861403333 814.969970703 150.727050781 814.969970703 150.727050781 c 1
 829.051269531 19.001953125 l 1
 829.051269531 19.001953125 725.663673847 -9.998046875 459 -9.998046875 c 0
 167.427159472 -9.998046875 37.8375 137.916992188 37.8375 364.561523438 c 0
191.236132812 364.561523438 m 0
 191.236132812 224.938854475 259.093164522 131.722617188 403.888671875 131.722617188 c 0
 541.87519397 131.722617188 606.541259766 224.938854475 606.541259766 364.561523438 c 0
 606.541259766 504.38657546 541.87519397 597.737929688 403.888671875 597.737929688 c 0
 259.093164522 597.737929688 191.236132812 504.38657546 191.236132812 364.561523438 c 0
EndSplineSet
Substitution2: "'ss10' Style Set 10 lookup 11-1" Q.ss10
Substitution2: "'ss09' Style Set 9 lookup 10-1" Q.ss09
EndChar

StartChar: B
Encoding: 66 66 19
Width: 640
Flags: W
HStem: 0 135.449<212.887 419.135> 300.669 129.67<159.475 400.038> 595.661 135.347<212.887 397.387>
VStem: 159.475 53.4125<300.669 430.339> 428.041 155.899<456.463 566.435> 451.041 155.899<163.626 273.237>
LayerCount: 2
Fore
SplineSet
492.508359375 376.1675 m 1xf8
 492.508359375 376.1675 606.93984375 342.867347076 606.93984375 206.108789062 c 0xf4
 606.93984375 56.1337911258 482.360209119 -1.55004467993e-14 343.051171875 0 c 2
 57.8375 0 l 1
 57.8375 731.0078125 l 1
 322.051171875 731.0078125 l 2
 459.8434962 731.0078125 583.93984375 674.864829552 583.93984375 524.865273438 c 0
 583.93984375 408.191408177 492.508359375 376.1675 492.508359375 376.1675 c 1xf8
212.8875 135.448740235 m 1
 212.8875 135.448740235 328.801171875 135.450664062 328.801171875 135.450664062 c 2
 398.708029016 135.451560525 451.041210938 150.905335558 451.041210938 218.108789062 c 0xf4
 451.041210938 285.732827593 396.645861896 300.458005105 323.801171875 300.558398438 c 2
 159.475 300.66875 l 1
 159.475 430.3390625 l 1
 301.801171875 430.449414062 l 2
 374.073187245 430.590308682 428.041210938 445.104836176 428.041210938 511.952773438 c 0xf8
 428.041210938 579.925555642 374.073501154 595.498919643 301.801171875 595.557148438 c 2
 212.8875 595.660664062 l 1
 212.8875 135.448740235 l 1
EndSplineSet
EndChar

StartChar: J
Encoding: 74 74 20
Width: 432
Flags: W
HStem: -10 136.84<22.4503 191.711> 595.952 135.056<50.3375 215.363>
VStem: 215.363 156.3<150.232 595.952>
LayerCount: 2
Fore
SplineSet
128.3375 126.84 m 0
 189.607689209 126.84 215.3625 154.539226045 215.3625 219.5 c 2
 215.3625 595.9515625 l 1
 50.3375 595.9515625 l 1
 50.3375 731.0078125 l 1
 371.6625 731.0078125 l 1
 371.6625 201 l 2
 371.6625 74.4647758463 312.261422414 -10 169 -10 c 0
 75.2088988513 -10 10.3375 10.2025 10.3375 10.2025 c 1
 24.30375 142.11 l 1
 24.30375 142.11 67.6566814833 126.84 128.3375 126.84 c 0
EndSplineSet
EndChar

StartChar: K
Encoding: 75 75 21
Width: 669
Flags: W
HStem: 0 21G<57.8375 214.137 437.537 651.331> 331.925 45.8999<136 303.304> 711.008 20G<57.8375 214.137 435.592 641.331>
VStem: 57.8375 156.3<0 312.201 399.751 731.008>
LayerCount: 2
Fore
SplineSet
136 377.824951172 m 1
 303.303710938 377.824951172 l 1
 303.303710938 331.925048828 l 1
 136 331.925048828 l 1
 136 377.824951172 l 1
453.841308594 0 m 1
 199.322509766 312.201171875 l 1
 199.322509766 312.201171875 199.322509766 399.75125 199.3225 399.75125 c 1
 450.773681641 731.0078125 l 1
 641.331298828 731.0078125 l 1
 344.864990234 371.311279297 l 1
 651.331298828 0 l 1
 453.841308594 0 l 1
57.8375 0 m 1
 57.8375 731.0078125 l 1
 214.1375 731.0078125 l 1
 214.1375 0 l 1
 57.8375 0 l 1
EndSplineSet
EndChar

StartChar: S
Encoding: 83 83 22
Width: 591
Flags: W
HStem: -10 136.518<137.121 367.89> 601.603 137.518<231.776 443.916>
VStem: 44.9645 160.362<477.565 574.225> 399.147 154.535<155.068 252.414>
LayerCount: 2
Fore
SplineSet
283.3828125 290.706875 m 0
 100.755914291 339.808004392 44.964453125 407.45556812 44.964453125 519.07375 c 0
 44.964453125 652.927531838 145.904692581 739.12109375 311.733398438 739.12109375 c 0
 457.284896569 739.12109375 528.070117188 688.891601562 528.070117188 688.891601562 c 1
 486.50609375 559.082421875 l 1
 486.50609375 559.082421875 424.988351497 601.602929688 328.49203125 601.602929688 c 0
 243.531921326 601.602929688 205.325976562 575.343850027 205.325976562 525.77 c 0
 205.325976562 483.401443841 229.305722206 461.023798378 319.747070312 437.764804688 c 0
 499.988187509 391.491928413 553.68203125 323.80147592 553.68203125 209.6625 c 0
 553.68203125 74.2876381814 459.722657822 -10 283.8046875 -10 c 0
 132.131720554 -10 35.99140625 42.2294921875 35.99140625 42.2294921875 c 1
 72.47265625 175.038671875 l 1
 72.47265625 175.038671875 157.739698542 126.518164062 267.135039062 126.518164062 c 0
 356.294312604 126.518164062 399.146640625 153.259323773 399.146640625 205.12875 c 0
 399.146640625 248.53064192 379.902145591 264.835741072 283.3828125 290.706875 c 0
EndSplineSet
EndChar

StartChar: W
Encoding: 87 87 23
Width: 949
Flags: W
HStem: 0 21G<168.335 370.763 572.321 775.026> 711.008 20G<7.8375 174.88 771.901 941.163>
LayerCount: 2
Fore
SplineSet
172.85 0 m 1
 7.8375 731.0078125 l 1
 170.98875 731.0078125 l 1
 278.302695312 179.481835938 l 1
 398.0325 671.0078125 l 1
 549.4675 671.0078125 l 1
 668.775195312 179.481835938 l 1
 775.78125 731.0078125 l 1
 941.1625 731.0078125 l 1
 770.3525 0 l 1
 577.215 0 l 1
 473.75 422.821484375 l 1
 365.65 0 l 1
 172.85 0 l 1
EndSplineSet
EndChar

StartChar: X
Encoding: 88 88 24
Width: 689
Flags: W
HStem: 0 21G<12.9387 211.426 477.574 676.061> 711.008 20G<22.9387 213.91 475.09 666.061>
VStem: 306.54 75.92<311.675 401>
LayerCount: 2
Fore
SplineSet
199.69875 0 m 1
 12.93875 0 l 1
 242.92375 371.865 l 1
 22.93875 731.0078125 l 1
 203.03625 731.0078125 l 1
 382.46 401 l 1
 382.46 311.675 l 1
 199.69875 0 l 1
489.30125 0 m 1
 306.54 311.675 l 1
 306.54 401 l 1
 485.96375 731.0078125 l 1
 666.06125 731.0078125 l 1
 446.07625 371.865 l 1
 676.06125 0 l 1
 489.30125 0 l 1
EndSplineSet
EndChar

StartChar: Y
Encoding: 89 89 25
Width: 689
Flags: W
HStem: 0 21G<266.35 422.65> 267 88.325<272.35 416.65> 711.008 20G<22.8375 202.741 486.259 666.163>
VStem: 266.35 156.3<0 355.325>
LayerCount: 2
Fore
SplineSet
272.35 267 m 1
 22.8375 731.0078125 l 1
 192.82 731.0078125 l 1
 344.5 425.222265625 l 1
 496.18 731.0078125 l 1
 666.1625 731.0078125 l 1
 416.65 267 l 1
 272.35 267 l 1
266.35 0 m 1
 266.35 355.325 l 1
 422.65 355.325 l 1
 422.65 0 l 1
 266.35 0 l 1
EndSplineSet
EndChar

StartChar: Z
Encoding: 90 90 26
Width: 594
Flags: W
HStem: 0 135.056<234.463 561.5> 595.944 135.056<42.5 359.538>
LayerCount: 2
Fore
SplineSet
561.5 0 m 1
 32.5 0 l 1
 32.5 93.80625 l 1
 359.5375 595.94375 l 1
 42.5 595.94375 l 1
 42.5 731 l 1
 551.5 731 l 1
 551.5 627.19375 l 1
 234.4625 135.05625 l 1
 561.5 135.05625 l 1
 561.5 0 l 1
EndSplineSet
EndChar

StartChar: ampersand
Encoding: 38 38 27
Width: 754
Flags: W
HStem: -10 126.264<207.979 363.01 536.229 732.836> 611.854 127.138<337.637 491.535>
VStem: 37.8375 140.738<145.061 263.163> 156.888 150.676<444.874 579.585>
LayerCount: 2
Fore
SplineSet
287.755078125 444.633789062 m 1xe0
 317.356796875 352.876367188 l 0
 317.356796875 352.876367188 178.575664063 297.88300241 178.575664062 202.75125 c 0
 178.575664062 147.533906691 217.277069407 116.264023438 278.897502442 116.264023438 c 0
 367.067261798 116.264023438 485.068220077 196.140543722 542.99125 452.063828125 c 1
 681.200585938 412.3046875 l 1
 589.962111071 104.385759222 437.211118997 -10 265.928710938 -10 c 0
 121.536862852 -10 37.8375 70.6764335781 37.8375 187.510546875 c 0
 37.8375 375.753774889 287.755078125 444.633789062 287.755078125 444.633789062 c 1xe0
742.113671875 4.5546875 m 1
 742.113671875 4.5546875 711.349772628 -10 628.5 -10 c 0
 484.842229915 -10 384.952879188 64.1738489431 311.0125 156.3375 c 0
 206.772231968 286.291901156 156.88828125 416.524821143 156.88828125 522.10125 c 0
 156.88828125 663.940924003 247.092201299 738.9921875 396.684960938 738.9921875 c 0
 484.645396284 738.9921875 538.380390625 703.716914062 538.380390625 703.716914062 c 1
 501.3065625 584.441132812 l 1
 501.3065625 584.441132812 465.346406516 611.85421875 409.679345703 611.85421875 c 0
 341.565826384 611.85421875 307.564257812 579.034359824 307.564257812 506.10125 c 0xd0
 307.564257812 443.060913226 338.207070088 346.46467314 420.925 246.65 c 0
 471.448096039 185.51414278 536.272860605 123.1109375 634.01171875 123.1109375 c 0
 695.928208989 123.1109375 731.35890625 132.3946875 731.35890625 132.3946875 c 1
 742.113671875 4.5546875 l 1
EndSplineSet
EndChar

StartChar: i
Encoding: 105 105 28
Width: 269
Flags: W
HStem: 0 21G<61.2488 207.751> 481.011 20G<61.2488 207.751> 569.563 174.424<74.4311 194.568>
VStem: 47.8992 173.202<596.283 717.268> 61.2488 146.502<0 501.011>
LayerCount: 2
Fore
SplineSet
61.24875 0 m 1xe8
 61.24875 501.010742188 l 1
 207.75125 501.010742188 l 1
 207.75125 0 l 1
 61.24875 0 l 1xe8
47.89921875 656.775390625 m 0xf0
 47.89921875 709.609896524 82.0346535052 743.9875 134.499023438 743.9875 c 0
 186.964374626 743.9875 221.10078125 709.609896524 221.10078125 656.775390625 c 0
 221.10078125 603.93993019 186.964374626 569.56328125 134.499023438 569.56328125 c 0
 82.0346535052 569.56328125 47.89921875 603.93993019 47.89921875 656.775390625 c 0xf0
EndSplineSet
EndChar

StartChar: o
Encoding: 111 111 29
Width: 589
Flags: W
HStem: -9.99805 130.403<223.571 365.104> 380.343 130.591<222.503 366.23>
VStem: 37.8375 142.52<168.13 335.922> 409.42 142.52<168.13 335.922>
LayerCount: 2
Fore
SplineSet
180.357382812 253.561523438 m 0
 180.357382812 173.713816156 214.703981535 120.405117188 293.888671875 120.405117188 c 0
 374.47444867 120.405117188 409.419960938 173.713816156 409.419960938 253.561523438 c 0
 409.419960938 329.58643955 374.507786672 380.342929688 294 380.342929688 c 0
 214.737319455 380.342929688 180.357382812 329.58643955 180.357382812 253.561523438 c 0
37.8375 253.561523438 m 0
 37.8375 409.296356709 134.722340068 510.93359375 293.888671875 510.93359375 c 0
 454.298242137 510.93359375 551.93984375 409.296356709 551.93984375 253.561523438 c 0
 551.93984375 94.0826581127 454.298242137 -9.998046875 293.888671875 -9.998046875 c 0
 134.722340068 -9.998046875 37.8375 94.0826581127 37.8375 253.561523438 c 0
EndSplineSet
EndChar

StartChar: n
Encoding: 110 110 30
Width: 595
Flags: W
HStem: 0 21G<57.905 204.408 391.707 538.21> 390.722 120.212<246.039 362.311> 481.011 20G<57.905 204.407>
VStem: 57.905 146.502<0 501.011> 391.707 146.502<0 358.631>
LayerCount: 2
Fore
SplineSet
204.4075 284 m 1xd8
 142.5825 293.561523438 l 1
 164.842285334 444 218.328826413 510.93359375 349.1625 510.93359375 c 0
 474.00694004 510.93359375 538.20984375 443.86603318 538.20984375 303.886523438 c 2
 538.20984375 0 l 1
 391.70734375 0 l 1
 391.70734375 286.886523438 l 2
 391.70734375 353.337642551 364.269662207 390.721679688 299.675 390.721679688 c 0
 233.650655579 390.721679688 204.4075 347.996030535 204.4075 284 c 1xd8
57.905 0 m 1
 57.905 501.010742188 l 1
 204.4075 501.010742188 l 1xb8
 204.4075 0 l 1
 57.905 0 l 1
EndSplineSet
EndChar

StartChar: m
Encoding: 109 109 31
Width: 882
Flags: W
HStem: 0 21G<57.905 204.408 368.026 514.529 678.485 824.987> 390.722 120.212<237.729 344.539 547.974 655.102> 481.011 20G<57.905 204.407>
VStem: 57.905 146.502<0 501.011> 368.026 146.503<0 356.913> 678.485 146.502<0 366.484>
LayerCount: 2
Fore
SplineSet
514.52859375 284 m 1xdc
 448.27734375 294.236523438 l 1
 469.747293541 444.207847198 520.994738462 510.93359375 647.52734375 510.93359375 c 0
 764.382047476 510.93359375 824.9871875 447.323924219 824.9871875 314.561523438 c 2
 824.9871875 0 l 1
 678.4846875 0 l 1
 678.4846875 297.561523438 l 2
 678.4846875 356.91288498 654.874260837 390.721679688 599.28984375 390.721679688 c 0
 539.914092616 390.721679688 514.52859375 347.996030534 514.52859375 284 c 1xdc
204.4075 284 m 1
 138.2575 293.561523438 l 1
 159.661989342 444 210.754213226 510.93359375 336.9 510.93359375 c 0
 453.869919707 510.93359375 514.52859375 447.323924219 514.52859375 314.561523438 c 2
 514.52859375 0 l 1
 368.02609375 0 l 1
 368.02609375 297.561523438 l 2
 368.02609375 356.91288498 344.365357505 390.721679688 288.6625 390.721679688 c 0
 229.978879951 390.721679688 204.4075 347.996030535 204.4075 284 c 1
57.905 0 m 1
 57.905 501.010742188 l 1
 204.4075 501.010742188 l 1xbc
 204.4075 0 l 1
 57.905 0 l 1
EndSplineSet
EndChar

StartChar: p
Encoding: 112 112 32
Width: 602
Flags: W
HStem: -9.99805 125.687<239.933 379.671> 386.059 124.874<248.744 380.858> 481.011 20G<57.905 204.407>
VStem: 57.905 146.502<-180 501.011> 123.246 81.1611<66.4394 183.562> 146.896 57.5111<283.562 425.747> 423.605 142.486<162.162 342.095>
LayerCount: 2
Fore
SplineSet
57.905 -180 m 1xb2
 57.905 501.010742188 l 1
 204.4075 501.010742188 l 1
 204.4075 -180 l 1
 57.905 -180 l 1xb2
204.4075 213.561523438 m 1
 204.4075 165.878542521 236.193575006 115.688867188 310.540039062 115.688867188 c 0
 389.742759896 115.688867188 423.605078125 170.885700258 423.605078125 253.561523438 c 0
 423.605078125 333.014208964 389.776102019 386.059179688 310.651367188 386.059179688 c 0
 236.901917129 386.059179688 204.4075 345.024603462 204.4075 283.561523438 c 1xd2
 146.896367188 283.561523438 l 1xc6
 146.896367188 425.746590474 223.768704576 510.93359375 342.1625 510.93359375 c 0
 484.403088621 510.93359375 566.091210938 409.296356709 566.091210938 253.561523438 c 0
 566.091210938 94.0826581127 480.619280902 -9.998046875 340.202539062 -9.998046875 c 0
 205.338410978 -9.998046875 123.246367188 66.4393843718 123.246367188 183.561523438 c 1xca
 204.4075 213.561523438 l 1
EndSplineSet
EndChar

StartChar: j
Encoding: 106 106 33
Width: 269
Flags: W
HStem: -190 127.259<-85.4629 43.9166> 481.011 20G<61.2488 207.751> 569.563 174.424<74.4311 194.568>
VStem: 47.8992 173.202<596.283 717.268> 61.2488 146.502<-46.0198 501.011>
LayerCount: 2
Fore
SplineSet
61.24875 22.0275 m 2xe8
 61.24875 501.010742188 l 1
 207.75125 501.010742188 l 1
 207.75125 501.010742188 207.75125 13.1625 207.75125 13.1625 c 2
 207.75125 -109.12014218 152.544482759 -190 19.39875 -190 c 0
 -49.9001126024 -190 -97.83125 -173.46625 -97.83125 -173.46625 c 1
 -83.89875 -51.255 l 1
 -83.89875 -51.255 -55.2185253789 -62.74125 -15.075 -62.74125 c 0
 38.6609448852 -62.74125 61.24875 -37.2084939759 61.24875 22.0275 c 2xe8
47.89921875 656.775390625 m 0xf0
 47.89921875 709.609896524 82.0346535052 743.9875 134.499023438 743.9875 c 0
 186.964374626 743.9875 221.10078125 709.609896524 221.10078125 656.775390625 c 0
 221.10078125 603.93993019 186.964374626 569.56328125 134.499023438 569.56328125 c 0
 82.0346535052 569.56328125 47.89921875 603.93993019 47.89921875 656.775390625 c 0xf0
EndSplineSet
EndChar

StartChar: k
Encoding: 107 107 34
Width: 555
Flags: W
HStem: 0 21G<57.905 204.407 340.792 537.5> 211.405 89.1899<109.405 207.383> 481.011 20G<337.045 527.5> 731.002 20G<57.905 204.407>
VStem: 57.905 146.502<0 211.405 300.595 751.002> 109.405 97.9775<211.405 300.595> 197.633 6.77493<218.905 293.095>
LayerCount: 2
Fore
SplineSet
207.382568359 300.594970703 m 1xf4
 207.382568359 211.405029297 l 1
 109.405029297 211.405029297 l 1
 109.405029297 300.594970703 l 1
 207.382568359 300.594970703 l 1xf4
355.186279297 0 m 1
 197.632568359 218.905029297 l 1
 197.632568359 293.094970703 l 1xf2
 351.882568359 501.010742188 l 1
 527.5 501.010742188 l 1
 330 269.912597656 l 1
 537.5 0 l 1
 355.186279297 0 l 1
57.905 0 m 1xf8
 57.905 751.001953125 l 1
 204.4075 751.001953125 l 1
 204.4075 0 l 1
 57.905 0 l 1xf8
EndSplineSet
EndChar

StartChar: l
Encoding: 108 108 35
Width: 371
Flags: W
HStem: -10.0088 128.225<220.014 327.516> 731.002 20G<60.0675 206.57>
VStem: 60.0675 146.502<132.92 751.002>
LayerCount: 2
Fore
SplineSet
206.57 191.316210938 m 2
 206.57 140.234283226 225.002335571 118.216210938 268.8525 118.216210938 c 0
 302.055721014 118.216210938 325.7775 128.601210938 325.7775 128.601210938 c 1
 339.575 5.2412109375 l 1
 339.575 5.2412109375 298.343100736 -10.0087890625 238.73 -10.0087890625 c 0
 112.434094827 -10.0087890625 60.0675 57.7632903213 60.0675 160.991210938 c 2
 60.0675 751.001953125 l 1
 206.57 751.001953125 l 1
 206.57 191.316210938 l 2
EndSplineSet
EndChar

StartChar: h
Encoding: 104 104 36
Width: 595
Flags: W
HStem: 0 21G<57.905 204.407 391.707 538.21> 390.722 120.212<246.025 362.311> 731.002 20G<57.905 204.407>
VStem: 57.905 146.502<0 751.002> 391.707 146.502<0 358.631>
LayerCount: 2
Fore
SplineSet
57.905 0 m 1
 57.905 751.001953125 l 1
 204.4075 751.001953125 l 1
 204.4075 0 l 1
 57.905 0 l 1
204.4075 284 m 9
 142.5825 293.561523438 l 17
 164.842285334 444 218.300103009 510.93359375 349.1625 510.93359375 c 0
 474.00694004 510.93359375 538.20984375 443.86603318 538.20984375 303.886523438 c 2
 538.20984375 0 l 1
 391.70734375 0 l 1
 391.70734375 286.886523438 l 2
 391.70734375 353.337642551 364.269662207 390.721679688 299.675 390.721679688 c 0
 233.614559323 390.721679688 204.4075 347.996030535 204.4075 284 c 9
EndSplineSet
EndChar

StartChar: q
Encoding: 113 113 37
Width: 602
Flags: W
HStem: -9.99805 125.687<227.939 369.53> 385.992 124.942<226.752 360.083> 481.011 20G<402.592 549.095>
VStem: 40.9088 142.486<163.397 340.886> 402.592 146.503<-180 501.011> 402.592 66.5324<66.4394 183.562 283.562 425.747>
LayerCount: 2
Fore
SplineSet
549.095 -180 m 1xb8
 402.5925 -180 l 1
 402.5925 501.010742188 l 1
 549.095 501.010742188 l 1
 549.095 -180 l 1xb8
402.5925 205.561523438 m 1
 469.124882812 183.561523438 l 1xd4
 469.124882812 66.4393843717 392.69578025 -9.998046875 267.134960938 -9.998046875 c 0
 126.508422608 -9.998046875 40.9087890625 94.0826581125 40.9087890625 253.561523438 c 0
 40.9087890625 409.296356709 122.720029764 510.93359375 265.175 510.93359375 c 0
 386.221680585 510.93359375 464.259882812 425.746590474 464.259882812 283.561523438 c 1
 402.5925 275.561523438 l 1
 402.5925 341.781354984 371.521818256 385.991679688 298.848632812 385.991679688 c 0xd8
 217.972633367 385.991679688 183.394921875 332.973732351 183.394921875 253.561523438 c 0
 183.394921875 170.885700258 218.00597549 115.688867188 298.959960938 115.688867188 c 0
 371.555160379 115.688867188 402.5925 161.776095341 402.5925 205.561523438 c 1
EndSplineSet
EndChar

StartChar: g
Encoding: 103 103 38
Width: 602
Flags: W
HStem: -190 118.894<153.307 365.546> 20.002 116.322<226.529 366.908> 391.573 119.361<225.696 362.344> 481.011 20G<402.592 549.095>
VStem: 40.9088 142.486<179.422 348.016> 402.592 146.503<-33.3785 38.73 223.562 501.011> 402.592 66.6674<100.388 429.493>
LayerCount: 2
Fore
SplineSet
402.5925 38.73 m 2xdc
 402.5925 501.010742188 l 1
 549.095 501.010742188 l 1
 549.095 31 l 2
 549.095 -102.018957346 474.618879311 -190 295 -190 c 0
 162.489496817 -190 70.8375 -144.5 70.8375 -144.5 c 1
 102.033691406 -27.0725097656 l 1
 102.033691406 -27.0725097656 174.252792478 -71.1062011719 275.337402344 -71.1062011719 c 0
 364.931701811 -71.1062011719 402.5925 -38.0230080479 402.5925 38.73 c 2xdc
402.5925 235.561523438 m 1
 469.259882812 223.561523438 l 1xea
 469.259882812 100.388423477 394.885504542 20.001953125 267.134960938 20.001953125 c 0
 123.876989126 20.001953125 40.9087890625 115.39477208 40.9087890625 261.561523438 c 0
 40.9087890625 412.455587994 120.087392121 510.93359375 265.175 510.93359375 c 0
 387.991564185 510.93359375 464.259882812 429.493180948 464.259882812 293.561523438 c 1
 402.5925 285.561523438 l 1
 402.5925 349.131636007 368.12837824 391.572929688 294.848632812 391.572929688 c 0xec
 216.774656751 391.572929688 183.394921875 339.82358027 183.394921875 262.311523438 c 0
 183.394921875 186.762582304 218.00597549 136.323867188 298.959960938 136.323867188 c 0
 371.555160379 136.323867188 402.5925 187.213522571 402.5925 235.561523438 c 1
EndSplineSet
Substitution2: "'ss14' Style Set 14 lookup 19-1" g.ss14
EndChar

StartChar: f
Encoding: 102 102 39
Width: 398
Flags: W
HStem: 0 21G<101.249 247.751> 383.471 117.539<16.8375 379.163> 640.901 120.11<266.636 404.636>
VStem: 101.249 146.502<0 621.649>
LayerCount: 2
Fore
SplineSet
16.8375 501.010742188 m 1
 379.1625 501.010742188 l 1
 379.1625 383.47125 l 1
 16.8375 383.47125 l 1
 16.8375 501.010742188 l 1
247.75125 558.023242188 m 2
 247.75125 0 l 1
 101.24875 0 l 1
 101.24875 571.023242188 l 2
 101.24875 685.375737727 157.257358232 761.010742188 292.3375 761.010742188 c 0
 365.830460487 761.010742188 416.6625 745.010742188 416.6625 745.010742188 c 1
 402.865 629.765742188 l 1
 402.865 629.765742188 371.385696777 640.900742188 327.325 640.900742188 c 0
 271.301198763 640.900742188 247.75125 615.937265759 247.75125 558.023242188 c 2
EndSplineSet
EndChar

StartChar: c
Encoding: 99 99 40
Width: 492
Flags: W
HStem: -9.99805 122.572<238.128 413.946> 386.242 124.692<233.16 406.293>
VStem: 37.8375 147.784<168.178 336.639>
LayerCount: 2
Fore
SplineSet
37.8375 253.561523438 m 0
 37.8375 409.296356709 125.955313415 510.93359375 291.104921875 510.93359375 c 0
 409.411698345 510.93359375 458.046630859 467.549072265 458.046630859 467.549072265 c 1
 427.740478516 350.638671875 l 1
 427.740478516 350.638671875 389.735032306 386.241679688 312.67625 386.241679688 c 0
 224.0174553 386.241679688 185.62109375 333.123645729 185.62109375 253.561523438 c 0
 185.62109375 169.017779553 225.659370744 112.573867188 318.159921875 112.573867188 c 0
 390.863246327 112.573867188 429.369873047 143.273193359 429.369873047 143.273193359 c 1
 461.503398438 28.426953125 l 1
 461.503398438 28.426953125 401.717809141 -9.998046875 297.868671875 -9.998046875 c 0
 128.521287209 -9.998046875 37.8375 94.0826581131 37.8375 253.561523438 c 0
EndSplineSet
Substitution2: "'ss12' Style Set 12 lookup 13-1" c.ss12
EndChar

StartChar: t
Encoding: 116 116 41
Width: 412
Flags: W
HStem: -10 122.394<259.998 368.677> 383.688 117.323<16.8375 379.163>
VStem: 101.249 146.502<125.365 651.646>
LayerCount: 2
Fore
SplineSet
16.8375 501.010742188 m 1
 379.1625 501.010742188 l 1
 379.1625 383.6875 l 1
 16.8375 383.6875 l 1
 16.8375 501.010742188 l 1
247.75125 177.4875 m 2
 247.75125 132.000594967 265.874193181 112.39375 308.9875 112.39375 c 0
 342.832840301 112.39375 367.01375 123.39375 367.01375 123.39375 c 1
 380.4125 5.5 l 1
 380.4125 5.5 340.175153621 -10 282 -10 c 0
 134.895725678 -10 101.24875 59.0056641265 101.24875 162.4875 c 2
 101.24875 651.645742188 l 1
 247.75125 670.091992188 l 1
 247.75125 177.4875 l 2
EndSplineSet
Substitution2: "'ss11' Style Set 11 lookup 12-1" t.ss11
EndChar

StartChar: r
Encoding: 114 114 42
Width: 420
Flags: W
HStem: 0 21G<57.905 204.407> 383.309 127.624<235.884 392.015> 481.011 20G<57.905 204.407>
VStem: 57.905 146.502<0 501.011>
LayerCount: 2
Fore
SplineSet
57.905 0 m 1xb0
 57.905 501.010742188 l 1
 204.4075 501.010742188 l 1
 204.4075 0 l 1
 57.905 0 l 1xb0
326.08875 510.93359375 m 0xd0
 393.702059177 510.93359375 413.325 484.93359375 413.325 484.93359375 c 1
 387.76375 361.95859375 l 1
 387.76375 361.95859375 355.113000518 383.309179688 304.99375 383.309179688 c 0
 241.889966566 383.309179688 204.4075 349.691500133 204.4075 284 c 1
 142.65 293.561523438 l 1
 162.319333843 444 209.11252457 510.93359375 326.08875 510.93359375 c 0xd0
EndSplineSet
EndChar

StartChar: e
Encoding: 101 101 43
Width: 551
Flags: W
HStem: -9.99805 122.923<236.715 448.708> 205.911 95.765<134.056 376.842> 394.924 116.009<219.023 343.306>
VStem: 134.056 46.9161<205.911 301.676>
LayerCount: 2
Fore
SplineSet
37.8375 253.561523438 m 0
 37.8375 409.296356709 132.452055438 510.93359375 287.888671875 510.93359375 c 0
 467.371256391 510.93359375 523.628320312 373.52962877 523.628320312 275.1496875 c 0
 523.628320312 232.404730619 519.1625 205.91125 519.1625 205.91125 c 1
 134.05625 205.91125 l 1
 134.05625 301.67625 l 1
 376.8425 301.67625 l 1
 376.8425 301.67625 376.50117822 307.825474151 374.439743225 317.324999663 c 0
 368.314109682 349.606513151 346.49105026 394.924179688 280.66875 394.924179688 c 0
 210.830861968 394.924179688 180.972382812 340.83230291 180.972382812 259.811523438 c 0
 180.972382812 163.827242338 221.961145778 112.925117188 325.44625 112.925117188 c 0
 412.877572159 112.925117188 462.701054688 141.056953125 462.701054688 141.056953125 c 1
 486.489648438 17.845703125 l 1
 486.489648438 17.845703125 427.081750077 -9.998046875 323.888671875 -9.998046875 c 0
 126.270205683 -9.998046875 37.8375 94.0826581131 37.8375 253.561523438 c 0
EndSplineSet
Substitution2: "'ss03' Style Set 3 lookup 4-1" e.ss03
EndChar

StartChar: d
Encoding: 100 100 44
Width: 602
Flags: W
HStem: -9.99805 124.908<228.756 357.101> 0 21G<402.592 549.095> 385.213 125.721<226.88 365.219> 731.002 20G<402.592 549.095>
VStem: 40.9088 142.486<160.038 337.528> 402.592 146.503<217.374 751.002> 402.592 57.5111<75.1885 217.374 317.374 434.496>
LayerCount: 2
Fore
SplineSet
549.095 0 m 1x7c
 402.5925 0 l 1x7a
 402.5925 751.001953125 l 1
 549.095 751.001953125 l 1
 549.095 0 l 1x7c
402.5925 295.374023438 m 1xbc
 402.5925 339.143259937 371.181215883 385.212929688 297.709960938 385.212929688 c 0
 217.969557625 385.212929688 183.394921875 330.029919797 183.394921875 247.374023438 c 0
 183.394921875 167.941802513 217.935312542 114.910117188 297.598632812 114.910117188 c 0
 371.14693969 114.910117188 402.5925 159.13418996 402.5925 225.374023438 c 1xbc
 460.103632812 217.374023438 l 1xba
 460.103632812 75.1884765625 382.512670225 -9.998046875 263.0125 -9.998046875 c 0
 121.93151147 -9.998046875 40.9087890625 91.6396484374 40.9087890625 247.374023438 c 0
 40.9087890625 406.852539062 125.689925864 510.93359375 264.972460938 510.93359375 c 0
 387.82366114 510.93359375 462.603632812 434.49609375 462.603632812 317.374023438 c 1
 402.5925 295.374023438 l 1xbc
EndSplineSet
Substitution2: "'ss05' Style Set 5 lookup 6-1" d.ss05
EndChar

StartChar: b
Encoding: 98 98 45
Width: 602
Flags: W
HStem: -9.99805 124.908<241.67 378.463> 0 21G<57.905 204.407> 385.213 125.721<245.513 380.335> 731.002 20G<57.905 204.407>
VStem: 57.905 146.502<197.374 751.002> 147.234 57.1736<55.1885 197.374 297.374 424.496> 423.605 142.486<160.038 337.528>
LayerCount: 2
Fore
SplineSet
57.905 0 m 1x7a
 57.905 751.001953125 l 1
 204.4075 751.001953125 l 1x7a
 204.4075 0 l 1x76
 57.905 0 l 1x7a
204.4075 295.374023438 m 1
 142.233867188 297.374023438 l 1
 142.233867188 424.49609375 217.959792514 510.93359375 342.365039062 510.93359375 c 0
 481.437777272 510.93359375 566.091210938 406.852539062 566.091210938 247.374023438 c 0
 566.091210938 91.6396484374 485.191607449 -9.998046875 344.325 -9.998046875 c 0
 224.824829775 -9.998046875 147.233867188 55.1884765624 147.233867188 197.374023438 c 1xb6
 204.4075 225.374023438 l 1
 204.4075 159.13418996 235.85306031 114.910117188 309.401367188 114.910117188 c 0xba
 389.402187458 114.910117188 423.605078125 167.941802513 423.605078125 247.374023438 c 0
 423.605078125 330.029919797 389.367942375 385.212929688 309.290039062 385.212929688 c 0
 235.818784117 385.212929688 204.4075 339.143259937 204.4075 295.374023438 c 1
EndSplineSet
EndChar

StartChar: a
Encoding: 97 97 46
Width: 566
Flags: W
HStem: -9.99805 109.457<191.49 306.649 418.723 545.411> 219.344 90.0494<202.633 351.296> 391.117 119.894<141.276 309.441>
VStem: 31.5875 147.851<111.295 196.85> 335.447 145.637<114.878 219.344 289.686 361.954> 335.447 47.9236<54.3948 153.062> 335.447 15.8487<219.344 309.394>
LayerCount: 2
Back
SplineSet
347.928710938 177.561523438 m 1x7c
 397.77734375 180.561523438 l 1x7a
 397.77734375 65.2546726396 333.443566636 -9.998046875 197.888671875 -9.998046875 c 0
 93.5258452633 -9.998046875 30 50 30 141 c 0
 30 286.71747631 169.159368499 309.798279039 363.928710938 309.93359375 c 1
 363.77734375 224.284179688 l 1x79
 204.9215174 224.170106541 154.848632812 210.544945242 154.848632812 148.561523438 c 0
 154.848632812 111.324445486 179.419144912 86.4638671875 236.888671875 86.4638671875 c 0
 303.711369303 86.4638671875 347.928710938 123.027306191 347.928710938 177.561523438 c 1x7c
347.928710938 299.010742188 m 2xbc
 347.928710938 377.97408765 315.670027449 412.010742188 238.928710938 412.010742188 c 0
 160.769677734 412.010742188 104.928710938 368.010742188 104.928710938 368.010742188 c 5
 69.9287109375 467.010742188 l 5
 69.9287109375 467.010742188 149.657226562 511.010742188 264.928710938 511.010742188 c 0
 407.721987032 511.010742188 466.928710938 427.01055301 466.928710938 300.010742188 c 2
 466.928710938 118 l 2
 466.928710938 93.251950046 475.36431245 84 497.928710938 84 c 0
 515.694039812 84 526.928710938 91 526.928710938 91 c 1
 535.928710938 13 l 1
 535.928710938 13 510.8653569 -9.998046875 457.928710938 -9.998046875 c 0
 384.082557091 -9.998046875 347.928710938 33 347.928710938 125 c 2
 347.928710938 299.010742188 l 2xbc
EndSplineSet
Fore
SplineSet
335.447460938 177.561523438 m 1xf8
 383.37109375 153.061523438 l 1xf4
 383.37109375 54.394815099 325.283180147 -9.998046875 202.888671875 -9.998046875 c 0
 96.4045696475 -9.998046875 31.5875 49.8927173365 31.5875 140.56125 c 0
 31.5875 286.215154578 167.530725813 309.25836014 351.447460938 309.39359375 c 1
 351.296142578 219.344238282 l 1xf2
 226.830639714 219.24818577 179.438632812 207.819496501 179.438632812 155.583822022 c 0
 179.438632812 122.016952775 199.738732642 99.4588671879 247.219921875 99.4588671879 c 0
 300.314302942 99.4588671879 335.447460938 130.806563993 335.447460938 177.561523438 c 1xf8
335.447460938 289.685742188 m 2xf8
 335.447460938 360.564918991 309.112534278 391.11694336 238.016113282 391.11694336 c 0
 165.197704314 391.11694336 113.172363282 354.36694336 113.172363282 354.36694336 c 1
 73.6787109375 467.010742188 l 1
 73.6787109375 467.010742188 150.100537484 511.010742188 260.591210938 511.010742188 c 0
 416.457670941 511.010742188 481.084960938 427.279273994 481.084960938 300.685742188 c 2
 481.084960938 142.1625 l 2
 481.084960938 114.877774926 489.812747196 104.6775 513.158710938 104.6775 c 0
 532.107884572 104.6775 544.091210938 111.96125 544.091210938 111.96125 c 1
 553.091210938 12.44625 l 1
 553.091210938 12.44625 523.340298542 -9.998046875 460.903616944 -9.998046875 c 0
 376.541632428 -9.998046875 335.447460938 32.8925033276 335.447460938 124.6625 c 2
 335.447460938 289.685742188 l 2xf8
EndSplineSet
Substitution2: "'ss15' Style Set 15 lookup 20-1" a.ss15
Substitution2: "'ss02' Style Set 2 lookup 3-1" a.ss02
EndChar

StartChar: plus
Encoding: 43 43 47
Width: 450
Flags: W
HStem: 299.695 116.61<30 420>
VStem: 166.695 116.61<163 553>
LayerCount: 2
Fore
SplineSet
283.305 553 m 1
 283.305 163 l 1
 166.695 163 l 1
 166.695 553 l 1
 283.305 553 l 1
420 299.695 m 1
 30 299.695 l 1
 30 416.305 l 1
 420 416.305 l 1
 420 299.695 l 1
EndSplineSet
EndChar

StartChar: s
Encoding: 115 115 48
Width: 476
Flags: W
HStem: -9.99805 115.292<95.6104 287.969> 395.227 115.707<197.624 381.451>
VStem: 44.2916 145.195<322.246 385.037> 294.796 144.056<116.962 176.974>
LayerCount: 2
Fore
SplineSet
210.008963623 196.188048096 m 0
 79.8586627075 225.999525519 44.2916015625 275.410098345 44.2916015625 353.8375 c 0
 44.2916015625 451.697630672 125.256191169 510.93359375 258.267578125 510.93359375 c 0
 372.293424417 510.93359375 427.747460938 473.225585938 427.747460938 473.225585938 c 1
 394.044921875 368.199335938 l 1
 394.044921875 368.199335938 343.200338127 395.226796875 268.256914062 395.226796875 c 0
 213.922269697 395.226796875 189.48671875 379.583113141 189.48671875 354.356054688 c 0
 189.48671875 331.721782953 205.181620168 318.349502367 258.251124268 305.696098632 c 0
 397.025089096 272.029729917 438.851953125 226.606527097 438.851953125 144.56484375 c 0
 438.851953125 49.3095010516 365.392028659 -9.998046875 227.856445312 -9.998046875 c 0
 109.72040064 -9.998046875 34.8375 26.5625 34.8375 26.5625 c 1
 65.314453125 139.673828125 l 1
 65.314453125 139.673828125 130.87037667 105.293945312 211.243164062 105.293945312 c 0
 267.847022903 105.293945312 294.795507812 119.48102736 294.795507812 146.999414062 c 0
 294.795507812 169.545923951 280.043515321 180.323033149 210.008963623 196.188048096 c 0
EndSplineSet
EndChar

StartChar: y
Encoding: 121 121 49
Width: 539
Flags: W
HStem: 481.011 20G<7.8375 170.611 369.205 531.163>
LayerCount: 2
Fore
SplineSet
196.49875 39.72375 m 1
 7.8375 501.010742188 l 1
 163.09 501.010742188 l 1
 275.606445312 201.819335938 l 1
 375.91 501.010742188 l 1
 531.1625 501.010742188 l 1
 269.68375 -179.994140625 l 1
 105.56625 -179.994140625 l 1
 196.49875 39.72375 l 1
EndSplineSet
Substitution2: "'ss04' Style Set 4 lookup 5-1" y.ss04
EndChar

StartChar: u
Encoding: 117 117 50
Width: 595
Flags: W
HStem: -9.92285 120.212<233.804 350.09> 0 21G<391.707 538.21> 481.011 20G<57.905 204.407 391.707 538.21>
VStem: 57.905 146.502<142.38 501.011> 391.707 146.502<207.449 501.011>
LayerCount: 2
Fore
SplineSet
391.70734375 217.010742188 m 9xb8
 453.53234375 207.44921875 l 17
 431.272558416 57.0107421877 377.814740741 -9.9228515625 246.95234375 -9.9228515625 c 0
 122.10790371 -9.9228515625 57.905 57.1447090076 57.905 197.12421875 c 2
 57.905 501.010742188 l 1
 204.4075 501.010742188 l 1
 204.4075 214.12421875 l 2
 204.4075 147.673099637 231.845181544 110.2890625 296.43984375 110.2890625 c 0
 362.500284427 110.2890625 391.70734375 153.014711653 391.70734375 217.010742188 c 9xb8
538.20984375 501.010742188 m 1
 538.20984375 0 l 1
 391.70734375 0 l 1x78
 391.70734375 501.010742188 l 1
 538.20984375 501.010742188 l 1
EndSplineSet
Substitution2: "'ss05' Style Set 5 lookup 6-1" u.ss05
EndChar

StartChar: backslash
Encoding: 92 92 51
Width: 434
Flags: W
LayerCount: 2
Fore
SplineSet
289.86375 -171.469726562 m 1
 14.86375 761.403320312 l 1
 144.13625 761.403320312 l 1
 419.13625 -171.469726562 l 1
 289.86375 -171.469726562 l 1
EndSplineSet
EndChar

StartChar: equal
Encoding: 61 61 52
Width: 450
Flags: W
HStem: 219.56 106.981<30 420> 389.459 106.981<30 420>
LayerCount: 2
Back
SplineSet
420 285 m 5xea
 30 285 l 5
 30 431 l 5
 420 431 l 5
 420 285 l 5xea
EndSplineSet
Fore
SplineSet
420 219.56 m 1
 30 219.56 l 1
 30 326.54125 l 1
 420 326.54125 l 1
 420 219.56 l 1
420 389.45875 m 1
 30 389.45875 l 1
 30 496.44 l 1
 420 496.44 l 1
 420 389.45875 l 1
EndSplineSet
EndChar

StartChar: v
Encoding: 118 118 53
Width: 539
Flags: W
HStem: 0 21G<176.824 371.777> 481.011 20G<7.8375 169.221 370.235 531.163>
LayerCount: 2
Fore
SplineSet
183.85 0 m 1
 7.8375 501.010742188 l 1
 163.09 501.010742188 l 1
 273.606445312 140.494335938 l 1
 375.91 501.010742188 l 1
 531.1625 501.010742188 l 1
 365.15 0 l 1
 183.85 0 l 1
EndSplineSet
EndChar

StartChar: w
Encoding: 119 119 54
Width: 735
Flags: W
HStem: 0 21G<121.678 304.107 429.966 612.362> 481.011 20G<7.8375 154.293 576.545 727.163>
LayerCount: 2
Fore
SplineSet
126.41125 0 m 1
 7.8375 501.010742188 l 1
 7.8375 501.010742188 154.2925 501.010742188 154.2925 501.010742188 c 1
 154.2925 501.010742188 223.768945312 167.156835938 223.768945312 167.156835938 c 1
 292.715 451.010742188 l 1
 442.25125 451.010742188 l 1
 511.231054688 167.156835938 l 1
 580.7075 501.010742188 l 1
 727.1625 501.010742188 l 1
 607.58875 0 l 1
 434.88375 0 l 1
 367.5 274.041796875 l 1
 299.11625 0 l 1
 126.41125 0 l 1
EndSplineSet
EndChar

StartChar: x
Encoding: 120 120 55
Width: 528
Flags: W
HStem: 0 21G<7.8375 188.694 339.458 520.163> 481.011 20G<17.8375 191 337 510.163>
VStem: 234.243 59.515<201.608 290.865>
LayerCount: 2
Fore
SplineSet
177.12375 0 m 1
 7.8375 0 l 1
 173.7825 259.53375 l 1
 17.8375 501.010742188 l 1
 180.19125 501.010742188 l 1
 293.7575 290.865 l 1
 293.7575 201.6075 l 1
 177.12375 0 l 1
351.045 0 m 1
 234.2425 201.6075 l 1
 234.2425 290.865 l 1
 347.80875 501.010742188 l 1
 510.1625 501.010742188 l 1
 354.2175 259.53375 l 1
 520.1625 0 l 1
 351.045 0 l 1
EndSplineSet
EndChar

StartChar: z
Encoding: 122 122 56
Width: 478
Flags: W
HStem: 0 125.144<225.618 445.5> 375.867 125.144<42.5 249.882>
LayerCount: 2
Fore
SplineSet
445.5 0 m 1
 32.5 0 l 1
 32.5 94.3125 l 1
 249.8825 375.866992188 l 1
 42.5 375.866992188 l 1
 42.5 501.010742188 l 1
 435.5 501.010742188 l 1
 435.5 406.866992188 l 1
 225.6175 125.14375 l 1
 445.5 125.14375 l 1
 445.5 0 l 1
EndSplineSet
EndChar

StartChar: period
Encoding: 46 46 57
Width: 245
Flags: W
HStem: -10 174.424<62.5445 182.681>
VStem: 36.0125 173.202<16.7196 137.704>
LayerCount: 2
Fore
SplineSet
36.0125 77.212109375 m 0
 36.0125 130.046228809 70.148355948 164.42421875 122.612304688 164.42421875 c 0
 175.077243407 164.42421875 209.2140625 130.046228809 209.2140625 77.212109375 c 0
 209.2140625 24.377076362 175.077243407 -10 122.612304688 -10 c 0
 70.148355948 -10 36.0125 24.377076362 36.0125 77.212109375 c 0
EndSplineSet
EndChar

StartChar: two
Encoding: 50 50 58
Width: 608
Flags: W
HStem: 0 133.874<212.08 576.049> 600.995 137.997<174.979 378.838>
VStem: 414.64 153.285<447.496 566.588>
LayerCount: 2
Fore
SplineSet
414.63953125 505.129306641 m 0
 414.63953125 564.005035887 381.345850445 600.994882812 283.665625 600.994882812 c 0
 184.194110808 600.994882812 112.964335938 547.049882812 112.964335938 547.049882812 c 1
 64.626015625 675.931875 l 1
 64.626015625 675.931875 155.201541645 738.9921875 287.02890625 738.9921875 c 0
 462.185467555 738.9921875 567.92421875 662.477500874 567.92421875 511.47359375 c 0
 567.92421875 376.160977699 492.748593468 320.048374487 349.374023438 249.3059375 c 0
 216.693989923 183.533887638 212.540209124 143.433085817 212.079726562 133.87375 c 1
 576.048828125 133.87375 l 1
 576.048828125 0 l 1
 48.3375 0 l 1
 48.3375 54 l 2
 48.3375 210.13444439 144.806852211 297.903436675 314.821289062 388.459453125 c 0
 387.008328531 426.71805506 414.63953125 461.990906159 414.63953125 505.129306641 c 0
EndSplineSet
Substitution2: "'frac' Diagonal Fractions in Latin lookup 26 subtable" two.numr
Substitution2: "'onum' Oldstyle Figures lookup 18-1" two.osf
Substitution2: "'tnum' Tabular Numbers lookup 17-1" two.tf
Substitution2: "'numr' Numerators lookup 0 subtable" two.numr
Substitution2: "'dnom' Denominators lookup 0 subtable" two.dnom
Substitution2: "'sups' Superscript lookup 0 subtable" two.superior
Substitution2: "'sinf' Scientific Inferiors lookup 0 subtable" two.inferior
Substitution2: "'sups' Superscript lookup 0 subtable" two.superior
EndChar

StartChar: three
Encoding: 51 51 59
Width: 586
Flags: W
HStem: -9.99805 131.994<123.393 350.16> 310.012 125.456<164.139 347.682> 602.711 136.281<126.704 342.762>
VStem: 374.448 159.285<460.74 571.751> 389.892 159.681<158.167 273.485>
LayerCount: 2
Fore
SplineSet
252.388671875 435.468945312 m 2xe8
 343.759495554 435.468945313 374.448125 463.241634002 374.448125 518.49734375 c 0
 374.448125 566.369420239 345.315849121 602.711132812 250.885229492 602.711132812 c 0
 142.633956977 602.711132812 76.8941796875 558.516132812 76.8941796875 558.516132812 c 1
 37.218359375 686.296875 l 1
 37.218359375 686.296875 118.575653621 738.9921875 259.60125 738.9921875 c 0
 429.425078939 738.9921875 533.7328125 667.938953315 533.7328125 533.104414062 c 0xf0
 533.7328125 411.637173421 423.400585938 375.596015625 423.400585938 375.596015625 c 1
 423.400585938 375.596015625 549.573632812 341.292224096 549.573632812 205.344505616 c 0
 549.573632812 51.7440919184 432.81560697 -9.998046875 257.5 -9.998046875 c 0
 105.943581597 -9.998046875 15.788671875 40.9091796875 15.788671875 40.9091796875 c 1
 59.1056640625 173.467695312 l 1
 59.1056640625 173.467695312 131.864384125 121.995703125 246.3375 121.995703125 c 0
 345.536031103 121.995703125 389.892148438 155.786874481 389.892148438 216.71 c 0
 389.892148438 279.423607203 342.611343563 309.503098622 252.388671875 309.749804688 c 2
 164 310.0125 l 1
 164.138671875 435.468945312 l 1
 252.388671875 435.468945312 l 2xe8
EndSplineSet
Substitution2: "'frac' Diagonal Fractions in Latin lookup 26 subtable" three.numr
Substitution2: "'onum' Oldstyle Figures lookup 18-1" three.osf
Substitution2: "'tnum' Tabular Numbers lookup 17-1" three.tf
Substitution2: "'numr' Numerators lookup 0 subtable" three.numr
Substitution2: "'dnom' Denominators lookup 0 subtable" three.dnom
Substitution2: "'sups' Superscript lookup 0 subtable" three.superior
Substitution2: "'sinf' Scientific Inferiors lookup 0 subtable" three.inferior
Substitution2: "'sups' Superscript lookup 0 subtable" three.superior
EndChar

StartChar: comma
Encoding: 44 44 61
Width: 252
Flags: W
HStem: -115.19 279.614
VStem: 36.0125 180.202<18.7472 133.03>
LayerCount: 2
Fore
SplineSet
36.0125 77.212109375 m 0
 36.0125 130.046228809 70.148355948 164.42421875 122.612304688 164.42421875 c 0
 179.317972237 164.42421875 216.2140625 128.680620398 216.2140625 63.9875 c 0
 216.2140625 -36.350987154 122.73 -115.19 122.73 -115.19 c 1
 54.93875 -72.6625 l 1
 54.93875 -72.6625 95.5204316491 -41.3883764824 113.617250267 -9.55020542604 c 1
 66.2107797039 -5.08087773361 36.0125 28.0962517054 36.0125 77.212109375 c 0
EndSplineSet
EndChar

StartChar: zero
Encoding: 48 48 63
Width: 683
Flags: W
HStem: -9.99805 137.302<268.502 415.275> 601.819 137.302<268.502 415.275>
VStem: 37.8375 150.284<227.411 501.712> 495.656 150.284<227.411 501.712>
LayerCount: 2
Fore
SplineSet
188.121132812 364.561523438 m 0
 188.121132812 222.289135497 234.173611848 127.303867188 341.888671875 127.303867188 c 0
 449.603731902 127.303867188 495.656210938 222.289135497 495.656210938 364.561523438 c 0
 495.656210938 506.833911375 449.603731902 601.819179688 341.888671875 601.819179688 c 0
 234.173611848 601.819179688 188.121132812 506.833911375 188.121132812 364.561523438 c 0
37.8375 364.561523438 m 0
 37.8375 591.206054688 142.977077361 739.12109375 341.888671875 739.12109375 c 0
 540.800266389 739.12109375 645.93984375 591.206054688 645.93984375 364.561523438 c 0
 645.93984375 137.916992188 540.800266389 -9.998046875 341.888671875 -9.998046875 c 0
 142.977077361 -9.998046875 37.8375 137.916992188 37.8375 364.561523438 c 0
EndSplineSet
Substitution2: "'frac' Diagonal Fractions in Latin lookup 26 subtable" zero.numr
Substitution2: "'onum' Oldstyle Figures lookup 18-1" zero.osf
Substitution2: "'tnum' Tabular Numbers lookup 17-1" zero.tf
Substitution2: "'numr' Numerators lookup 0 subtable" zero.numr
Substitution2: "'dnom' Denominators lookup 0 subtable" zero.dnom
Substitution2: "'sups' Superscript lookup 0 subtable" zero.superior
Substitution2: "'sinf' Scientific Inferiors lookup 0 subtable" zero.inferior
Substitution2: "'sups' Superscript lookup 0 subtable" zero.superior
EndChar

StartChar: one
Encoding: 49 49 64
Width: 415
Flags: W
HStem: 0 21G<200.525 356.825> 711 20G<182.198 356.825>
VStem: 200.525 156.3<0 574.964>
LayerCount: 2
Fore
SplineSet
356.825 731 m 1
 356.825 0 l 1
 200.525 0 l 1
 200.525 574.96375 l 1
 62 498.28875 l 1
 13.5125 615.5 l 1
 217.525 731 l 1
 356.825 731 l 1
EndSplineSet
Substitution2: "'frac' Diagonal Fractions in Latin lookup 26 subtable" one.numr
Substitution2: "'onum' Oldstyle Figures lookup 18-1" one.osf
Substitution2: "'tnum' Tabular Numbers lookup 17-1" one.tf
Substitution2: "'numr' Numerators lookup 0 subtable" one.numr
Substitution2: "'dnom' Denominators lookup 0 subtable" one.dnom
Substitution2: "'sups' Superscript lookup 0 subtable" one.superior
Substitution2: "'sinf' Scientific Inferiors lookup 0 subtable" one.inferior
Substitution2: "'sups' Superscript lookup 0 subtable" one.superior
EndChar

StartChar: four
Encoding: 52 52 65
Width: 660
Flags: W
HStem: 0 21G<371.533 522.717> 166.695 126.374<202.475 627.163> 711 20G<358.586 522.717>
VStem: 371.533 151.185<0 517.212>
LayerCount: 2
Fore
SplineSet
522.7175 731 m 1
 522.7175 0 l 1
 371.5325 0 l 1
 371.5325 517.2125 l 1
 202.475 293.06875 l 1
 627.1625 293.06875 l 1
 627.1625 166.695 l 1
 61.8375 166.695 l 1
 33.925 276.56875 l 1
 373.5325 731 l 1
 522.7175 731 l 1
EndSplineSet
Substitution2: "'frac' Diagonal Fractions in Latin lookup 26 subtable" four.numr
Substitution2: "'onum' Oldstyle Figures lookup 18-1" four.osf
Substitution2: "'tnum' Tabular Numbers lookup 17-1" four.tf
Substitution2: "'numr' Numerators lookup 0 subtable" four.numr
Substitution2: "'dnom' Denominators lookup 0 subtable" four.dnom
Substitution2: "'sups' Superscript lookup 0 subtable" four.superior
Substitution2: "'sinf' Scientific Inferiors lookup 0 subtable" four.inferior
Substitution2: "'sups' Superscript lookup 0 subtable" four.superior
EndChar

StartChar: exclam
Encoding: 33 33 66
Width: 274
Flags: W
HStem: -10 174.424<76.9313 197.068> 711.008 20G<60.215 217.785>
VStem: 50.3992 173.202<16.7196 137.704> 60.215 157.57<541.213 731.008> 78.8775 120.245<225 414.795>
LayerCount: 2
Fore
SplineSet
78.8775 225 m 1xc8
 60.215 731.0078125 l 1
 217.785 731.0078125 l 1xd0
 199.1225 225 l 1
 78.8775 225 l 1xc8
50.39921875 77.212109375 m 0xe0
 50.39921875 130.046228809 84.535074698 164.42421875 136.999023438 164.42421875 c 0
 189.463962157 164.42421875 223.60078125 130.046228809 223.60078125 77.212109375 c 0
 223.60078125 24.377076362 189.463962157 -10 136.999023438 -10 c 0
 84.535074698 -10 50.39921875 24.377076362 50.39921875 77.212109375 c 0xe0
EndSplineSet
EndChar

StartChar: five
Encoding: 53 53 67
Width: 594
Flags: W
HStem: -9.99805 137.746<122.619 351.629> 358.974 122.025<220.255 363.033> 598.285 132.723<212.448 512.172>
VStem: 402.808 154.181<176.296 318.899>
LayerCount: 2
Fore
SplineSet
267 -9.998046875 m 0
 111.054482679 -9.998046875 18.288671875 40.9091796875 18.288671875 40.9091796875 c 1
 57.6056640625 175.798945312 l 1
 57.6056640625 175.798945312 142.675429661 127.74828125 252 127.74828125 c 0
 360.7363628 127.74828125 402.808476562 172.612904024 402.808476562 245.238671875 c 0
 402.808476562 316.472806849 363.316390532 358.974296875 283.8375 358.974296875 c 0
 199.662285547 358.974296875 170.88 306.2025 170.88 306.2025 c 1
 54.616015625 335.357265625 l 1
 87.66875 731.0078125 l 1
 512.171875 731.0078125 l 1
 512.171875 598.284570312 l 1
 212.4484375 598.284570312 l 1
 199.243203125 443.993515625 l 1
 199.243203125 443.993515625 230.179317255 480.998867188 329.815429688 480.998867188 c 0
 476.373901996 480.998867188 556.989648438 394.194090134 556.989648438 249.409570312 c 0
 556.989648438 88.6253687181 458.981333753 -9.998046875 267 -9.998046875 c 0
EndSplineSet
Substitution2: "'frac' Diagonal Fractions in Latin lookup 26 subtable" five.numr
Substitution2: "'onum' Oldstyle Figures lookup 18-1" five.osf
Substitution2: "'tnum' Tabular Numbers lookup 17-1" five.tf
Substitution2: "'numr' Numerators lookup 0 subtable" five.numr
Substitution2: "'dnom' Denominators lookup 0 subtable" five.dnom
Substitution2: "'sups' Superscript lookup 0 subtable" five.superior
Substitution2: "'sinf' Scientific Inferiors lookup 0 subtable" five.inferior
Substitution2: "'sups' Superscript lookup 0 subtable" five.superior
EndChar

StartChar: six
Encoding: 54 54 68
Width: 640
Flags: W
HStem: -9.99805 128.33<249.517 412.431> 355.449 116.65<249.2 410.856> 606.815 132.178<271.069 482.761>
VStem: 37.8375 165.8<192.034 445.19> 458.025 144.303<162.661 311.596>
LayerCount: 2
Back
SplineSet
178.3984375 236.890625 m 0
 178.3984375 160.019065367 219.88147703 103.890625 320.3984375 103.890625 c 0
 421.623435844 103.890625 463.3984375 160.019065367 463.3984375 236.890625 c 0
 463.3984375 314.340166284 421.623435844 370.890625 320.3984375 370.890625 c 0
 219.88147703 370.890625 178.3984375 314.340166284 178.3984375 236.890625 c 0
163.303710938 405.747070312 m 1
 163.303710938 405.747070312 204.094697864 475.599609375 331.263671875 475.599609375 c 0
 505.711185917 475.599609375 585.165039062 379.238029036 585.165039062 239 c 0
 585.165039062 79.095703125 484.937095781 -9.998046875 321.297851562 -9.998046875 c 0
 141.540405276 -9.998046875 35 99.6728515625 35 365.331054688 c 0
 35 605.528320312 149.046377502 738.9921875 354.297851562 738.9921875 c 0
 495.428880973 738.9921875 566.923828125 678.860351562 566.923828125 678.860351562 c 1
 522.619140625 573.388671875 l 5
 522.619140625 573.388671875 463.487673927 622.51953125 354.778320312 622.51953125 c 4
 232.266224145 622.51953125 170.301516454 546.295339891 163.303710938 405.747070312 c 1
EndSplineSet
Fore
SplineSet
203.6371875 236.890625 m 0
 203.6371875 168.36584289 241.001302901 118.331875 330.3984375 118.331875 c 0
 420.607756212 118.331875 458.0246875 168.36584289 458.0246875 236.890625 c 0
 458.0246875 305.41540711 420.740863688 355.449375 330.3984375 355.449375 c 0
 241.001302901 355.449375 203.6371875 305.41540711 203.6371875 236.890625 c 0
183.441210938 414.209570312 m 1
 183.441210938 414.209570312 224.007266995 472.099609375 354.561171875 472.099609375 c 0
 506.362386526 472.099609375 602.327539062 377.163498554 602.327539062 239 c 0
 602.327539062 79.095703125 499.378974658 -9.998046875 331.297851562 -9.998046875 c 0
 146.739546051 -9.998046875 37.8375 99.6728515625 37.8375 365.331054688 c 0
 37.8375 605.528320312 153.549222985 738.9921875 361.797851562 738.9921875 c 0
 509.118373294 738.9921875 583.748828125 679.096601562 583.748828125 679.096601562 c 1
 532.119140625 557.751171875 l 1
 532.119140625 557.751171875 474.854019338 606.81453125 369.575820312 606.81453125 c 0
 250.480441357 606.81453125 189.91763756 540.167122291 183.441210938 414.209570312 c 1
EndSplineSet
Substitution2: "'frac' Diagonal Fractions in Latin lookup 26 subtable" six.numr
Substitution2: "'onum' Oldstyle Figures lookup 18-1" six.osf
Substitution2: "'tnum' Tabular Numbers lookup 17-1" six.tf
Substitution2: "'numr' Numerators lookup 0 subtable" six.numr
Substitution2: "'dnom' Denominators lookup 0 subtable" six.dnom
Substitution2: "'ss07' Style Set 7 lookup 8-1" six.ss07
Substitution2: "'sups' Superscript lookup 0 subtable" six.superior
Substitution2: "'sinf' Scientific Inferiors lookup 0 subtable" six.inferior
Substitution2: "'sups' Superscript lookup 0 subtable" six.superior
EndChar

StartChar: parenright
Encoding: 41 41 69
Width: 402
Flags: W
HStem: -171.47 127.568<32.8375 119.092> 631.902 127.568<32.8375 119.092>
VStem: 225.007 144.282<99.234 488.766>
LayerCount: 2
Fore
SplineSet
32.8375 -43.9018359375 m 1
 161.290041818 -43.9018359375 225.006992188 49.7180597523 225.006992188 294 c 0
 225.006992188 538.281940247 161.290041818 631.901835938 32.8375 631.901835938 c 1
 32.8375 759.469726562 l 1
 251.621859191 759.469726562 369.289453125 611.823242188 369.289453125 294 c 0
 369.289453125 -23.8232421876 251.621859191 -171.469726562 32.8375 -171.469726562 c 1
 32.8375 -43.9018359375 l 1
EndSplineSet
EndChar

StartChar: seven
Encoding: 55 55 70
Width: 604
Flags: W
HStem: 0 21G<165.417 324.351> 596.16 134.84<42.5 385.517>
VStem: 165.417 157.232<0 160.474>
LayerCount: 2
Fore
SplineSet
322.65 0 m 1
 165.4175 0 l 1
 176.615628973 329.492769231 385.5175 596.16 385.5175 596.16 c 1
 42.5 596.16 l 1
 42.5 731 l 1
 561.5 731 l 1
 561.5 627.16 l 1
 561.5 627.16 326.052274973 357.567836 322.65 0 c 1
EndSplineSet
Substitution2: "'frac' Diagonal Fractions in Latin lookup 26 subtable" seven.numr
Substitution2: "'onum' Oldstyle Figures lookup 18-1" seven.osf
Substitution2: "'tnum' Tabular Numbers lookup 17-1" seven.tf
Substitution2: "'numr' Numerators lookup 0 subtable" seven.numr
Substitution2: "'dnom' Denominators lookup 0 subtable" seven.dnom
Substitution2: "'sups' Superscript lookup 0 subtable" seven.superior
Substitution2: "'sinf' Scientific Inferiors lookup 0 subtable" seven.inferior
Substitution2: "'sups' Superscript lookup 0 subtable" seven.superior
EndChar

StartChar: eight
Encoding: 56 56 71
Width: 647
Flags: W
HStem: -9.99805 124.739<232.12 414.88> 321.41 118.673<257.994 392.142> 359.911 55.0818<160.532 489.721> 613.057 125.828<247.806 401.743>
VStem: 37.8375 149.101<154.866 278.812> 73.0973 144.191<472.121 582.989> 434.712 144.191<472.121 582.202> 460.061 149.101<154.866 278.812>
LayerCount: 2
Fore
SplineSet
323.5675 440.082773438 m 0xd6
 392.142210607 440.082773438 434.711757812 473.372909145 434.711757812 526.240390625 c 0
 434.711757812 580.825825695 393.78364069 613.056796875 323.5 613.056796875 c 0
 256.376541045 613.056796875 217.288242188 580.825825695 217.288242188 526.240390625 c 0
 217.288242188 473.372909145 257.994458847 440.082773438 323.5675 440.082773438 c 0xd6
323.5 738.884765625 m 0
 482.692049266 738.884765625 578.902734375 665.090820312 578.902734375 543.655273438 c 0
 578.902734375 424.576811373 489.721456245 359.910742188 323.5 359.910742188 c 0xb6
 160.532456034 359.910742188 73.097265625 424.576811373 73.097265625 543.655273438 c 0
 73.097265625 665.090820312 167.424170162 738.884765625 323.5 738.884765625 c 0
323.5 114.740625 m 0
 411.40565196 114.740625 460.061171875 152.042625082 460.061171875 219.446757812 c 0
 460.061171875 281.806136971 411.424593358 321.409960938 323.5 321.409960938 c 0xd1
 235.575406642 321.409960938 186.938828125 281.806136971 186.938828125 219.446757812 c 0
 186.938828125 152.042625082 235.59434804 114.740625 323.5 114.740625 c 0
323.5 414.992578125 m 0xb9
 507.777139163 414.992578125 609.1625 341.260956862 609.1625 207.875585938 c 0
 609.1625 75.9721151941 496.785733079 -9.998046875 323.5 -9.998046875 c 0
 150.214266921 -9.998046875 37.8375 75.9721151943 37.8375 207.875585938 c 0
 37.8375 341.260956862 139.222860838 414.992578125 323.5 414.992578125 c 0xb9
EndSplineSet
Substitution2: "'frac' Diagonal Fractions in Latin lookup 26 subtable" eight.numr
Substitution2: "'onum' Oldstyle Figures lookup 18-1" eight.osf
Substitution2: "'tnum' Tabular Numbers lookup 17-1" eight.tf
Substitution2: "'numr' Numerators lookup 0 subtable" eight.numr
Substitution2: "'dnom' Denominators lookup 0 subtable" eight.dnom
Substitution2: "'sups' Superscript lookup 0 subtable" eight.superior
Substitution2: "'sinf' Scientific Inferiors lookup 0 subtable" eight.inferior
Substitution2: "'sups' Superscript lookup 0 subtable" eight.superior
EndChar

StartChar: nine
Encoding: 57 57 72
Width: 640
Flags: W
HStem: -9.99805 132.178<152.501 362.889> 253.895 117.468<230.651 394.805> 608.412 130.58<232.497 391.994>
VStem: 37.8375 146.985<415.825 562.016> 449.224 153.104<214.299 314.785>
LayerCount: 2
Fore
SplineSet
439.210351562 489.853515625 m 0
 439.210351562 558.378297735 401.846236161 608.412265625 312.449101562 608.412265625 c 0
 222.27305972 608.412265625 184.822851562 558.378297735 184.822851562 489.853515625 c 0
 184.822851562 421.367747276 222.106675374 371.362265625 312.449101562 371.362265625 c 0
 401.846236161 371.362265625 439.210351562 421.367747276 439.210351562 489.853515625 c 0
449.223828125 314.784570312 m 1
 449.223828125 314.784570312 410.4871096 253.89453125 285.603867188 253.89453125 c 0
 133.802652537 253.89453125 37.8375 350.053249522 37.8375 489.994140625 c 0
 37.8375 649.8984375 140.786064405 738.9921875 308.8671875 738.9921875 c 0
 493.459243011 738.9921875 602.327539062 629.321289062 602.327539062 363.663085938 c 0
 602.327539062 123.465820312 486.615816077 -9.998046875 278.3671875 -9.998046875 c 0
 131.046665768 -9.998046875 56.4162109375 49.8975390625 56.4162109375 49.8975390625 c 1
 100.545898438 171.24296875 l 1
 100.545898438 171.24296875 160.453320921 122.179609375 270.58921875 122.179609375 c 0
 384.885837576 122.179609375 443.021503334 188.827079223 449.223828125 314.784570312 c 1
EndSplineSet
Substitution2: "'frac' Diagonal Fractions in Latin lookup 26 subtable" nine.numr
Substitution2: "'onum' Oldstyle Figures lookup 18-1" nine.osf
Substitution2: "'tnum' Tabular Numbers lookup 17-1" nine.tf
Substitution2: "'numr' Numerators lookup 0 subtable" nine.numr
Substitution2: "'dnom' Denominators lookup 0 subtable" nine.dnom
Substitution2: "'ss07' Style Set 7 lookup 8-1" nine.ss07
Substitution2: "'sups' Superscript lookup 0 subtable" nine.superior
Substitution2: "'sinf' Scientific Inferiors lookup 0 subtable" nine.inferior
Substitution2: "'sups' Superscript lookup 0 subtable" nine.superior
EndChar

StartChar: question
Encoding: 63 63 73
Width: 562
Flags: W
HStem: -10 174.424<164.931 285.068> 299.594 105.768<206.096 341.113> 604.274 134.719<126.866 331.81>
VStem: 138.399 173.202<16.7196 137.704> 165.935 119.931<225 300.721> 377.958 151.074<441.269 561.29>
LayerCount: 2
Back
SplineSet
152.38671875 63.224609375 m 0xf4
 152.38671875 107.584937143 181.008990842 136.44921875 224.999023438 136.44921875 c 0
 268.990077228 136.44921875 297.61328125 107.584937143 297.61328125 63.224609375 c 0
 297.61328125 18.8635145521 268.990077228 -10 224.999023438 -10 c 0
 181.008990842 -10 152.38671875 18.8635145521 152.38671875 63.224609375 c 0xf4
280.88671875 300.653320312 m 1
 282.37890625 210 l 1
 169.422851562 210 l 1xec
 171.15625 399.46875 l 1
 171.15625 399.46875 208.949224154 395.048828125 256.3984375 395.048828125 c 0
 348.180522211 395.048828125 392.095703125 431.389934102 392.095703125 499.145507812 c 0
 392.095703125 585.201602829 327.571533338 623.228515625 232.89453125 623.228515625 c 0
 138.66274719 623.228515625 76.923828125 573.958007812 76.923828125 573.958007812 c 1
 30.2412109375 685.311523438 l 1
 30.2412109375 685.311523438 107.390463661 738.9921875 239.89453125 738.9921875 c 0
 405.150107971 738.9921875 521.870117188 670 521.870117188 501.010742188 c 0
 521.870117188 365.685958308 421.37343496 300.59375 309 300.59375 c 0
 290.63582236 300.59375 280.88671875 300.653320312 280.88671875 300.653320312 c 1
EndSplineSet
Fore
SplineSet
138.39921875 77.212109375 m 0xf4
 138.39921875 130.046228809 172.535074698 164.42421875 224.999023438 164.42421875 c 0
 277.463962157 164.42421875 311.60078125 130.046228809 311.60078125 77.212109375 c 0
 311.60078125 24.377076362 277.463962157 -10 224.999023438 -10 c 0
 172.535074698 -10 138.39921875 24.377076362 138.39921875 77.212109375 c 0xf4
284.37421875 300.720820312 m 1
 285.86640625 225 l 1
 165.935351562 225 l 1xec
 167.66875 409.84875 l 1
 167.66875 409.84875 201.731958361 405.361328125 244.4984375 405.361328125 c 0
 334.767135677 405.361328125 377.958203125 438.451354909 377.958203125 500.145507812 c 0
 377.958203125 572.36208196 320.785154663 604.273515625 236.89453125 604.273515625 c 0
 137.825664289 604.273515625 72.917578125 553.820507812 72.917578125 553.820507812 c 1
 20.5787109375 685.311523438 l 1
 20.5787109375 685.311523438 101.283617602 738.9921875 239.89453125 738.9921875 c 0
 409.347787229 738.9921875 529.032617188 667.831925825 529.032617188 502.010742188 c 0
 529.032617188 365.335526068 429.004591873 299.59375 321.345 299.59375 c 0
 297.19491989 299.59375 284.37421875 300.720820312 284.37421875 300.720820312 c 1
EndSplineSet
EndChar

StartChar: hyphen
Encoding: 45 45 74
Width: 354
Flags: W
HStem: 214.762 129.475<32.8375 321.163>
VStem: 32.8375 288.325<214.762 344.238>
LayerCount: 2
Fore
SplineSet
321.1625 214.7625 m 1
 32.8375 214.7625 l 1
 32.8375 344.2375 l 1
 321.1625 344.2375 l 1
 321.1625 214.7625 l 1
EndSplineSet
EndChar

StartChar: quotesingle
Encoding: 39 39 75
Width: 266
Flags: W
HStem: 456 275.008<84.675 185.325>
VStem: 84.675 100.65<456 559.151>
LayerCount: 2
Fore
SplineSet
84.675 456 m 1
 66.0125 731.0078125 l 1
 203.9875 731.0078125 l 1
 185.325 456 l 1
 84.675 456 l 1
EndSplineSet
EndChar

StartChar: parenleft
Encoding: 40 40 77
Width: 402
Flags: W
HStem: -171.47 127.568<283.035 369.289> 631.902 127.568<283.035 369.289>
VStem: 32.8375 144.282<99.234 488.766>
LayerCount: 2
Fore
SplineSet
369.289453125 -43.9018359375 m 1
 369.289453125 -171.469726562 l 1
 150.505093934 -171.469726562 32.8375 -23.8232421876 32.8375 294 c 0
 32.8375 611.823242188 150.505093934 759.469726562 369.289453125 759.469726562 c 1
 369.289453125 631.901835938 l 1
 240.836911307 631.901835938 177.119960938 538.281940247 177.119960938 294 c 0
 177.119960938 49.7180597523 240.836911307 -43.9018359375 369.289453125 -43.9018359375 c 1
EndSplineSet
EndChar

StartChar: asterisk
Encoding: 42 42 78
Width: 400
Flags: W
HStem: 718.992 20G<141.013 259.427>
LayerCount: 2
Fore
SplineSet
259.426523438 738.9921875 m 1
 248.653984375 613.240117188 l 1
 359.216679688 663.104804688 l 1
 395.440429688 557.375390625 l 1
 277.052734375 528.105078125 l 1
 359.236523438 433.994335938 l 1
 261.77265625 367.186992188 l 1
 200.219726562 478.560195312 l 1
 138.666796875 367.186992188 l 1
 41.2029296875 433.994335938 l 1
 123.38671875 528.105078125 l 1
 5 557.375390625 l 1
 41.22375 663.104804688 l 1
 151.78546875 613.240117188 l 1
 141.012929688 738.9921875 l 1
 259.426523438 738.9921875 l 1
EndSplineSet
Substitution2: "'ss13' Style Set 13 lookup 14-1" asterisk.ss13
EndChar

StartChar: less
Encoding: 60 60 79
Width: 450
Flags: W
LayerCount: 2
Fore
SplineSet
420 155.675 m 1
 30 291.0125 l 1
 30 424.9875 l 1
 420 560.325 l 1
 420 435.1 l 1
 180.091601562 358 l 1
 420 280.9 l 1
 420 155.675 l 1
EndSplineSet
EndChar

StartChar: greater
Encoding: 62 62 80
Width: 450
Flags: W
LayerCount: 2
Fore
SplineSet
30 560.325 m 1
 420 424.9875 l 1
 420 291.0125 l 1
 30 155.675 l 1
 30 280.9 l 1
 267.745898438 358 l 1
 30 435.1 l 1
 30 560.325 l 1
EndSplineSet
EndChar

StartChar: slash
Encoding: 47 47 81
Width: 434
Flags: W
LayerCount: 2
Fore
SplineSet
14.86375 -171.469726562 m 1
 289.86375 761.403320312 l 1
 419.13625 761.403320312 l 1
 144.13625 -171.469726562 l 1
 14.86375 -171.469726562 l 1
EndSplineSet
Substitution2: "'frac' Diagonal Fractions in Latin lookup 25 subtable" fraction
EndChar

StartChar: bar
Encoding: 124 124 82
Width: 249
Flags: W
VStem: 59.9312 129.137<-171.47 759.47>
LayerCount: 2
Fore
SplineSet
59.93125 -171.469726562 m 1
 59.93125 759.469726562 l 1
 189.06875 759.469726562 l 1
 189.06875 -171.469726562 l 1
 59.93125 -171.469726562 l 1
EndSplineSet
EndChar

StartChar: bracketleft
Encoding: 91 91 83
Width: 375
Flags: W
HStem: -171.47 115.481<196.907 339.663> 644.238 115.231<196.907 339.663>
VStem: 60.0675 279.595<-171.47 -55.9885 644.238 759.47> 60.0675 136.84<-55.9885 644.238>
LayerCount: 2
Fore
SplineSet
60.0675 759.469726562 m 1xe0
 339.6625 759.469726562 l 1
 339.6625 644.238476562 l 1xe0
 196.9075 644.238476562 l 1
 196.9075 -55.9884765625 l 1xd0
 339.6625 -55.9884765625 l 1
 339.6625 -171.469726562 l 1
 60.0675 -171.469726562 l 1
 60.0675 759.469726562 l 1xe0
EndSplineSet
EndChar

StartChar: bracketright
Encoding: 93 93 84
Width: 375
Flags: W
HStem: -171.47 115.481<35.3375 178.093> 644.022 115.447<35.3375 178.093>
VStem: 35.3375 279.595<-171.47 -55.9885 644.022 759.47> 178.093 136.84<-55.9885 644.022>
LayerCount: 2
Fore
SplineSet
314.9325 -171.469726562 m 1xd0
 35.3375 -171.469726562 l 1
 35.3375 -55.9884765625 l 1xe0
 178.0925 -55.9884765625 l 1
 178.0925 644.022226562 l 1xd0
 35.3375 644.022226562 l 1
 35.3375 759.469726562 l 1xe0
 314.9325 759.469726562 l 1
 314.9325 -171.469726562 l 1xd0
EndSplineSet
EndChar

StartChar: asciicircum
Encoding: 94 94 85
Width: 449
Flags: W
HStem: 440 291.008
LayerCount: 2
Fore
SplineSet
290.4875 731.0078125 m 1
 441.1625 440 l 1
 307.6875 440 l 1
 225.393554688 629.250976562 l 1
 142.3125 440 l 1
 7.8375 440 l 1
 158.5125 731.0078125 l 1
 290.4875 731.0078125 l 1
EndSplineSet
EndChar

StartChar: braceleft
Encoding: 123 123 86
Width: 433
Flags: W
HStem: -171.47 113.477<277.298 391.548> 255.045 118.975<35 117.897> 645.992 113.477<277.205 391.627>
VStem: 125.675 136.975<-42.1924 246.28 382.08 630.192>
LayerCount: 2
Fore
SplineSet
202.35875 314.532226562 m 1
 202.35875 314.532226562 262.65 289.612583705 262.65 209.869726562 c 2
 262.65 209.869726562 262.65 14.1763671875 262.65 14.1763671875 c 2
 262.65 -41.2354270935 289.494211888 -57.9923828125 337.325 -57.9923828125 c 0
 381.321647442 -57.9923828125 391 -52.8236328125 391 -52.8236328125 c 1
 398 -161.368476562 l 1
 398 -161.368476562 361.128737113 -171.469726562 301.3375 -171.469726562 c 0
 172.010706485 -171.469726562 125.675 -111.770800781 125.675 -10.4697265625 c 2
 125.675 192.369726562 l 2
 125.675 240.213117439 107.176953125 255.044726562 70.675 255.044726562 c 2
 35 255.044726562 l 1
 35 374.019726562 l 1
 70.675 374.019726562 l 2
 107.176953125 374.019726562 125.675 388.85232288 125.675 436.694726562 c 2
 125.675 598.469726562 l 2
 125.675 699.768026194 172.010706485 759.469726562 301.3375 759.469726562 c 0
 355.897003866 759.469726562 398 749.368476562 398 749.368476562 c 1
 391 640.823632812 l 1
 391 640.823632812 373.970422363 645.992382812 336.325 645.992382812 c 0
 289.134837864 645.992382812 262.65 629.234448242 262.65 573.823632812 c 2
 262.65 419.194726562 l 2
 262.65 337.461218262 202.35875 314.532226562 202.35875 314.532226562 c 1
EndSplineSet
EndChar

StartChar: grave
Encoding: 96 96 87
Width: 242
Flags: W
HStem: 521 220.008
VStem: 4.175 233.65
LayerCount: 2
Fore
SplineSet
144.5125 521 m 1
 144.5125 521 4.175 711.0078125 4.175 711.0078125 c 1
 4.175 711.0078125 138.15 741.0078125 138.15 741.0078125 c 1
 237.825 541 l 1
 144.5125 521 l 1
EndSplineSet
EndChar

StartChar: underscore
Encoding: 95 95 88
Width: 564
Flags: W
HStem: -104.312 104.312<32.5 531.5>
LayerCount: 2
Fore
SplineSet
531.5 -104.3125 m 1
 32.5 -104.3125 l 1
 32.5 0 l 1
 531.5 0 l 1
 531.5 -104.3125 l 1
EndSplineSet
EndChar

StartChar: dollar
Encoding: 36 36 89
Width: 591
Flags: W
HStem: -105 172.782<231.079 357.93> -10 136.518<137.121 367.89> 601.603 137.518<231.776 443.916> 657.025 172.445<231.079 357.93>
VStem: 44.9645 160.362<477.565 574.225> 231.079 126.851<-105 67.7822 657.025 829.47> 399.147 154.535<155.068 252.414>
LayerCount: 2
Fore
SplineSet
231.078613281 -105 m 1x8e
 231.078613281 67.7822265625 l 1
 357.929931641 67.7822265625 l 1
 357.929931641 -105 l 1
 231.078613281 -105 l 1x8e
231.078613281 657.024902344 m 1x1e
 231.078613281 829.469726562 l 1
 357.929931641 829.469726562 l 1
 357.929931641 657.024902344 l 1
 231.078613281 657.024902344 l 1x1e
EndSplineSet
Refer: 22 83 N 1 0 0 1 0 0 2
EndChar

StartChar: percent
Encoding: 37 37 90
Width: 953
Flags: W
HStem: -9.99805 108.809<668.116 777.058> 0 21G<190.762 325.118> 268.044 108.808<667.492 777.698> 352.143 108.808<177.478 286.058> 630.183 108.809<176.861 286.698> 711.008 20G<630.882 765.238>
VStem: 37.8375 118.52<483.104 608.943> 308.713 116.41<483.104 608.943> 528.837 117.52<120.963 246.803> 799.713 116.41<120.963 246.803>
LayerCount: 2
Fore
SplineSet
646.35765625 183.981445312 m 0xa3c0
 646.35765625 122.880379683 680.776269999 98.8109765621 722.48046875 98.8109765621 c 0
 763.758520319 98.8109765621 799.71265625 122.880379683 799.71265625 183.981445312 c 0
 799.71265625 245.627392271 763.758520319 268.043515625 722.48046875 268.043515625 c 0
 680.776269999 268.043515625 646.35765625 245.627392271 646.35765625 183.981445312 c 0xa3c0
528.8375 183.981445312 m 0
 528.8375 290.256670854 599.490878588 376.8515625 722.48046875 376.8515625 c 0
 845.469068664 376.8515625 916.122460938 290.256670854 916.122460938 183.981445312 c 0
 916.122460938 77.8171513741 845.469068664 -9.998046875 722.48046875 -9.998046875 c 0
 599.490878588 -9.998046875 528.8375 77.8171513741 528.8375 183.981445312 c 0
156.35765625 546.122070312 m 0
 156.35765625 485.021072047 190.326238813 460.950625 231.48046875 460.950625 c 0
 272.758520319 460.950625 308.71265625 485.021072047 308.71265625 546.122070312 c 0
 308.71265625 607.767015306 272.758520319 630.183164062 231.48046875 630.183164062 c 0x1bc0
 190.326238813 630.183164062 156.35765625 607.767015306 156.35765625 546.122070312 c 0
37.8375 546.122070312 m 0
 37.8375 652.397295854 108.490878588 738.9921875 231.48046875 738.9921875 c 0
 354.469068664 738.9921875 425.122460938 652.397295854 425.122460938 546.122070312 c 0
 425.122460938 439.957776374 354.469068664 352.142578125 231.48046875 352.142578125 c 0
 108.490878588 352.142578125 37.8375 439.957776374 37.8375 546.122070312 c 0
EndSplineSet
Refer: 138 8260 N 1 0 0 1 301 0 2
EndChar

StartChar: at
Encoding: 64 64 91
Width: 924
Flags: W
HStem: -159.727 108.787<353.823 649.815> 71.9697 110.451<394.648 510.483 670.572 759.08> 370.605 108.471<405.716 519.789> 600.676 107.051<343.357 601.555>
VStem: 35.3375 114.569<145.995 403.423> 243.011 131.843<202.991 339.844> 540.378 125.56<221.333 335.868> 551.228 64.2429<151.58 350.156> 781.416 107.534<202.139 438.36>
LayerCount: 2
Fore
SplineSet
374.853398438 265.5546875 m 0xfe80
 374.853398438 211.155210273 400.913449305 182.421132812 450.255585938 182.421132812 c 0
 507.170717214 182.421132812 540.377617188 221.332892185 540.377617188 288.029296875 c 0
 540.377617188 341.359417032 511.195545436 370.605234375 463.794960938 370.605234375 c 0
 407.564973793 370.605234375 374.853398438 331.968892783 374.853398438 265.5546875 c 0xfe80
424.892578125 71.9697265625 m 0
 316.007994084 71.9697265625 243.010546875 147.148259688 243.010546875 259.287109375 c 0
 243.010546875 389.543834196 329.187578513 479.076171875 443.624511719 479.076171875 c 0
 560.34224352 479.076171875 615.471132812 402.738153282 615.471132812 264.83109375 c 0xfd80
 615.471132812 151.579673051 536.804879579 71.9697265625 424.892578125 71.9697265625 c 0
487.713867188 -159.7265625 m 0
 207.606437941 -159.7265625 35.3375 14.611328125 35.3375 268.08984375 c 0
 35.3375 524.041992188 212.958738637 707.7265625 468.920898438 707.7265625 c 0
 714.141267667 707.7265625 888.949609375 561.379882812 888.949609375 321.901367188 c 0
 888.949609375 171.18359375 820.235412453 72.708984375 700.301953125 72.708984375 c 0
 606.839878004 72.708984375 551.228203125 120.982421875 551.228203125 228.081054688 c 0xfd80
 551.228203125 350.15625 590.258476562 476.46484375 590.258476562 476.46484375 c 1
 707.94765625 476.46484375 l 1
 707.94765625 476.46484375 665.9375 335.867972017 665.9375 234.577148438 c 0xfe80
 665.9375 196.005121226 680.184825488 175.649765625 709.180019531 175.649765625 c 0
 753.284388664 175.649765625 781.415742188 207.091586716 781.415742188 320.572265625 c 0
 781.415742188 499.589422296 660.504134314 600.67578125 465.585625 600.67578125 c 0
 273.024778131 600.67578125 149.906054688 474.405137298 149.906054688 276.489257812 c 0
 149.906054688 73.0290957942 267.819479086 -50.94 497.4434375 -50.94 c 0
 663.755724588 -50.94 767.72078125 22.0726171875 767.72078125 22.0726171875 c 1
 805.250976562 -72.2255859375 l 1
 805.250976562 -72.2255859375 701.004882812 -159.7265625 487.713867188 -159.7265625 c 0
EndSplineSet
EndChar

StartChar: numbersign
Encoding: 35 35 92
Width: 767
Flags: W
HStem: 0 21G<102.31 234.036 372.31 504.036> 177.243 112.015<40.3375 691.663> 424.743 112.015<75.3375 726.663> 711.008 20G<262.796 394.521 532.796 664.521>
LayerCount: 2
Fore
SplineSet
75.3375 536.7575 m 1
 726.6625 536.7575 l 1
 726.6625 424.7425 l 1
 75.3375 424.7425 l 1
 75.3375 536.7575 l 1
40.3375 289.2575 m 1
 691.6625 289.2575 l 1
 691.6625 177.2425 l 1
 40.3375 177.2425 l 1
 40.3375 289.2575 l 1
372.31 0 m 1
 537.31 731.0078125 l 1
 664.52125 731.0078125 l 1
 499.52125 0 l 1
 372.31 0 l 1
102.31 0 m 1
 267.31 731.0078125 l 1
 394.52125 731.0078125 l 1
 229.52125 0 l 1
 102.31 0 l 1
EndSplineSet
EndChar

StartChar: braceright
Encoding: 125 125 93
Width: 433
Flags: W
HStem: -171.47 113.477<37.1269 152.879> 255.045 118.975<315.103 398> 645.992 113.477<37.0481 152.979>
VStem: 170.35 136.975<-40.428 246.28 382.08 628.427>
LayerCount: 2
Fore
SplineSet
230.675 314.532226562 m 1
 230.675 314.532226562 170.35 337.461218262 170.35 419.194726562 c 2
 170.35 566.038632812 l 2
 170.35 627.426733398 142.310402397 645.992382812 92.35 645.992382812 c 0
 54.7045776367 645.992382812 37.675 640.823632812 37.675 640.823632812 c 1
 30.675 749.368476562 l 1
 30.675 749.368476562 72.777996134 759.469726562 127.3375 759.469726562 c 0
 259.848458501 759.469726562 307.325 696.88120795 307.325 590.684726562 c 2
 307.325 436.694726562 l 2
 307.325 388.85232288 325.823046875 374.019726562 362.325 374.019726562 c 2
 398 374.019726562 l 1
 398 255.044726562 l 1
 362.325 255.044726562 l 2
 325.823046875 255.044726562 307.325 240.213117439 307.325 192.369726562 c 2
 307.325 -2.6847265625 l 2
 307.325 -108.884116699 259.848458501 -171.469726562 127.3375 -171.469726562 c 0
 67.5462628866 -171.469726562 30.675 -161.368476562 30.675 -161.368476562 c 1
 37.675 -52.8236328125 l 1
 37.675 -52.8236328125 47.3533525575 -57.9923828125 91.35 -57.9923828125 c 0
 141.951034628 -57.9923828125 170.35 -39.4278178405 170.35 21.9613671875 c 2
 170.35 21.9613671875 170.35 209.869726562 170.35 209.869726562 c 2
 170.35 289.612583705 230.675 314.532226562 230.675 314.532226562 c 1
EndSplineSet
EndChar

StartChar: asciitilde
Encoding: 126 126 94
Width: 436
VWidth: 999
Flags: W
HStem: 282.472 118.312<232.286 353.586> 332.147 117.312<83.086 204.849>
LayerCount: 2
Fore
SplineSet
428.5 355.30375 m 1x80
 428.5 355.30375 377.61557377 282.4725 299.16875 282.4725 c 0x80
 221.46673077 282.4725 195.566057692 332.1475 138.83125 332.1475 c 0
 99.175634058 332.1475 66.825 295.6475 66.825 295.6475 c 1
 7.5 391.96 l 1
 7.5 391.96 63.6848872951 449.46 136.83125 449.46 c 0x40
 213.299903847 449.46 245.367403846 400.785 297.16875 400.785 c 0
 342.1575 400.785 365.175 433.45375 365.175 433.45375 c 1
 428.5 355.30375 l 1x80
EndSplineSet
EndChar

StartChar: cent
Encoding: 162 162 95
Width: 494
Flags: W
HStem: -5 187.782<233.862 352.753> 105.002 122.572<238.128 413.946> 501.242 124.692<233.16 406.293> 571.012 158.457<233.862 352.753>
VStem: 37.8375 147.784<283.178 451.639> 233.862 118.891<-5 182.782 571.012 729.47>
LayerCount: 2
Fore
SplineSet
233.861572266 -5 m 1x8c
 233.861572266 182.782226562 l 1
 352.752929688 182.782226562 l 1
 352.752929688 -5 l 1
 233.861572266 -5 l 1x8c
233.861572266 571.012451172 m 1x1c
 233.861572266 729.469726562 l 1
 352.752929688 729.469726562 l 1
 352.752929688 571.012451172 l 1
 233.861572266 571.012451172 l 1x1c
EndSplineSet
Refer: 40 99 N 1 0 0 1 0 115 2
EndChar

StartChar: sterling
Encoding: 163 163 96
Width: 553
Flags: W
HStem: 0 133.874<207.619 523> 280.512 125.475<42.5 434> 603.565 135.897<249.833 449.546>
VStem: 62.1891 160.529<449.631 576.783> 139.662 141.545<221.261 406.761>
LayerCount: 2
Fore
SplineSet
434 280.5125 m 1xe0
 42.5 280.5125 l 1
 42.5 405.9875 l 1
 434 405.9875 l 1
 434 280.5125 l 1xe0
523 0 m 1
 30 0 l 1
 30 117.87375 l 1
 30 117.87375 139.66171875 194.258237836 139.66171875 304.379882812 c 0xe8
 139.66171875 400.641455788 62.1890625 425.674530005 62.1890625 547.185546875 c 0xf0
 62.1890625 671.3984375 158.47004769 739.461914062 302.80859375 739.461914062 c 0
 441.441514393 739.461914062 503.36953125 703.000273438 503.36953125 703.000273438 c 1
 474.9375 571.630664062 l 1
 474.9375 571.630664062 409.397558213 603.56484375 336.79609375 603.56484375 c 0
 273.389098036 603.56484375 222.717578125 589.452673402 222.717578125 519.063590087 c 0
 222.717578125 450.374580294 281.206445312 412.880081201 281.206445312 312.658203125 c 0xe8
 281.206445312 201.87507791 207.619335938 133.87375 207.619335938 133.87375 c 1
 523 133.87375 l 1
 523 0 l 1
EndSplineSet
EndChar

StartChar: yen
Encoding: 165 165 97
Width: 649
Flags: W
HStem: 0 21G<246.35 402.65> 175.675 84.65<84.5 564.5> 305.675 107.488<246.35 402.65> 305.675 84.65<84.5 252.35 396.65 564.5> 322.337 67.9875<252.35 396.65> 711.008 20G<22.8375 202.053 446.947 626.163>
VStem: 246.35 156.3<0 413.163>
LayerCount: 2
Fore
SplineSet
252.35 322.3375 m 1xce
 22.8375 731.0078125 l 1
 192.475 731.0078125 l 1
 324.5 455.316015625 l 1
 456.525 731.0078125 l 1
 626.1625 731.0078125 l 1
 396.65 322.3375 l 1
 252.35 322.3375 l 1xce
246.35 0 m 1
 246.35 413.1625 l 1
 402.65 413.1625 l 1xe6
 402.65 0 l 1
 246.35 0 l 1
564.5 175.675 m 1
 84.5 175.675 l 1
 84.5 260.325 l 1
 564.5 260.325 l 1
 564.5 175.675 l 1
564.5 305.675 m 1xd6
 84.5 305.675 l 1
 84.5 390.325 l 1
 564.5 390.325 l 1
 564.5 305.675 l 1xd6
EndSplineSet
EndChar

StartChar: currency
Encoding: 164 164 98
Width: 513
Flags: W
HStem: 156.724 115.639<205.071 307.573> 441.828 115.827<205.091 307.591>
VStem: 52.9488 123.689<294.289 421.959> 336.363 123.689<294.289 419.524>
LayerCount: 2
Fore
SplineSet
309.426757812 213.774023438 m 1
 411.052148438 246.325195312 l 1
 505.422265625 124.090625 l 1
 376.267578125 66.4830078125 l 1
 309.426757812 213.774023438 l 1
203.833007812 213.774023438 m 1
 136.9921875 66.4830078125 l 1
 7.8375 124.090625 l 1
 102.207617188 246.325195312 l 1
 203.833007812 213.774023438 l 1
309.426757812 497.40859375 m 1
 376.267578125 644.698632812 l 1
 505.422265625 587.091015625 l 1
 411.052148438 464.856445312 l 1
 309.426757812 497.40859375 l 1
203.833007812 497.40859375 m 1
 102.207617188 464.856445312 l 1
 7.8375 587.091015625 l 1
 136.9921875 644.698632812 l 1
 203.833007812 497.40859375 l 1
176.637460938 359.283203125 m 0
 176.637460938 307.161841935 200.256719511 272.363046875 255.5 272.363046875 c 0
 312.144704132 272.363046875 336.362539062 307.161841935 336.362539062 359.283203125 c 0
 336.362539062 408.781554043 312.17788575 441.828359375 255.611328125 441.828359375 c 0
 200.289900476 441.828359375 176.637460938 408.781554043 176.637460938 359.283203125 c 0
52.948828125 359.283203125 m 0
 52.948828125 479.317382812 129.589680329 557.655273438 255.5 557.655273438 c 0
 382.653483866 557.655273438 460.051171875 479.317382812 460.051171875 359.283203125 c 0
 460.051171875 236.715820312 382.653483866 156.723632812 255.5 156.723632812 c 0
 129.589680329 156.723632812 52.948828125 236.715820312 52.948828125 359.283203125 c 0
EndSplineSet
EndChar

StartChar: brokenbar
Encoding: 166 166 99
Width: 249
Flags: W
VStem: 58.85 131.3<-171.47 239 339 759.47>
LayerCount: 2
Fore
SplineSet
58.85 -171.469726562 m 1
 58.85 239 l 1
 190.15 239 l 1
 190.15 -171.469726562 l 1
 58.85 -171.469726562 l 1
58.85 339 m 1
 58.85 759.469726562 l 1
 190.15 759.469726562 l 1
 190.15 339 l 1
 58.85 339 l 1
EndSplineSet
EndChar

StartChar: section
Encoding: 167 167 100
Width: 593
Flags: W
HStem: -19.6709 115.203<164.162 336.579> 639.399 115.203<256.91 429.388>
VStem: 32.7456 133.996<352.032 438.971> 104.896 144.484<555.588 627.775> 344.035 144.619<106.801 180.225> 426.808 133.996<295.971 382.419>
LayerCount: 2
Fore
SplineSet
176.914550782 532.5859375 m 1xe8
 240.373046875 463.05859375 l 1
 240.373046875 463.05859375 166.741943359 453.179477136 166.741943359 392.056152344 c 0
 166.741943359 356.265201715 193.175738402 331.260502879 310.628173828 313.972949219 c 0
 449.69205416 293.513467698 488.653955078 229.076283026 488.653955078 145.032617188 c 0
 488.653955078 42.4332869165 409.44840716 -19.6708984375 279.326171875 -19.6708984375 c 0
 166.611328125 -19.6708984375 111.794189453 19.734375 111.794189453 19.734375 c 1
 147.084375 125.637695312 l 1
 147.084375 125.637695312 197.710300773 95.5322265621 272.329345703 95.5322265621 c 0
 321.791360935 95.5322265621 344.034765625 113.198979361 344.034765625 141.687109375 c 0
 344.034765625 167.345445695 329.34650549 189.157827841 269.184814453 196.946337891 c 0
 82.4931615837 222.212789015 32.7456054688 296.338112204 32.7456054688 380.146972656 c 0
 32.7456054688 509.705813212 176.914550782 532.5859375 176.914550782 532.5859375 c 1xe8
411.635498047 198.290771484 m 1
 352.501953125 272.143066406 l 1
 352.501953125 272.143066406 426.808105469 281.955823715 426.808105469 341.328613281 c 0
 426.808105469 379.054469966 399.146161153 400.974484664 280.938964844 421.220019531 c 0
 143.92877852 444.609384696 104.89609375 505.9853621 104.89609375 589.899023438 c 0
 104.89609375 692.498353708 184.101641668 754.602539062 314.223876953 754.602539062 c 0
 426.938720703 754.602539062 481.755859375 715.197265625 481.755859375 715.197265625 c 1
 446.465673828 609.226445312 l 1
 446.465673828 609.226445312 395.839994835 639.399414062 321.220703125 639.399414062 c 0
 271.665565915 639.399414062 249.380283203 621.668067952 249.380283203 593.07578125 c 0
 249.380283203 567.69795821 263.964678699 547.584370916 326.104492188 537.6921875 c 0
 510.171043448 510.003245236 560.804443359 436.062321335 560.804443359 350.372070312 c 0xd4
 560.804443359 221.138431678 411.635498047 198.290771484 411.635498047 198.290771484 c 1
EndSplineSet
EndChar

StartChar: dieresis
Encoding: 168 168 101
Width: 459
Flags: W
HStem: 579.568 159.424<66.9789 182.021 276.979 392.021>
VStem: 45.3992 158.202<601.315 717.245> 255.399 158.202<601.315 717.245>
LayerCount: 2
Fore
SplineSet
255.39921875 659.280078125 m 0
 255.39921875 707.570962765 286.578344751 738.9921875 334.499023438 738.9921875 c 0
 382.420700873 738.9921875 413.60078125 707.570962765 413.60078125 659.280078125 c 0
 413.60078125 610.988321036 382.420700873 579.56796875 334.499023438 579.56796875 c 0
 286.578344751 579.56796875 255.39921875 610.988321036 255.39921875 659.280078125 c 0
45.39921875 659.280078125 m 0
 45.39921875 707.570962765 76.5783447514 738.9921875 124.499023438 738.9921875 c 0
 172.420700873 738.9921875 203.60078125 707.570962765 203.60078125 659.280078125 c 0
 203.60078125 610.988321036 172.420700873 579.56796875 124.499023438 579.56796875 c 0
 76.5783447514 579.56796875 45.39921875 610.988321036 45.39921875 659.280078125 c 0
EndSplineSet
EndChar

StartChar: copyright
Encoding: 169 169 102
Width: 797
Flags: W
HStem: -9.99805 103.305<279.15 518.627> 177.281 98.6314<367.745 522.591> 453.21 98.6314<367.745 505.139> 635.816 103.305<279.15 518.627>
VStem: 35.3375 106.209<236.095 493.028> 228.545 116.284<299.768 429.355> 656.231 106.209<236.095 493.028>
LayerCount: 2
Fore
SplineSet
228.54453125 364.561523438 m 0
 228.54453125 477.88408452 292.963615832 551.841796875 416.901367188 551.841796875 c 0
 499.514688911 551.841796875 539.460351562 518.7265625 539.460351562 518.7265625 c 1
 509.269765625 427.415859375 l 1
 509.269765625 427.415859375 487.812273928 453.210351562 432.063867188 453.210351562 c 0
 368.567827002 453.210351562 344.828359375 417.720485268 344.828359375 364.561523438 c 0
 344.828359375 311.402561608 368.567827002 275.912695312 432.063867188 275.912695312 c 0
 492.160331621 275.912695312 517.965820312 298.978125 517.965820312 298.978125 c 1
 541.032617188 204.578125 l 1
 541.032617188 204.578125 498.959509606 177.28125 416.901367188 177.28125 c 0
 292.963615832 177.28125 228.54453125 251.238962356 228.54453125 364.561523438 c 0
141.546484375 364.561523438 m 0
 141.546484375 201.902803612 219.294175891 93.306875 398.888671875 93.306875 c 0
 578.483167859 93.306875 656.230859375 201.902803612 656.230859375 364.561523438 c 0
 656.230859375 527.220243263 578.483167859 635.816171875 398.888671875 635.816171875 c 0
 219.294175891 635.816171875 141.546484375 527.220243263 141.546484375 364.561523438 c 0
35.3375 364.561523438 m 0
 35.3375 591.206054688 172.898273052 739.12109375 398.888671875 739.12109375 c 0
 624.879070698 739.12109375 762.43984375 591.206054688 762.43984375 364.561523438 c 0
 762.43984375 137.916992188 624.879070698 -9.998046875 398.888671875 -9.998046875 c 0
 172.898273052 -9.998046875 35.3375 137.916992188 35.3375 364.561523438 c 0
EndSplineSet
EndChar

StartChar: registered
Encoding: 174 174 103
Width: 797
Flags: W
HStem: -9.99805 103.305<279.15 518.627> 311.089 75.5483<303.75 425.145> 469.839 78.4172<351.42 439.04> 635.816 103.305<279.15 518.627>
VStem: 35.3375 106.209<236.095 493.028> 244.588 106.833<182.752 311.089 386.638 469.839> 303.75 47.67<311.089 386.638> 445.045 104.256<391.724 463.835> 656.231 106.209<236.095 493.028>
LayerCount: 2
Fore
SplineSet
303.75 386.637734375 m 1xfb80
 390.174335938 386.692421875 l 2
 421.587620964 386.711131666 445.04484375 393.716717199 445.04484375 427.769453125 c 0
 445.04484375 461.931465797 421.587619779 469.760182041 390.174335938 469.787890625 c 2
 351.42 469.838671875 l 1
 351.42 182.751953125 l 1
 244.5875 182.751953125 l 1
 244.5875 548.255859375 l 1xfd80
 408.356835938 548.255859375 l 2
 482.514550781 548.255859375 549.301171875 517.242404816 549.301171875 434.31583252 c 0
 549.301171875 362.712367616 489.18875 341.721875 489.18875 341.721875 c 1
 489.18875 341.721875 517.12799029 331.751309494 536.2640625 271.451171875 c 2
 564.4125 182.751953125 l 1
 456.1475 182.751953125 l 1
 433.58 265.251953125 l 2
 422.026768382 307.457787088 414.26836046 311.089453125 379.48 311.089453125 c 2
 303.75 311.089453125 l 1
 303.75 386.637734375 l 1xfb80
141.546484375 364.561523438 m 0
 141.546484375 201.902803612 219.294175891 93.306875 398.888671875 93.306875 c 0
 578.483167859 93.306875 656.230859375 201.902803612 656.230859375 364.561523438 c 0
 656.230859375 527.220243263 578.483167859 635.816171875 398.888671875 635.816171875 c 0
 219.294175891 635.816171875 141.546484375 527.220243263 141.546484375 364.561523438 c 0
35.3375 364.561523438 m 0
 35.3375 591.206054688 172.898273052 739.12109375 398.888671875 739.12109375 c 0
 624.879070698 739.12109375 762.43984375 591.206054688 762.43984375 364.561523438 c 0
 762.43984375 137.916992188 624.879070698 -9.998046875 398.888671875 -9.998046875 c 0
 172.898273052 -9.998046875 35.3375 137.916992188 35.3375 364.561523438 c 0
EndSplineSet
EndChar

StartChar: uni2117
Encoding: 8471 8471 104
Width: 797
Flags: W
HStem: -9.99805 103.305<279.15 518.627> 287.427 79.1633<314.424 460.898> 466.839 81.4172<359.716 459.077> 635.816 103.305<279.15 518.627>
VStem: 35.3375 106.209<236.095 493.028> 252.849 106.866<182.752 287.427 366.59 466.839> 314.424 45.2912<287.427 366.59> 467.989 103.824<375.673 457.661> 656.231 106.209<236.095 493.028>
LayerCount: 2
Fore
SplineSet
314.424335938 287.426953125 m 1xfb80
 314.424335938 366.590234375 l 1xfb80
 400.868671875 366.644921875 l 2
 439.295110443 366.670705168 467.989179688 375.586299503 467.989179688 416.370703125 c 0
 467.989179688 457.361339146 439.439377784 466.735638387 401.206171875 466.787890625 c 2
 359.715585938 466.838671875 l 1
 359.715585938 182.751953125 l 1
 252.849335938 182.751953125 l 1
 252.849335938 548.255859375 l 1xfd80
 427.706171875 548.255859375 l 2
 503.527763289 548.255859375 571.813007812 512.336897125 571.813007812 416.370703125 c 0
 571.813007812 322.05974718 504.353815531 287.426953125 430.368671875 287.426953125 c 2
 314.424335938 287.426953125 l 1xfb80
141.546484375 364.561523438 m 0
 141.546484375 201.902803612 219.294175891 93.306875 398.888671875 93.306875 c 0
 578.483167859 93.306875 656.230859375 201.902803612 656.230859375 364.561523438 c 0
 656.230859375 527.220243263 578.483167859 635.816171875 398.888671875 635.816171875 c 0
 219.294175891 635.816171875 141.546484375 527.220243263 141.546484375 364.561523438 c 0
35.3375 364.561523438 m 0
 35.3375 591.206054688 172.898273052 739.12109375 398.888671875 739.12109375 c 0
 624.879070698 739.12109375 762.43984375 591.206054688 762.43984375 364.561523438 c 0
 762.43984375 137.916992188 624.879070698 -9.998046875 398.888671875 -9.998046875 c 0
 172.898273052 -9.998046875 35.3375 137.916992188 35.3375 364.561523438 c 0
EndSplineSet
EndChar

StartChar: guillemotleft
Encoding: 171 171 105
Width: 590
Flags: W
LayerCount: 2
Fore
SplineSet
38.5125 280.6625 m 1
 178.5125 441 l 1
 326.31875 441 l 1
 173.06875 254 l 1
 326.31875 67 l 1
 178.5125 67 l 1
 38.5125 227.3375 l 1
 38.5125 280.6625 l 1
288.5125 280.6625 m 1
 428.5125 441 l 1
 576.31875 441 l 1
 423.06875 254 l 1
 576.31875 67 l 1
 428.5125 67 l 1
 288.5125 227.3375 l 1
 288.5125 280.6625 l 1
EndSplineSet
EndChar

StartChar: guillemotright
Encoding: 187 187 106
Width: 590
Flags: W
LayerCount: 2
Fore
SplineSet
551.4875 227.3375 m 1
 411.4875 67 l 1
 263.68125 67 l 1
 416.93125 254 l 1
 263.68125 441 l 1
 411.4875 441 l 1
 551.4875 280.6625 l 1
 551.4875 227.3375 l 1
301.4875 227.3375 m 1
 161.4875 67 l 1
 161.4875 67 13.68125 67 13.68125 67 c 1
 13.68125 67 166.93125 254 166.93125 254 c 1
 166.93125 254 13.68125 441 13.68125 441 c 1
 13.68125 441 161.4875 441 161.4875 441 c 1
 301.4875 280.6625 l 1
 301.4875 227.3375 l 1
EndSplineSet
EndChar

StartChar: mu
Encoding: 181 181 107
Width: 595
Flags: W
HStem: -9.92285 120.212<232.603 350.679> 0 21G<391.707 538.21> 481.011 20G<57.905 204.407 391.707 538.21>
VStem: 57.905 146.502<196.449 501.011> 96.825 107.582<56.9261 321.011> 391.707 146.502<207.449 501.011>
LayerCount: 2
Fore
SplineSet
57.905 -180 m 1x34
 57.905 501.010742188 l 1
 204.4075 501.010742188 l 1x34
 204.4075 -180 l 1x2c
 57.905 -180 l 1x34
391.70734375 217.010742188 m 9
 453.53234375 207.44921875 l 17
 431.738593712 57.0107421877 377.092083954 -9.9228515625 251.27734375 -9.9228515625 c 0
 151.641463359 -9.9228515625 96.825 56.9260601597 96.825 196.44921875 c 2
 96.825 321.010742188 l 1xac
 204.4075 321.010742188 l 1
 204.4075 213.44921875 l 2
 204.4075 148.100689694 231.608931544 110.2890625 296.43984375 110.2890625 c 0xb4
 362.500284427 110.2890625 391.70734375 153.014711653 391.70734375 217.010742188 c 9
538.20984375 501.010742188 m 1
 538.20984375 0 l 1
 391.70734375 0 l 1x64
 391.70734375 501.010742188 l 1
 538.20984375 501.010742188 l 1
EndSplineSet
EndChar

StartChar: acute
Encoding: 180 180 108
Width: 242
Flags: W
HStem: 521 220.008
VStem: 4.175 233.65
LayerCount: 2
Fore
SplineSet
97.4875 521 m 1
 97.4875 521 4.175 541 4.175 541 c 1
 4.175 541 103.85 741.0078125 103.85 741.0078125 c 1
 237.825 711.0078125 l 1
 97.4875 521 l 1
EndSplineSet
EndChar

StartChar: macron
Encoding: 175 175 109
Width: 374
Flags: W
HStem: 617.1 113.908<32.8375 341.163>
VStem: 32.8375 308.325<617.1 731.008>
LayerCount: 2
Fore
SplineSet
341.1625 617.1003125 m 1
 32.8375 617.1003125 l 1
 32.8375 731.0078125 l 1
 341.1625 731.0078125 l 1
 341.1625 617.1003125 l 1
EndSplineSet
EndChar

StartChar: uni00AD
Encoding: 173 173 110
Width: 354
Flags: W
HStem: 214.762 129.475<35 319>
VStem: 35 284<214.762 344.238>
LayerCount: 2
Fore
SplineSet
319 214.7625 m 1
 35 214.7625 l 1
 35 344.2375 l 1
 319 344.2375 l 1
 319 214.7625 l 1
EndSplineSet
EndChar

StartChar: logicalnot
Encoding: 172 172 111
Width: 450
Flags: W
HStem: 299.594 116.812<30 295.606>
VStem: 295.606 120.644<165.169 299.594>
LayerCount: 2
Fore
SplineSet
416.25 165.16875 m 1
 295.60625 165.16875 l 1
 295.60625 299.59375 l 1
 30 299.59375 l 1
 30 416.40625 l 1
 416.25 416.40625 l 1
 416.25 165.16875 l 1
EndSplineSet
EndChar

StartChar: minus
Encoding: 8722 8722 112
Width: 450
Flags: W
HStem: 299.695 116.61<30 420>
LayerCount: 2
Fore
SplineSet
420 299.695 m 1
 30 299.695 l 1
 30 416.305 l 1
 420 416.305 l 1
 420 299.695 l 1
EndSplineSet
EndChar

StartChar: notequal
Encoding: 8800 8800 113
Width: 450
Flags: W
HStem: 219.56 106.981<30 420> 389.459 106.981<30 420>
LayerCount: 2
Fore
SplineSet
55.995625 108.530273438 m 1
 260.995625 601.403320312 l 1
 388.206875 601.403320312 l 1
 183.206875 108.530273438 l 1
 55.995625 108.530273438 l 1
EndSplineSet
Refer: 52 61 N 1 0 0 1 0 0 2
EndChar

StartChar: partialdiff
Encoding: 8706 8706 114
Width: 620
Flags: W
HStem: -9.99805 128.114<219.644 369.06> 355.328 115.271<230.254 378.851> 599.565 139.428<190.472 371.253>
VStem: 37.8375 145.303<154.308 306.027> 443.488 138.84<423.371 519.757>
LayerCount: 2
Fore
SplineSet
415.257851562 246.890625 m 0
 415.257851562 309.565510321 383.75009363 355.328125 309.766601562 355.328125 c 0
 220.483110334 355.328125 183.140351562 301.125143349 183.140351562 226.890625 c 0
 183.140351562 164.020670872 214.289384921 118.115625 289.766601562 118.115625 c 0
 378.597580545 118.115625 415.257851562 172.461037844 415.257851562 246.890625 c 0
443.487578125 423.370820312 m 1
 438.102168163 537.657094389 388.084683877 599.56453125 288.63918457 599.56453125 c 0
 205.350376679 599.56453125 159.999648438 559.413671875 159.999648438 559.413671875 c 1
 105.741210938 688.860351562 l 1
 105.741210938 688.860351562 169.670589964 738.9921875 295.8671875 738.9921875 c 0
 480.010015679 738.9921875 582.327539062 612.671898034 582.327539062 385.331054688 c 0
 582.327539062 105.516837439 473.12174301 -9.998046875 288.8671875 -9.998046875 c 0
 133.189216594 -9.998046875 37.8375 75.5176128099 37.8375 229 c 0
 37.8375 372.20164401 136.511143521 470.599609375 292.238867188 470.599609375 c 0
 406.755108338 470.599609375 443.487578125 423.370820312 443.487578125 423.370820312 c 1
EndSplineSet
EndChar

StartChar: emptyset
Encoding: 8709 8709 115
Width: 797
Flags: W
HStem: -9.99805 115.538<318.621 515.94> 623.583 115.538<281.837 479.157>
VStem: 35.3375 117.824<239.007 490.116> 644.616 117.824<239.007 490.116>
LayerCount: 2
Fore
SplineSet
153.161132812 364.561523438 m 0
 153.161132812 209.238426273 227.092594256 105.540117188 398.888671875 105.540117188 c 0
 570.684749494 105.540117188 644.616210938 209.238426273 644.616210938 364.561523438 c 0
 644.616210938 519.884620599 570.684749494 623.582929688 398.888671875 623.582929688 c 0
 227.092594256 623.582929688 153.161132812 519.884620599 153.161132812 364.561523438 c 0
35.3375 364.561523438 m 0
 35.3375 591.206054688 172.898273052 739.12109375 398.888671875 739.12109375 c 0
 624.879070698 739.12109375 762.43984375 591.206054688 762.43984375 364.561523438 c 0
 762.43984375 137.916992188 624.879070698 -9.998046875 398.888671875 -9.998046875 c 0
 172.898273052 -9.998046875 35.3375 137.916992188 35.3375 364.561523438 c 0
105.0125 -90.873046875 m 1
 570.0125 812 l 1
 691.9875 812 l 1
 226.9875 -90.873046875 l 1
 105.0125 -90.873046875 l 1
EndSplineSet
EndChar

StartChar: Delta
Encoding: 8710 8710 116
Width: 719
Flags: W
HStem: 0 144.502<205.084 513.916> 711.008 20G<263.847 445.488>
LayerCount: 2
Fore
SplineSet
681.1625 0 m 1
 37.8375 0 l 1
 37.8375 134.5025 l 1
 271.6875 731.0078125 l 1
 437.3125 731.0078125 l 1
 681.1625 134.5025 l 1
 681.1625 0 l 1
513.91625 144.5025 m 1
 355.393554688 555.175976562 l 1
 205.08375 144.5025 l 1
 513.91625 144.5025 l 1
EndSplineSet
EndChar

StartChar: plusminus
Encoding: 177 177 117
Width: 450
Flags: W
HStem: 149.304 106.948<30 166.695 283.305 420> 165.554 90.6975<166.695 283.305> 337.276 116.61<30 420>
VStem: 166.695 116.61<165.554 565.716>
LayerCount: 2
Fore
SplineSet
420 149.30375 m 1xb0
 30 149.30375 l 1
 30 256.25125 l 1
 420 256.25125 l 1
 420 149.30375 l 1xb0
166.695 165.55375 m 1x70
 166.695 565.71625 l 1
 283.305 565.71625 l 1
 283.305 165.55375 l 1
 166.695 165.55375 l 1x70
420 337.27625 m 1
 30 337.27625 l 1
 30 453.88625 l 1
 420 453.88625 l 1
 420 337.27625 l 1
EndSplineSet
EndChar

StartChar: degree
Encoding: 176 176 118
Width: 431
Flags: W
HStem: 400.745 105.089<163.329 267.476> 655.726 105.276<163.343 267.49>
VStem: 31.5875 115.09<522.323 639.477> 285.1 115.09<522.865 638.941>
LayerCount: 2
Fore
SplineSet
146.677109375 581.191992188 m 0
 146.677109375 536.00373901 167.075774564 505.834179688 214.786132812 505.834179688 c 0
 264.041445698 505.834179688 285.100234375 536.00373901 285.100234375 581.191992188 c 0
 285.100234375 625.886319728 264.078586943 655.725585938 214.909179688 655.725585938 c 0
 167.112916774 655.725585938 146.677109375 625.886319728 146.677109375 581.191992188 c 0
31.5875 580.967382812 m 0
 31.5875 689.905975744 100.944753075 761.001953125 214.888671875 761.001953125 c 0
 330.075754563 761.001953125 400.18984375 689.905975744 400.18984375 580.967382812 c 0
 400.18984375 471.915971257 330.075754563 400.7453125 214.888671875 400.7453125 c 0
 100.944753075 400.7453125 31.5875 471.915971257 31.5875 580.967382812 c 0
EndSplineSet
EndChar

StartChar: cedilla
Encoding: 184 184 120
Width: 317
VWidth: 999
Flags: W
HStem: -254.494 81.9875<48.0166 179.285> -93.365 132.365<104.704 154.906>
VStem: 183.911 102.414<-166.4 -97.4791>
LayerCount: 2
Fore
SplineSet
286.325 -131.16875 m 0
 286.325 -209.709572282 237.286221794 -254.49375 145.9325 -254.49375 c 0
 85.3653422829 -254.49375 31.53375 -231.29125 31.53375 -231.29125 c 1
 53.96625 -151.30375 l 1
 53.96625 -151.30375 83.1990082108 -172.50625 130.30375 -172.50625 c 0
 170.179999491 -172.50625 183.91125 -157.46846419 183.91125 -131.16875 c 0
 183.91125 -106.424960938 168.345038099 -93.365 143.05375 -93.365 c 0
 114.607768066 -93.365 104.69625 -110.83125 104.69625 -110.83125 c 1
 47.3375 -92 l 1
 69.3375 39 l 1
 154.90625 39 l 1
 143.722851562 -29.332265625 l 1
 143.722851562 -29.332265625 154.074299077 -21.84375 184.575 -21.84375 c 0
 249.276007503 -21.84375 286.325 -63.1123845881 286.325 -131.16875 c 0
EndSplineSet
EndChar

StartChar: paragraph
Encoding: 182 182 121
Width: 682
Flags: W
HStem: 609.68 121.312<404.876 489.401>
VStem: 32.5 372.376<393.805 606.502> 272.739 132.137<-179.994 284.291> 489.401 132.137<-179.994 609.68>
LayerCount: 2
Fore
SplineSet
404.876171875 -179.994140625 m 1xb0
 272.738671875 -179.994140625 l 1
 272.738671875 282.6884375 l 1xb0
 137.858047371 292.3509375 32.5 337.691735202 32.5 499.770117188 c 0xd0
 32.5 667.125448737 144.5 730.9921875 286.388671875 730.9921875 c 2
 621.538671875 730.9921875 l 1
 621.538671875 -179.994140625 l 1
 489.401171875 -179.994140625 l 1
 489.401171875 609.6796875 l 1
 404.876171875 609.6796875 l 1
 404.876171875 -179.994140625 l 1xb0
EndSplineSet
EndChar

StartChar: ordfeminine
Encoding: 170 170 122
Width: 402
Flags: W
HStem: 369.992 81.8525<134.345 228.364 296.646 388.784> 525.863 68.575<138.199 249.147> 649.173 89.8188<82.1876 222.817>
VStem: 22.8375 107.88<455.534 515.327> 236.81 109.015<465.374 486.992 581.242 634.142> 236.81 36.5275<415.519 483.81> 236.81 12.3375<525.863 594.438>
LayerCount: 2
Fore
SplineSet
236.81 498.7421875 m 1xf2
 236.81 470.385559593 212.305462963 451.8446875 176.6625 451.8446875 c 0
 144.164817073 451.8446875 130.7175 465.319526209 130.7175 486.6546875 c 0
 130.7175 518.515610449 159.494883178 525.8634375 249.1475 525.8634375 c 1
 249.1475 594.4384375 l 1xf2
 117.217903587 594.4384375 22.8375 578.153691737 22.8375 475.9921875 c 0
 22.8375 411.9921875 68.8375 369.9921875 142.8375 369.9921875 c 0
 231.53671875 369.9921875 273.3375 415.5191875 273.3375 483.8096875 c 1xf4
 236.81 498.7421875 l 1xf2
236.81 581.2421875 m 2xf8
 236.81 459.9921875 l 2xf4
 236.81 398.9921875 266.488789893 369.9921875 326.80375 369.9921875 c 0
 371.949102113 369.9921875 393.58125 386.7896875 393.58125 386.7896875 c 1
 387.58125 461.7771875 l 1
 387.58125 461.7771875 380.095855263 457.7434375 367.26375 457.7434375 c 0
 351.950357143 457.7434375 345.825 465.373546196 345.825 486.9921875 c 2
 345.825 595.9921875 l 2
 345.825 682.197861259 298.87640625 738.9921875 186 738.9921875 c 0
 104.542169643 738.9921875 48.60125 706.0934375 48.60125 706.0934375 c 1
 76.12875 623.8896875 l 1
 76.12875 623.8896875 113.663405173 649.1734375 166.8375 649.1734375 c 0
 215.366814516 649.1734375 236.81 628.355796371 236.81 581.2421875 c 2xf8
EndSplineSet
EndChar

StartChar: ordmasculine
Encoding: 186 186 123
Width: 418
Flags: W
HStem: 367.992 99.65<154.302 264.086> 639.342 99.65<154.302 263.872>
VStem: 25.8375 107.88<487.282 619.215> 284.283 107.88<487.282 619.215>
LayerCount: 2
Fore
SplineSet
133.7175 554.9921875 m 0
 133.7175 501.873944256 156.435107143 467.6421875 209 467.6421875 c 0
 262.640357143 467.6421875 284.2825 501.873944256 284.2825 554.9921875 c 0
 284.2825 604.889370599 261.564892857 639.3421875 209 639.3421875 c 0
 156.435107143 639.3421875 133.7175 604.889370599 133.7175 554.9921875 c 0
25.8375 555.9921875 m 0
 25.8375 667.025895365 95.7543682795 738.9921875 209 738.9921875 c 0
 323.230376344 738.9921875 392.1625 667.025895365 392.1625 555.9921875 c 0
 392.1625 441.959400615 323.230376344 367.9921875 209 367.9921875 c 0
 95.7543682795 367.9921875 25.8375 441.959400615 25.8375 555.9921875 c 0
EndSplineSet
EndChar

StartChar: arrowleft
Encoding: 8592 8592 124
Width: 550
Flags: W
HStem: 293.22 130.84<252.126 537.749> 303.085 111.11<135.224 420.847>
LayerCount: 2
Fore
SplineSet
537.749023438 293.219648438 m 1x80
 135.224023438 303.084648438 l 1
 135.224023438 414.194648438 l 1x40
 537.749023438 424.059648438 l 1
 537.749023438 293.219648438 l 1x80
150.536523438 358.638671875 m 1
 314.336132812 213.0309375 l 1
 225.084492188 123.779296875 l 1
 12.2509765625 358.638671875 l 1
 225.084492188 593.5 l 1
 314.336132812 504.24640625 l 1
 150.536523438 358.638671875 l 1
EndSplineSet
EndChar

StartChar: product
Encoding: 8719 8719 128
Width: 719
Flags: W
HStem: 595.952 135.056<214.137 504.863>
VStem: 57.8375 156.3<-179.994 595.952> 504.863 156.3<-179.994 595.952>
LayerCount: 2
Fore
SplineSet
661.1625 731.0078125 m 1
 661.1625 -179.994140625 l 1
 504.8625 -179.994140625 l 1
 504.8625 595.9515625 l 1
 214.1375 595.9515625 l 1
 214.1375 -179.994140625 l 1
 57.8375 -179.994140625 l 1
 57.8375 731.0078125 l 1
 661.1625 731.0078125 l 1
EndSplineSet
EndChar

StartChar: summation
Encoding: 8721 8721 129
Width: 634
Flags: W
HStem: -179.994 134.84<230.915 601.163> 596.168 134.84<250.645 601.163>
LayerCount: 2
Back
SplineSet
264 585.0078125 m 5
 394 410 l 5
 394 319 l 5
 244 146 l 5
 544 146 l 5
 544 0 l 5
 55 0 l 5
 55 161 l 5
 235 358 l 5
 55 589 l 5
 55 731.0078125 l 5
 544 731.0078125 l 5
 544 585.0078125 l 5
 264 585.0078125 l 5
EndSplineSet
Fore
SplineSet
250.645 596.1678125 m 1
 432.3325 328.785 l 1
 432.3325 239.81 l 1
 230.915 -45.154140625 l 1
 601.1625 -45.154140625 l 1
 601.1625 -179.994140625 l 1
 57.8375 -179.994140625 l 1
 57.8375 -179.994140625 57.8375 -30.154140625 57.8375 -30.154140625 c 1
 57.8375 -30.154140625 286.0125 278 286.0125 278 c 1
 57.8375 600.16 l 1
 57.8375 731.0078125 l 1
 601.1625 731.0078125 l 1
 601.1625 596.1678125 l 1
 250.645 596.1678125 l 1
EndSplineSet
EndChar

StartChar: approxequal
Encoding: 8776 8776 130
Width: 450
VWidth: 999
Flags: W
HStem: 183.012 118.414<238.033 363.659> 232.012 117.414<88.7642 211.699> 372.877 118.447<238.1 363.654> 421.877 117.448<88.8317 211.766>
LayerCount: 2
Fore
SplineSet
437.6625 255.675 m 1x80
 437.6625 255.675 385.727929688 183.0125 305.6625 183.0125 c 0x80
 228.124414062 183.0125 202.277734375 232.0125 145.6625 232.0125 c 0
 105.734963768 232.0125 73.1625 196.695 73.1625 196.695 c 1
 12.3375 291.92625 l 1
 12.3375 291.92625 69.3889864835 349.42625 143.6625 349.42625 c 0x40
 220.327809143 349.42625 252.477809143 301.42625 304.4125 301.42625 c 0
 350.549846154 301.42625 374.155 333.0275 374.155 333.0275 c 1
 437.6625 255.675 l 1x80
437.6625 445.84375 m 1
 437.6625 445.84375 385.727929688 372.8775 305.6625 372.8775 c 0x20
 228.124414062 372.8775 202.277734375 421.8775 145.6625 421.8775 c 0
 105.734963768 421.8775 73.1625 386.6275 73.1625 386.6275 c 1
 12.4725 481.825 l 1
 12.4725 481.825 69.5239864835 539.325 143.7975 539.325 c 0x10
 220.462809144 539.325 252.612809143 491.325 304.5475 491.325 c 0x20
 350.573211539 491.325 374.12125 523.12875 374.12125 523.12875 c 1
 437.6625 445.84375 l 1
EndSplineSet
EndChar

StartChar: perthousand
Encoding: 8240 8240 131
Width: 1263
Flags: W
HStem: -9.99805 108.809<668.987 778.475 976.696 1086.18> 0 21G<190.762 325.118> 268.044 108.808<668.356 779.123 976.064 1086.83> 352.143 108.808<177.478 286.057> 630.183 108.809<176.862 286.697> 711.008 20G<630.882 765.238>
VStem: 37.8375 118.52<483.104 608.943> 308.713 116.41<483.104 608.943> 528.837 117.52<120.963 246.803> 801.74 152.59<122.881 245.627> 847.587 59.785<77.8175 290.256> 1109.71 116.41<121.637 246.145>
LayerCount: 2
Fore
SplineSet
954.33015625 183.981445312 m 0xa3d0
 954.33015625 122.8806194 989.056796875 98.8109765621 1031.50046875 98.8109765621 c 0
 1073.46826889 98.8109765621 1109.71265625 122.8806194 1109.71265625 183.981445312 c 0
 1109.71265625 245.627520634 1073.46826889 268.043515625 1031.50046875 268.043515625 c 0
 989.056796875 268.043515625 954.33015625 245.627520634 954.33015625 183.981445312 c 0xa3d0
847.5875 183.981445312 m 0xa3b0
 847.5875 290.256245438 918.240677463 376.8515625 1041.23046875 376.8515625 c 0
 1164.95913841 376.8515625 1226.12246094 290.256245438 1226.12246094 183.981445312 c 0
 1226.12246094 77.8174560323 1164.95913841 -9.998046875 1041.23046875 -9.998046875 c 0
 918.240677463 -9.998046875 847.5875 77.8174560323 847.5875 183.981445312 c 0xa3b0
646.35765625 183.981445312 m 0
 646.35765625 122.880379683 681.053484239 98.8109765621 723.46046875 98.8109765621 c 0
 765.464416807 98.8109765621 801.74015625 122.880379683 801.74015625 183.981445312 c 0xa3d0
 801.74015625 245.627392271 765.464416807 268.043515625 723.46046875 268.043515625 c 0
 681.053484239 268.043515625 646.35765625 245.627392271 646.35765625 183.981445312 c 0
528.8375 183.981445312 m 0
 528.8375 290.256670854 590.000825284 376.8515625 713.73046875 376.8515625 c 0
 836.71928862 376.8515625 907.372460938 290.256245438 907.372460938 183.981445312 c 0xa3b0
 907.372460938 77.8174560323 836.71928862 -9.998046875 713.73046875 -9.998046875 c 0
 590.000825284 -9.998046875 528.8375 77.8171513741 528.8375 183.981445312 c 0
156.35765625 546.122070312 m 0
 156.35765625 485.021072047 190.331245477 460.950625 231.48046875 460.950625 c 0
 272.753590782 460.950625 308.71265625 485.021072047 308.71265625 546.122070312 c 0
 308.71265625 607.767015306 272.753590782 630.183164062 231.48046875 630.183164062 c 0x1b90
 190.331245477 630.183164062 156.35765625 607.767015306 156.35765625 546.122070312 c 0
37.8375 546.122070312 m 0
 37.8375 652.397295854 108.490878588 738.9921875 231.48046875 738.9921875 c 0
 354.469068664 738.9921875 425.122460938 652.397295854 425.122460938 546.122070312 c 0
 425.122460938 439.957776374 354.469068664 352.142578125 231.48046875 352.142578125 c 0
 108.490878588 352.142578125 37.8375 439.957776374 37.8375 546.122070312 c 0
EndSplineSet
Refer: 138 8260 N 1 0 0 1 301 0 2
EndChar

StartChar: uni2031
Encoding: 8241 8241 132
Width: 1573
Flags: W
HStem: -9.99805 108.809<668.987 778.475 977.72 1087.45 1286.7 1396.18> 0 21G<190.762 325.118> 268.044 108.808<668.356 779.123 977.088 1088.1 1286.06 1396.83> 352.143 108.808<177.472 286.063> 630.183 108.809<176.856 286.703> 711.008 20G<630.882 765.238>
VStem: 37.8375 118.52<483.104 608.943> 308.713 116.41<483.104 608.943> 528.837 117.52<120.963 246.803> 801.74 153.57<122.881 245.627> 846.54 60.8325<77.8175 290.256> 1110.76 153.57<122.881 245.628> 1157.59 60.8325<77.8175 290.256> 1419.71 116.41<121.637 246.145>
LayerCount: 2
Fore
SplineSet
1264.33015625 183.981445312 m 0xa394
 1264.33015625 122.8806194 1299.05679688 98.8109765621 1341.50046875 98.8109765621 c 0
 1383.46826889 98.8109765621 1419.71265625 122.8806194 1419.71265625 183.981445312 c 0
 1419.71265625 245.627520634 1383.46826889 268.043515625 1341.50046875 268.043515625 c 0
 1299.05679688 268.043515625 1264.33015625 245.627520634 1264.33015625 183.981445312 c 0xa394
1157.5875 183.981445312 m 0xa38c
 1157.5875 290.256245438 1228.24067746 376.8515625 1351.23046875 376.8515625 c 0
 1474.95913841 376.8515625 1536.12246094 290.256245438 1536.12246094 183.981445312 c 0
 1536.12246094 77.8174560323 1474.95913841 -9.998046875 1351.23046875 -9.998046875 c 0
 1228.24067746 -9.998046875 1157.5875 77.8174560323 1157.5875 183.981445312 c 0xa38c
955.31015625 183.981445312 m 0xa3d4
 955.31015625 122.8806194 990.036796875 98.8109765621 1032.48046875 98.8109765621 c 0
 1074.48448865 98.8109765621 1110.76015625 122.8806194 1110.76015625 183.981445312 c 0
 1110.76015625 245.627520634 1074.48448865 268.043515625 1032.48046875 268.043515625 c 0
 990.036796875 268.043515625 955.31015625 245.627520634 955.31015625 183.981445312 c 0xa3d4
846.54 183.981445312 m 0xa3ac
 846.54 290.256245438 908.049842426 376.8515625 1032.48046875 376.8515625 c 0
 1156.91011945 376.8515625 1218.41996094 290.256245438 1218.41996094 183.981445312 c 0
 1218.41996094 77.8174560323 1156.91011945 -9.998046875 1032.48046875 -9.998046875 c 0
 908.049842426 -9.998046875 846.54 77.8174560323 846.54 183.981445312 c 0xa3ac
646.35765625 183.981445312 m 0
 646.35765625 122.880379683 681.053484239 98.8109765621 723.46046875 98.8109765621 c 0
 765.464416807 98.8109765621 801.74015625 122.880379683 801.74015625 183.981445312 c 0xa3c4
 801.74015625 245.627392271 765.464416807 268.043515625 723.46046875 268.043515625 c 0
 681.053484239 268.043515625 646.35765625 245.627392271 646.35765625 183.981445312 c 0
528.8375 183.981445312 m 0
 528.8375 290.256670854 590.000825284 376.8515625 713.73046875 376.8515625 c 0
 836.71928862 376.8515625 907.372460938 290.256245438 907.372460938 183.981445312 c 0xa3a4
 907.372460938 77.8174560323 836.71928862 -9.998046875 713.73046875 -9.998046875 c 0
 590.000825284 -9.998046875 528.8375 77.8171513741 528.8375 183.981445312 c 0
156.35765625 546.122070312 m 0
 156.35765625 485.021072047 190.297495477 460.950625 231.48046875 460.950625 c 0
 272.787340782 460.950625 308.71265625 485.021072047 308.71265625 546.122070312 c 0
 308.71265625 607.767015306 272.787340782 630.183164062 231.48046875 630.183164062 c 0x1b84
 190.297495477 630.183164062 156.35765625 607.767015306 156.35765625 546.122070312 c 0
37.8375 546.122070312 m 0
 37.8375 652.397295854 108.490878588 738.9921875 231.48046875 738.9921875 c 0
 354.469068664 738.9921875 425.122460938 652.397295854 425.122460938 546.122070312 c 0
 425.122460938 439.957776374 354.469068664 352.142578125 231.48046875 352.142578125 c 0
 108.490878588 352.142578125 37.8375 439.957776374 37.8375 546.122070312 c 0
EndSplineSet
Refer: 138 8260 N 1 0 0 1 301 0 2
EndChar

StartChar: uni203D
Encoding: 8253 8253 133
Width: 566
Flags: W
HStem: -10 174.424<177.931 298.068> 290.195 114.93<222.945 342.645> 604.274 134.719<114.584 365.442>
VStem: 151.399 173.202<16.7196 137.704> 166.148 145.705<578.707 791.008> 212.76 80.4296<297.5 409.748> 377.958 151.074<439.663 561.29>
LayerCount: 2
Fore
SplineSet
184.81 225 m 1xe6
 166.1475 791.0078125 l 1
 311.8525 791.0078125 l 1xea
 293.19 225 l 1
 184.81 225 l 1xe6
151.39921875 77.212109375 m 0xf2
 151.39921875 130.046228809 185.535074698 164.42421875 237.999023438 164.42421875 c 0
 290.463962157 164.42421875 324.60078125 130.046228809 324.60078125 77.212109375 c 0
 324.60078125 24.377076362 290.463962157 -10 237.999023438 -10 c 0
 185.535074698 -10 151.39921875 24.377076362 151.39921875 77.212109375 c 0xf2
212.760351562 297.5 m 1xe6
 216.99375 409.7475 l 1
 216.99375 409.7475 235.877421203 405.125078125 259.5859375 405.125078125 c 0
 338.86584654 405.125078125 377.958203125 438.297581951 377.958203125 500.145507812 c 0
 377.958203125 572.36208196 321.43966259 604.273515625 227.88078125 604.273515625 c 0
 139.477276355 604.273515625 65.417578125 561.320507812 65.417578125 561.320507812 c 1
 20.5787109375 692.811523438 l 1
 20.5787109375 692.811523438 101.2728125 738.9921875 230.23203125 738.9921875 c 0
 409.443969139 738.9921875 529.032617188 667.831925825 529.032617188 502.010742188 c 0
 529.032617188 363.254435921 425.045369689 290.1953125 283.175 290.1953125 c 0
 228.882960835 290.1953125 212.760351562 297.5 212.760351562 297.5 c 1xe6
EndSplineSet
EndChar

StartChar: lira
Encoding: 8356 8356 134
Width: 553
Flags: W
HStem: 0 133.874<207.619 523> 215.675 84.65<52.5 424> 345.675 84.65<52.5 424> 603.565 135.897<246.044 453.049>
VStem: 58.4391 160.529<451.403 576.783> 139.662 141.545<248.328 344.17>
LayerCount: 2
Fore
SplineSet
523 0 m 1xf4
 30 0 l 1
 30 117.87375 l 1
 30 117.87375 139.66171875 194.258237836 139.66171875 304.379882812 c 0xf4
 139.66171875 400.641455788 58.4390625 425.674478682 58.4390625 547.185546875 c 0xf8
 58.4390625 671.398535433 160.061935375 739.461914062 304.97109375 739.461914062 c 0
 442.109238318 739.461914062 503.36953125 703.000273438 503.36953125 703.000273438 c 1
 474.9375 571.461914062 l 1
 474.9375 571.461914062 422.068200474 603.56484375 334.54609375 603.56484375 c 0
 271.210528709 603.56484375 218.967578125 589.452673402 218.967578125 519.063590087 c 0
 218.967578125 450.374580294 281.206445312 412.880081201 281.206445312 312.658203125 c 0
 281.206445312 201.87507791 207.619335938 133.87375 207.619335938 133.87375 c 1
 523 133.87375 l 1
 523 0 l 1xf4
424 215.675 m 1
 52.5 215.675 l 1
 52.5 300.325 l 1
 424 300.325 l 1
 424 215.675 l 1
424 345.675 m 1
 52.5 345.675 l 1
 52.5 430.325 l 1
 424 430.325 l 1
 424 345.675 l 1
EndSplineSet
EndChar

StartChar: uni20B5
Encoding: 8373 8373 135
Width: 623
Flags: W
HStem: -9.99805 77.1053<310.844 438.156> 657.362 81.7586<310.844 438.156>
VStem: 37.8375 159.547<244.43 487.162> 310.844 127.312<-105 67.1072 657.362 829.47>
LayerCount: 2
Fore
SplineSet
37.8375 364.561523438 m 0
 37.8375 591.206054688 163.902607703 739.12109375 385.888671875 739.12109375 c 0
 537.158664743 739.12109375 599.344140625 672.891601562 599.344140625 672.891601562 c 1
 541.46296875 547.298671875 l 1
 541.46296875 547.298671875 492.300023752 598.954179688 392.618671875 598.954179688 c 0
 255.856583564 598.954179688 197.384765625 505.115904049 197.384765625 364.561523438 c 0
 197.384765625 224.088096048 258.143237243 130.303867188 400.253671875 130.303867188 c 0
 503.939583185 130.303867188 558.856054688 176.368203125 558.856054688 176.368203125 c 1
 602.489648438 44.595703125 l 1
 602.489648438 44.595703125 536.326921698 -9.998046875 385.888671875 -9.998046875 c 0
 163.902607703 -9.998046875 37.8375 137.916992188 37.8375 364.561523438 c 0
310.84375 -105 m 1
 310.84375 67.1072265625 l 1
 438.15625 67.1072265625 l 1
 438.15625 -105 l 1
 310.84375 -105 l 1
310.84375 657.3625 m 1
 310.84375 829.469726562 l 1
 438.15625 829.469726562 l 1
 438.15625 657.3625 l 1
 310.84375 657.3625 l 1
EndSplineSet
EndChar

StartChar: uni20B2
Encoding: 8370 8370 136
Width: 739
Flags: W
HStem: -9.99805 77.544<310.844 438.156> 289.762 128.124<371 489.571 635.152 711.5> 289.762 20.8457<489.571 635.152> 656.856 82.2648<310.844 438.156>
VStem: 37.8375 155.797<232.723 491.489> 310.844 127.312<-105 67.546 656.856 829.47> 506.824 143.071<174.839 289.048>
LayerCount: 2
Fore
SplineSet
310.84375 -105 m 1x9e
 310.84375 67.5459765625 l 1
 438.15625 67.5459765625 l 1
 438.15625 -105 l 1
 310.84375 -105 l 1x9e
310.84375 656.85625 m 1
 310.84375 829.469726562 l 1
 438.15625 829.469726562 l 1
 438.15625 656.85625 l 1
 310.84375 656.85625 l 1
711.5 289.7625 m 1xde
 371 289.7625 l 1
 371 417.88625 l 1
 711.5 417.88625 l 1
 711.5 289.7625 l 1xde
37.8375 364.561523438 m 0
 37.8375 591.206054688 166.884705684 739.12109375 378.888671875 739.12109375 c 0
 533.347429238 739.12109375 596.844140625 672.891601562 596.844140625 672.891601562 c 1
 540.94296875 546.649921875 l 1
 540.94296875 546.649921875 488.555113837 598.204101562 382.334960938 598.204101562 c 0
 250.547089011 598.204101562 193.634765625 504.666117064 193.634765625 364.561523438 c 0
 193.634765625 224.047619436 241.284365662 130.236367188 369.888671875 130.236367188 c 0
 467.685473042 130.236367188 506.823945312 176.843502232 506.823945312 246.7975 c 0
 506.823945312 291.426897219 489.571054688 310.608203125 489.571054688 310.608203125 c 1
 635.152148438 310.608203125 l 1xbe
 635.152148438 310.608203125 649.894921875 289.853944784 649.894921875 222 c 0
 649.894921875 93.0859042083 559.779062098 -9.998046875 369.888671875 -9.998046875 c 0
 158.38851772 -9.998046875 37.8375 137.916992188 37.8375 364.561523438 c 0
EndSplineSet
EndChar

StartChar: uni20BA
Encoding: 8378 8378 137
Width: 648
Flags: W
HStem: 0 135.225<254.137 380.381> 711.008 20G<97.8375 254.137>
VStem: 97.8375 156.3<135.225 731.008>
LayerCount: 2
Fore
SplineSet
393.6625 354.3575 m 1
 32.8375 246.8575 l 1
 32.8375 331.6425 l 1
 393.6625 439.1425 l 1
 393.6625 354.3575 l 1
393.6625 484.3575 m 1
 32.8375 376.8575 l 1
 32.8375 461.6425 l 1
 393.6625 569.1425 l 1
 393.6625 484.3575 l 1
254.1375 135.225 m 1
 300 135.225 l 2
 475.447418479 135.225 479.17375 317.4 479.17375 317.4 c 1
 622.4125 295.4875 l 1
 622.4125 295.4875 613.483590296 -3.72556499539e-14 300 0 c 2
 97.8375 0 l 1
 97.8375 731.0078125 l 1
 254.1375 731.0078125 l 1
 254.1375 135.225 l 1
EndSplineSet
EndChar

StartChar: fraction
Encoding: 8260 8260 138
Width: 304
Flags: W
HStem: 0 21G<-110.238 24.1177> 711.008 20G<329.882 464.238>
LayerCount: 2
Fore
SplineSet
-110.237548828 0 m 1
 342.262451172 731.0078125 l 1
 464.237548828 731.0078125 l 1
 11.7375488281 0 l 1
 -110.237548828 0 l 1
EndSplineSet
EndChar

StartChar: endash
Encoding: 8211 8211 139
Width: 570
Flags: W
HStem: 214.762 129.475<32.8375 537.163>
LayerCount: 2
Fore
SplineSet
32.8375 214.7625 m 1
 32.8375 344.2375 l 1
 537.1625 344.2375 l 1
 537.1625 214.7625 l 1
 32.8375 214.7625 l 1
EndSplineSet
EndChar

StartChar: emdash
Encoding: 8212 8212 140
Width: 820
Flags: W
HStem: 214.762 129.475<27.8375 792.163>
LayerCount: 2
Fore
SplineSet
27.8375 214.7625 m 1
 27.8375 344.2375 l 1
 792.1625 344.2375 l 1
 792.1625 214.7625 l 1
 27.8375 214.7625 l 1
EndSplineSet
EndChar

StartChar: Euro
Encoding: 8364 8364 141
Width: 683
Flags: W
HStem: -9.99805 140.167<363.748 576.403> 260.675 84.65<32.5 449.856> 390.675 84.65<32.5 473.115> 599.089 140.032<356.036 553.385>
LayerCount: 2
Fore
SplineSet
449.85578125 260.675 m 1
 32.5 260.675 l 1
 32.5 345.325 l 1
 465.01984375 345.325 l 1
 449.85578125 260.675 l 1
473.11515625 390.675 m 1
 32.5 390.675 l 1
 32.5 475.325 l 1
 488.27921875 475.325 l 1
 473.11515625 390.675 l 1
97.8375 364.561523438 m 0
 97.8375 591.206054688 223.902523688 739.12109375 445.888671875 739.12109375 c 0
 597.158284614 739.12109375 659.344140625 672.891601562 659.344140625 672.891601562 c 1
 601.46296875 547.433671875 l 1
 601.46296875 547.433671875 551.496102937 599.089111328 450.186279297 599.089111328 c 0
 315.009605601 599.089111328 257.216064453 505.196816282 257.216064453 364.561523438 c 0
 257.216064453 224.007142824 318.733040291 130.168867188 462.618671875 130.168867188 c 0
 564.758235407 130.168867188 618.856054688 176.233203125 618.856054688 176.233203125 c 1
 662.489648438 44.595703125 l 1
 662.489648438 44.595703125 596.327115563 -9.998046875 445.888671875 -9.998046875 c 0
 223.902523688 -9.998046875 97.8375 137.916992188 97.8375 364.561523438 c 0
EndSplineSet
EndChar

StartChar: uni20AD
Encoding: 8365 8365 142
Width: 665
Flags: W
HStem: 0 21G<93.8375 250.137 449.638 652.163> 298.411 114.178<27.8375 611.163> 711.008 20G<93.8375 250.137 447.662 642.163>
VStem: 93.8375 156.3<0 311.911 400.089 731.008> 235.626 14.5112<311.911 400.089>
LayerCount: 2
Fore
SplineSet
611.1625 298.41125 m 1xe0
 27.8375 298.41125 l 1
 27.8375 412.58875 l 1
 611.1625 412.58875 l 1
 611.1625 298.41125 l 1xe0
464.30125 0 m 1
 235.62625 311.91125 l 1
 235.62625 400.08875 l 1xe8
 461.30125 731.0078125 l 1
 642.1625 731.0078125 l 1
 373.5 371.62875 l 1
 652.1625 0 l 1
 464.30125 0 l 1
93.8375 0 m 1xf0
 93.8375 731.0078125 l 1
 250.1375 731.0078125 l 1
 250.1375 0 l 1
 93.8375 0 l 1xf0
EndSplineSet
EndChar

StartChar: uni20B9
Encoding: 8377 8377 143
Width: 574
Flags: W
HStem: 0 21G<336.696 502.5> 261.012 131.043<32.8375 259.019> 450.675 84.65<32.8375 541.163> 595.377 135.631<32.8375 264.184>
VStem: 306.129 157.149<398.248 614.593>
LayerCount: 2
Fore
SplineSet
146.025 261.0125 m 2
 32.8375 261.0125 l 1
 32.8375 392.0553125 l 1
 166.888671875 392.165664062 l 2
 246.395589992 392.229598524 306.128710938 410.218960462 306.128710938 492.567773438 c 0
 306.128710938 576.069947044 246.357071825 595.214593253 167.888671875 595.273398438 c 2
 32.8375 595.376914062 l 1
 32.8375 731.0078125 l 1
 183.888671875 731.0078125 l 2
 330.686437742 731.0078125 463.27734375 669.426879368 463.27734375 504.899023438 c 0
 463.27734375 369.929184546 350.013476562 331.107617188 350.013476562 331.107617188 c 1
 350.013476562 331.107617188 411.281848976 313.674823583 444.497507325 199.592442627 c 2
 502.5 0 l 1
 342.2 0 l 1
 297.232036133 163.387712402 l 2
 272.940206518 250.744924702 249.359058982 261.0125 146.025 261.0125 c 2
541.1625 450.675 m 1
 32.8375 450.675 l 1
 32.8375 535.325 l 1
 541.1625 535.325 l 1
 541.1625 450.675 l 1
EndSplineSet
EndChar

StartChar: uni20B4
Encoding: 8372 8372 144
Width: 677
Flags: W
HStem: -10 133.518<259.037 488.993> 255.675 84.65<32.8375 644.163> 385.675 84.65<32.8375 644.163> 604.603 134.518<188.157 396.966>
VStem: 75.3375 151.535<153.488 252.136> 426.694 157.362<474.218 574.48>
LayerCount: 2
Fore
SplineSet
644.1625 255.675 m 1
 32.8375 255.675 l 1
 32.8375 340.325 l 1
 644.1625 340.325 l 1
 644.1625 255.675 l 1
644.1625 385.675 m 1
 32.8375 385.675 l 1
 32.8375 470.325 l 1
 644.1625 470.325 l 1
 644.1625 385.675 l 1
343.171025391 294.05203125 m 0
 244.734423387 267.752593545 226.872890625 243.96186143 226.872890625 201.26375 c 0
 226.872890625 149.944190313 270.172715697 123.518164062 360.181992188 123.518164062 c 0
 468.402004866 123.518164062 556.546875 172.254921875 556.546875 172.254921875 c 1
 593.028125 42.2294921875 l 1
 593.028125 42.2294921875 496.073842091 -10 343.05234375 -10 c 0
 168.543986423 -10 75.3375 74.3443203213 75.3375 209.87875 c 0
 75.3375 324.423755539 130.788663323 386.872873839 311.623710938 434.548554688 c 0
 402.284512856 458.68845147 426.693554688 482.094843449 426.693554688 525.77 c 0
 426.693554688 574.59709982 388.621770844 604.602929688 303.96 604.602929688 c 0
 207.772094524 604.602929688 142.5134375 562.082421875 142.5134375 562.082421875 c 1
 100.949414062 688.891601562 l 1
 100.949414062 688.891601562 171.734773038 739.12109375 317.286132812 739.12109375 c 0
 483.115059343 739.12109375 584.055078125 652.758119588 584.055078125 518.64125 c 0
 584.055078125 406.992969131 523.835830734 342.525689365 343.171025391 294.05203125 c 0
EndSplineSet
EndChar

StartChar: colonmonetary
Encoding: 8353 8353 145
Width: 623
Flags: W
HStem: -9.99805 78.4553<167.16 261.973 324.39 419.203> 599.089 140.032<270.795 425.914> 657.025 82.0961<270.135 364.947 427.635 522.447>
VStem: 37.8375 159.547<244.395 491.727>
LayerCount: 2
Fore
SplineSet
293.626757812 -105 m 1x90
 324.390429688 67.4447265625 l 1
 419.202929688 67.4447265625 l 1
 388.439257812 -105 l 1
 293.626757812 -105 l 1x90
427.634570312 657.025 m 1xb0
 458.398242188 829.469726562 l 1
 553.210742188 829.469726562 l 1
 522.447070312 657.025 l 1
 427.634570312 657.025 l 1xb0
37.8375 364.561523438 m 0
 37.8375 591.206054688 163.902607703 739.12109375 385.888671875 739.12109375 c 0
 537.158664743 739.12109375 599.344140625 672.891601562 599.344140625 672.891601562 c 1
 541.46296875 547.433671875 l 1
 541.46296875 547.433671875 491.474272781 599.089111328 390.118652344 599.089111328 c 0xd0
 255.107837152 599.089111328 197.384765625 505.196816282 197.384765625 364.561523438 c 0
 197.384765625 224.007142824 258.83132982 130.168867188 402.551171875 130.168867188 c 0
 504.690970347 130.168867188 558.788554688 176.368203125 558.788554688 176.368203125 c 1
 602.489648438 44.595703125 l 1
 602.489648438 44.595703125 536.326921698 -9.998046875 385.888671875 -9.998046875 c 0
 163.902607703 -9.998046875 37.8375 137.916992188 37.8375 364.561523438 c 0
136.126757812 -105 m 1
 167.160429688 68.4572265625 l 1
 261.972929688 68.4572265625 l 1
 230.939257812 -105 l 1
 136.126757812 -105 l 1
270.134570312 657.025 m 1xb0
 300.898242188 829.469726562 l 1
 395.710742188 829.469726562 l 1
 364.947070312 657.025 l 1
 270.134570312 657.025 l 1xb0
EndSplineSet
EndChar

StartChar: zero.inferior
Encoding: 8320 8320 148
Width: 455
Flags: W
HStem: -358 100.688<169.734 286.266> 42.5 100.5<169.734 286.266>
VStem: 23.0781 108.312<-212.53 -3.01067> 324.609 108.312<-212.53 -3.01067>
LayerCount: 2
Fore
SplineSet
131.390625 -107.8125 m 0
 131.390625 -197.921875 160.46875 -257.3125 228 -257.3125 c 0
 295.53125 -257.3125 324.609375 -197.921875 324.609375 -107.8125 c 0
 324.609375 -17.703125 295.53125 42.5 228 42.5 c 0
 160.46875 42.5 131.390625 -17.703125 131.390625 -107.8125 c 0
23.078125 -108 m 0
 23.078125 44 93.921875 143 228 143 c 0
 362.078125 143 432.921875 44 432.921875 -108 c 0
 432.921875 -260 362.078125 -358 228 -358 c 0
 93.921875 -358 23.078125 -260 23.078125 -108 c 0
EndSplineSet
EndChar

StartChar: one.inferior
Encoding: 8321 8321 149
Width: 276
Flags: W
VStem: 128.219 112.312<-350 21.9688>
LayerCount: 2
Fore
SplineSet
240.53125 137 m 1
 240.53125 -350 l 1
 128.21875 -350 l 1
 128.21875 21.96875 l 1
 38.6875 -25.90625 l 1
 5.84375 55.6875 l 1
 140.640625 137 l 1
 240.53125 137 l 1
EndSplineSet
EndChar

StartChar: two.inferior
Encoding: 8322 8322 150
Width: 404
Flags: W
HStem: -350 99.5<153.375 385.906> 43.7344 99.2656<98.5656 254.093>
VStem: 268.375 112.344<-60.4096 28.9997>
LayerCount: 2
Fore
SplineSet
268.375 -15.96875 m 0
 268.375 20.5 247.28125 43.734375 186.765625 43.734375 c 0
 121.796875 43.734375 75.421875 8.34375 75.421875 8.34375 c 1
 41.90625 101 l 1
 41.90625 101 102.140625 143 191.1875 143 c 0
 309.0625 143 380.71875 92.609375 380.71875 -7.59375 c 0
 380.71875 -98.28125 329.671875 -136.71875 234.21875 -182.78125 c 0
 156.671875 -220.5 153.96875 -244.8125 153.375 -250.5 c 1
 385.90625 -250.5 l 1
 385.90625 -350 l 1
 32.1875 -350 l 1
 32.1875 -314 l 2
 32.1875 -208.296875 95.578125 -148.84375 207.765625 -87.578125 c 0
 251.234375 -64.625 268.375 -41.921875 268.375 -15.96875 c 0
EndSplineSet
EndChar

StartChar: three.inferior
Encoding: 8323 8323 151
Width: 392
Flags: W
HStem: -358 96.6562<63.9025 239.82> -147.203 90.4062<109.188 234.403> 43.3438 99.6562<65.6273 233.78>
VStem: 242.547 116.203<-46.3117 33.1196> 253 116.359<-246.091 -162.951>
LayerCount: 2
Fore
SplineSet
164.578125 -56.796875 m 2xe8
 223.21875 -56.796875 242.546875 -39.890625 242.546875 -6.5 c 0
 242.546875 22.09375 225.265625 43.34375 168.03125 43.34375 c 0
 96.6875 43.34375 52.90625 14.796875 52.90625 14.796875 c 1
 24.609375 107.21875 l 1
 24.609375 107.21875 78.828125 143 173.859375 143 c 0
 288.515625 143 358.75 95.1875 358.75 5.1875 c 0xf0
 358.75 -76 285.78125 -100 285.78125 -100 c 1
 285.78125 -100 369.359375 -123 369.359375 -214.1875 c 0
 369.359375 -317 290.921875 -358 172.46875 -358 c 0
 71.015625 -358 10.1875 -323.1875 10.1875 -323.1875 c 1
 40.9375 -227.359375 l 1
 40.9375 -227.359375 89.296875 -261.34375 165.03125 -261.34375 c 0
 226.140625 -261.34375 253 -240.859375 253 -203.65625 c 0
 253 -166.09375 222.265625 -147.203125 164.390625 -147.203125 c 2
 108.375 -147.203125 l 1
 109.1875 -56.796875 l 1
 164.578125 -56.796875 l 2xe8
EndSplineSet
EndChar

StartChar: four.inferior
Encoding: 8324 8324 152
Width: 439
Flags: W
HStem: -239.984 90.7812<140.344 419.312>
VStem: 242.438 108.516<-350 -17.2188>
LayerCount: 2
Fore
SplineSet
350.953125 137 m 1
 350.953125 -350 l 1
 242.4375 -350 l 1
 242.4375 -17.21875 l 1
 140.34375 -149.203125 l 1
 419.3125 -149.203125 l 1
 419.3125 -239.984375 l 1
 40.125 -239.984375 l 1
 20.046875 -162.3125 l 1
 243.625 137 l 1
 350.953125 137 l 1
EndSplineSet
EndChar

StartChar: five.inferior
Encoding: 8325 8325 153
Width: 399
Flags: W
HStem: -357 98.6406<63.3484 246.522> -115.719 86.3281<142.625 249.112> 42.1875 94.8125<149.594 344.375>
VStem: 265.5 111.125<-237.018 -132.824>
LayerCount: 2
Fore
SplineSet
179.875 -357 m 0
 73.484375 -357 10.078125 -321.78125 10.078125 -321.78125 c 1
 39.375 -225.359375 l 1
 39.375 -225.359375 96.3125 -258.359375 170.4375 -258.359375 c 0
 239.46875 -258.359375 265.5 -230.71875 265.5 -185.78125 c 0
 265.5 -142.203125 240.828125 -115.71875 190.265625 -115.71875 c 0
 136.734375 -115.71875 118.421875 -150.125 118.421875 -150.125 c 1
 36.203125 -131.3125 l 1
 60.9375 137 l 1
 344.375 137 l 1
 344.375 42.1875 l 1
 149.59375 42.1875 l 1
 140.265625 -53.515625 l 1
 140.265625 -53.515625 160.828125 -29.390625 227.265625 -29.390625 c 0
 323.9375 -29.390625 376.625 -87.1875 376.625 -183.359375 c 0
 376.625 -291.1875 310.265625 -357 179.875 -357 c 0
EndSplineSet
EndChar

StartChar: six.inferior
Encoding: 8326 8326 154
Width: 426
Flags: W
HStem: -358 92.5781<160.258 279.827> -119.578 84.9375<157.934 279.808> 47.3906 95.6094<170.224 339.288>
VStem: 23.0781 117.281<-244.916 -45.0456> 298.391 105.328<-246.533 -137.995>
LayerCount: 2
Fore
SplineSet
140.359375 -192 m 0
 140.359375 -234.1875 163.640625 -265.421875 218.96875 -265.421875 c 0
 275.109375 -265.421875 298.390625 -234.1875 298.390625 -192 c 0
 298.390625 -149.8125 275.296875 -119.578125 218.96875 -119.578125 c 0
 163.640625 -119.578125 140.359375 -149.8125 140.359375 -192 c 0
127.375 -73 m 1
 127.375 -73 153.953125 -34.640625 238.140625 -34.640625 c 0
 339.53125 -34.640625 403.71875 -98.21875 403.71875 -191 c 0
 403.71875 -298 334.265625 -358 221 -358 c 0
 96.9375 -358 23.078125 -285 23.078125 -107 c 0
 23.078125 54 101.96875 143 243.109375 143 c 0
 341.53125 143 391.53125 102.1875 391.53125 102.1875 c 1
 355.53125 15.390625 l 1
 355.53125 15.390625 316.78125 47.390625 247.078125 47.390625 c 0
 170.671875 47.390625 131.375 5.578125 127.375 -73 c 1
EndSplineSet
EndChar

StartChar: seven.inferior
Encoding: 8327 8327 155
Width: 402
Flags: W
HStem: 40.1562 96.8438<26.7031 247.609>
VStem: 108.594 112.312<-350 -215.836>
LayerCount: 2
Fore
SplineSet
220.90625 -350 m 1
 108.59375 -350 l 1
 115.46665711 -134.484375 247.609375 40.15625 247.609375 40.15625 c 1
 26.703125 40.15625 l 1
 26.703125 137 l 1
 376.109375 137 l 1
 376.109375 67.734375 l 1
 376.109375 67.734375 222.877264493 -112.25 220.90625 -350 c 1
EndSplineSet
EndChar

StartChar: eight.inferior
Encoding: 8328 8328 156
Width: 442
Flags: W
HStem: -358 90<151.428 291.45> -138.188 84.5938<177.828 267.562> -110.812 39.7344<107.922 337.266> 53.0156 89.9844<163.19 283.994>
VStem: 23.0781 108.125<-248.205 -158.189> 47.0781 103.5<-40.8342 40.6412> 295.609 103.5<-38.9742 38.9191> 311.797 108.125<-248.205 -158.189>
LayerCount: 2
Fore
SplineSet
221.59375 -53.59375 m 0xd6
 267.5625 -53.59375 295.609375 -32.703125 295.609375 -0.484375 c 0
 295.609375 32.71875 268.546875 53.015625 221.59375 53.015625 c 0
 176.828125 53.015625 150.578125 32.71875 150.578125 -0.484375 c 0
 150.578125 -32.703125 177.828125 -53.59375 221.59375 -53.59375 c 0xd6
221.59375 143 m 0
 332.265625 143 399.109375 93 399.109375 12 c 0
 399.109375 -67.8125 337.265625 -110.8125 221.59375 -110.8125 c 0xb6
 107.921875 -110.8125 47.078125 -67.8125 47.078125 12 c 0
 47.078125 93 112.921875 143 221.59375 143 c 0
221.40625 -268 m 0
 278.75 -268 311.796875 -244.296875 311.796875 -202.09375 c 0
 311.796875 -163.078125 278.75 -138.1875 221.40625 -138.1875 c 0
 164.0625 -138.1875 131.203125 -163.078125 131.203125 -202.09375 c 0xd9
 131.203125 -244.296875 164.0625 -268 221.40625 -268 c 0
221.40625 -71.078125 m 0xb9
 349.28125 -71.078125 419.921875 -121.921875 419.921875 -212.1875 c 0
 419.921875 -301 342.078125 -358 221.40625 -358 c 0
 100.734375 -358 23.078125 -301 23.078125 -212.1875 c 0
 23.078125 -121.921875 93.53125 -71.078125 221.40625 -71.078125 c 0xb9
EndSplineSet
EndChar

StartChar: nine.inferior
Encoding: 8329 8329 157
Width: 426
Flags: W
HStem: -358 94.7969<84.1067 251.646> -182.594 85.1406<149.127 268.679> 48.3906 94.6094<146.979 267.435>
VStem: 23.0781 106.125<-77.9201 28.8804> 286.625 116.484<-167.19 30.2387>
LayerCount: 2
Fore
SplineSet
286.625 -24.21875 m 0
 286.625 17.96875 263.953125 48.390625 208.625 48.390625 c 0
 153.09375 48.390625 129.203125 17.96875 129.203125 -24.21875 c 0
 129.203125 -66.40625 152.90625 -97.453125 208.625 -97.453125 c 0
 263.953125 -97.453125 286.625 -66.40625 286.625 -24.21875 c 0
293.734375 -142.203125 m 1
 293.734375 -142.203125 267.96875 -182.59375 185.8125 -182.59375 c 0
 86.25 -182.59375 23.078125 -117.390625 23.078125 -23.390625 c 0
 23.078125 83.609375 92.734375 143 206 143 c 0
 330.0625 143 403.109375 70 403.109375 -108 c 0
 403.109375 -269 325.640625 -358 185.3125 -358 c 0
 86.484375 -358 35.875 -317.1875 35.875 -317.1875 c 1
 64.96875 -229.78125 l 1
 64.96875 -229.78125 105.953125 -263.203125 179.921875 -263.203125 c 0
 253.078125 -263.203125 289.734375 -220.78125 293.734375 -142.203125 c 1
EndSplineSet
EndChar

StartChar: zero.superior
Encoding: 8304 8304 158
Width: 455
Flags: W
HStem: 342 100.688<169.813 286.151> 742.5 100.5<169.813 286.151>
VStem: 23.0781 108.312<487.47 696.989> 324.406 108.312<487.47 696.989>
LayerCount: 2
Fore
SplineSet
131.390625 592.1875 m 0
 131.390625 502.078125 160.671875 442.6875 228 442.6875 c 0
 295.328125 442.6875 324.40625 502.078125 324.40625 592.1875 c 0
 324.40625 682.296875 295.328125 742.5 228 742.5 c 0
 160.671875 742.5 131.390625 682.296875 131.390625 592.1875 c 0
23.078125 592 m 0
 23.078125 744 94.125 843 228 843 c 0
 361.875 843 432.71875 744 432.71875 592 c 0
 432.71875 440 361.875 342 228 342 c 0
 94.125 342 23.078125 440 23.078125 592 c 0
EndSplineSet
EndChar

StartChar: one.superior
Encoding: 185 185 159
Width: 276
Flags: W
VStem: 128.219 112.312<350 724.219>
LayerCount: 2
Fore
SplineSet
240.53125 838.3125 m 1
 240.53125 350 l 1
 128.21875 350 l 1
 128.21875 724.21875 l 1
 38.5 675.96875 l 1
 5.84375 757.9375 l 1
 140.640625 838.3125 l 1
 240.53125 838.3125 l 1
EndSplineSet
EndChar

StartChar: two.superior
Encoding: 178 178 160
Width: 404
Flags: W
HStem: 350 97.4688<153.375 385.906> 743.734 99.2656<98.6015 254.129>
VStem: 268.375 112.344<639.103 728.669>
LayerCount: 2
Fore
SplineSet
268.375 684.03125 m 0
 268.375 720.5 247.46875 743.734375 186.953125 743.734375 c 0
 121.984375 743.734375 75.421875 708.140625 75.421875 708.140625 c 1
 41.90625 801 l 1
 41.90625 801 102.140625 843 191.1875 843 c 0
 309.0625 843 380.71875 792.203125 380.71875 691.59375 c 0
 380.71875 600.703125 329.671875 561.859375 234.21875 515.1875 c 0
 156.671875 476.859375 153.96875 453.15625 153.375 447.46875 c 1
 385.90625 447.46875 l 1
 385.90625 350 l 1
 32.1875 350 l 1
 32.1875 386 l 2
 32.1875 491.703125 95.578125 551.15625 207.765625 612.421875 c 0
 251.234375 635.375 268.375 658.078125 268.375 684.03125 c 0
EndSplineSet
EndChar

StartChar: three.superior
Encoding: 179 179 161
Width: 392
Flags: W
HStem: 342 96.6562<63.8687 239.68> 552.797 90.4062<109.188 234.296> 743.344 99.6562<66.2582 233.677>
VStem: 242.359 116.203<653.736 733.12> 252.812 116.359<454.203 537.313>
LayerCount: 2
Fore
SplineSet
164.390625 643.203125 m 2xe8
 222.84375 643.203125 242.359375 660.109375 242.359375 693.5 c 0
 242.359375 722.09375 225.078125 743.34375 167.84375 743.34375 c 0
 96.5 743.34375 52.90625 714.1875 52.90625 714.1875 c 1
 24.609375 806.609375 l 1
 24.609375 806.609375 79.015625 843 173.859375 843 c 0
 288.515625 843 358.5625 795.1875 358.5625 705.1875 c 0xf0
 358.5625 624 285.59375 600.609375 285.59375 600.609375 c 1
 285.59375 600.609375 369.171875 577.40625 369.171875 486.421875 c 0
 369.171875 383.609375 290.734375 342 172.46875 342 c 0
 71.015625 342 10.1875 376.609375 10.1875 376.609375 c 1
 40.9375 472.640625 l 1
 40.9375 472.640625 89.109375 438.65625 164.84375 438.65625 c 0
 225.953125 438.65625 252.8125 459.140625 252.8125 496.34375 c 0
 252.8125 533.90625 222.265625 552.796875 164.390625 552.796875 c 2
 108.375 552.796875 l 1
 109.1875 643.203125 l 1
 164.390625 643.203125 l 2xe8
EndSplineSet
EndChar

StartChar: four.superior
Encoding: 8308 8308 162
Width: 439
Flags: W
HStem: 460.578 90.5938<140.344 419.312>
VStem: 242.438 108.516<350 682.641>
LayerCount: 2
Fore
SplineSet
350.953125 837.9375 m 1
 350.953125 350 l 1
 242.4375 350 l 1
 242.4375 682.640625 l 1
 140.34375 551.171875 l 1
 419.3125 551.171875 l 1
 419.3125 460.578125 l 1
 40.125 460.578125 l 1
 20.046875 538.0625 l 1
 243.625 837.9375 l 1
 350.953125 837.9375 l 1
EndSplineSet
EndChar

StartChar: five.superior
Encoding: 8309 8309 163
Width: 399
Flags: W
HStem: 343 98.6406<63.3484 246.522> 584.281 86.3281<142.625 249.112> 742.188 94.8125<149.594 344.375>
VStem: 265.5 111.125<462.982 567.176>
LayerCount: 2
Fore
SplineSet
179.875 343 m 0
 73.484375 343 10.078125 378.21875 10.078125 378.21875 c 1
 39.375 474.640625 l 1
 39.375 474.640625 96.3125 441.640625 170.4375 441.640625 c 0
 239.46875 441.640625 265.5 469.28125 265.5 514.21875 c 0
 265.5 557.796875 240.828125 584.28125 190.265625 584.28125 c 0
 136.734375 584.28125 118.421875 549.875 118.421875 549.875 c 1
 36.203125 568.6875 l 1
 60.9375 837 l 1
 344.375 837 l 1
 344.375 742.1875 l 1
 149.59375 742.1875 l 1
 140.265625 646.484375 l 1
 140.265625 646.484375 160.828125 670.609375 227.265625 670.609375 c 0
 323.9375 670.609375 376.625 612.8125 376.625 516.640625 c 0
 376.625 408.8125 310.265625 343 179.875 343 c 0
EndSplineSet
EndChar

StartChar: six.superior
Encoding: 8310 8310 164
Width: 426
Flags: W
HStem: 342 92.5781<160.258 279.827> 580.422 84.9375<157.934 279.808> 747.391 95.6094<170.224 339.288>
VStem: 23.0781 104.297<626.391 699.984> 298.391 105.328<453.467 562.005>
LayerCount: 2
Fore
SplineSet
140.359375 508 m 0
 140.359375 465.8125 163.640625 434.578125 218.96875 434.578125 c 0
 275.109375 434.578125 298.390625 465.8125 298.390625 508 c 0
 298.390625 550.1875 275.296875 580.421875 218.96875 580.421875 c 0
 163.640625 580.421875 140.359375 550.1875 140.359375 508 c 0
127.375 626.390625 m 1
 127.375 626.390625 153.953125 665.359375 238.140625 665.359375 c 0
 339.53125 665.359375 403.71875 601.78125 403.71875 509 c 0
 403.71875 402 334.265625 342 221 342 c 0
 96.9375 342 23.078125 415 23.078125 593 c 0
 23.078125 754 101.96875 843 243.109375 843 c 0
 341.53125 843 391.53125 802.796875 391.53125 802.796875 c 1
 355.53125 715.390625 l 1
 355.53125 715.390625 316.78125 747.390625 247.078125 747.390625 c 0
 170.671875 747.390625 131.375 705.578125 127.375 626.390625 c 1
EndSplineSet
EndChar

StartChar: seven.superior
Encoding: 8311 8311 165
Width: 402
Flags: W
HStem: 740.156 96.8438<26.7031 247.609>
VStem: 108.594 112.312<350 484.164>
LayerCount: 2
Fore
SplineSet
220.90625 350 m 1
 108.59375 350 l 1
 115.46665711 565.515625 247.609375 740.15625 247.609375 740.15625 c 1
 26.703125 740.15625 l 1
 26.703125 837 l 1
 376.109375 837 l 1
 376.109375 767.734375 l 1
 376.109375 767.734375 222.877264493 587.75 220.90625 350 c 1
EndSplineSet
EndChar

StartChar: eight.superior
Encoding: 8312 8312 166
Width: 443
Flags: W
HStem: 342 90<151.52 291.668> 561.812 84.5938<177.828 267.562> 589.188 39.7344<107.922 337.266> 753.016 89.9844<163.165 284.068>
VStem: 23.0781 108.125<451.795 541.811> 47.0781 103.5<659.166 740.641> 295.797 103.5<661.026 738.919> 311.984 108.125<451.795 541.811>
LayerCount: 2
Fore
SplineSet
221.59375 646.40625 m 0xd6
 267.5625 646.40625 295.796875 667.296875 295.796875 699.515625 c 0
 295.796875 732.71875 268.546875 753.015625 221.59375 753.015625 c 0
 176.640625 753.015625 150.578125 732.71875 150.578125 699.515625 c 0
 150.578125 667.296875 177.828125 646.40625 221.59375 646.40625 c 0xd6
221.59375 843 m 0
 332.265625 843 399.296875 793 399.296875 712 c 0
 399.296875 632.1875 337.265625 589.1875 221.59375 589.1875 c 0xb6
 107.921875 589.1875 47.078125 632.1875 47.078125 712 c 0
 47.078125 793 112.921875 843 221.59375 843 c 0
221.59375 432 m 0
 279.125 432 311.984375 455.703125 311.984375 497.90625 c 0
 311.984375 536.921875 279.125 561.8125 221.59375 561.8125 c 0
 164.0625 561.8125 131.203125 536.921875 131.203125 497.90625 c 0xd9
 131.203125 455.703125 164.0625 432 221.59375 432 c 0
221.59375 628.921875 m 0xb9
 349.46875 628.921875 420.109375 578.078125 420.109375 487.8125 c 0
 420.109375 399 342.265625 342 221.59375 342 c 0
 100.921875 342 23.078125 399 23.078125 487.8125 c 0
 23.078125 578.078125 93.71875 628.921875 221.59375 628.921875 c 0xb9
EndSplineSet
EndChar

StartChar: nine.superior
Encoding: 8313 8313 167
Width: 426
Flags: W
HStem: 342 94.7969<84.1067 251.646> 517.406 85.1406<149.127 268.679> 748.391 94.6094<146.979 267.435>
VStem: 23.0781 106.125<622.08 728.88> 286.625 116.484<532.81 730.239>
LayerCount: 2
Fore
SplineSet
286.625 675.78125 m 0
 286.625 717.96875 263.953125 748.390625 208.625 748.390625 c 0
 153.09375 748.390625 129.203125 717.96875 129.203125 675.78125 c 0
 129.203125 633.59375 152.90625 602.546875 208.625 602.546875 c 0
 263.953125 602.546875 286.625 633.59375 286.625 675.78125 c 0
293.734375 557.59375 m 1
 293.734375 557.59375 267.96875 517.40625 185.8125 517.40625 c 0
 86.25 517.40625 23.078125 582.609375 23.078125 676.609375 c 0
 23.078125 783.609375 92.734375 843 206 843 c 0
 330.0625 843 403.109375 770 403.109375 592 c 0
 403.109375 431 325.640625 342 185.3125 342 c 0
 86.484375 342 35.875 382.609375 35.875 382.609375 c 1
 64.96875 470.21875 l 1
 64.96875 470.21875 105.953125 436.796875 179.921875 436.796875 c 0
 253.078125 436.796875 289.734375 479.015625 293.734375 557.59375 c 1
EndSplineSet
EndChar

StartChar: circumflex
Encoding: 710 710 168
Width: 362
Flags: W
HStem: 516.337 214.67
LayerCount: 2
Fore
SplineSet
272.0125 516.3375 m 1
 181 614.120117188 l 1
 89.9875 516.3375 l 1
 89.9875 516.3375 6.3375 546 6.3375 546 c 1
 6.3375 546 116.675 731.0078125 116.675 731.0078125 c 1
 245.325 731.0078125 l 1
 355.6625 546 l 1
 272.0125 516.3375 l 1
EndSplineSet
EndChar

StartChar: caron
Encoding: 711 711 169
Width: 362
Flags: W
HStem: 526.337 214.67
LayerCount: 2
Fore
SplineSet
89.9875 741.0078125 m 1
 181 643.225195312 l 1
 272.0125 741.0078125 l 1
 355.6625 711.3453125 l 1
 245.325 526.3375 l 1
 116.675 526.3375 l 1
 116.675 526.3375 6.3375 711.3453125 6.3375 711.3453125 c 1
 6.3375 711.3453125 89.9875 741.0078125 89.9875 741.0078125 c 1
EndSplineSet
EndChar

StartChar: breve
Encoding: 728 728 170
Width: 322
VWidth: 999
Flags: W
HStem: 580.787 105.087<97.2922 225.528> 715 20G<49.2402 73.9309 248.889 273.58>
VStem: 5.3375 312.145
LayerCount: 2
Fore
SplineSet
161.41015625 580.786523438 m 0
 52.0899156587 580.786523438 5.3375 679.437695312 5.3375 679.437695312 c 1
 73.930859375 735 l 1
 73.930859375 735 93.2659753634 685.874023438 161.41015625 685.874023438 c 0
 229.554337137 685.874023438 248.889453125 735 248.889453125 735 c 1
 317.4828125 679.437695312 l 1
 317.4828125 679.437695312 270.730396841 580.786523438 161.41015625 580.786523438 c 0
EndSplineSet
EndChar

StartChar: dotaccent
Encoding: 729 729 171
Width: 248
Flags: W
HStem: 579.568 159.424<66.9789 182.021>
VStem: 45.3992 158.202<601.315 717.245>
LayerCount: 2
Fore
SplineSet
45.39921875 659.280078125 m 0
 45.39921875 707.570962765 76.5783447514 738.9921875 124.499023438 738.9921875 c 0
 172.420700873 738.9921875 203.60078125 707.570962765 203.60078125 659.280078125 c 0
 203.60078125 610.988321036 172.420700873 579.56796875 124.499023438 579.56796875 c 0
 76.5783447514 579.56796875 45.39921875 610.988321036 45.39921875 659.280078125 c 0
EndSplineSet
EndChar

StartChar: tilde
Encoding: 732 732 172
Width: 371
VWidth: 999
Flags: W
HStem: 582.981 107.25<193.669 314.136> 627.05 106.381<67.2933 177.825>
LayerCount: 2
Fore
SplineSet
366.400390625 646.588652344 m 1x80
 366.400390625 646.588652344 322.332231406 582.980957031 254.394335938 582.980957031 c 0x80
 184.273939504 582.980957031 169.943468506 627.050292969 118.744335938 627.050292969 c 0
 84.7644342119 627.050292969 57.04375 596.512207031 57.04375 596.512207031 c 1
 5 683.806152344 l 1
 5 683.806152344 53.6589799042 733.431152344 117.00703125 733.431152344 c 0x40
 186.014292566 733.431152344 205.909422587 690.230957031 252.65703125 690.230957031 c 0
 291.29503087 690.230957031 311.06453125 717.043457031 311.06453125 717.043457031 c 1
 366.400390625 646.588652344 l 1x80
EndSplineSet
EndChar

StartChar: hungarumlaut
Encoding: 733 733 173
Width: 412
Flags: W
HStem: 521 220.008
LayerCount: 2
Fore
SplineSet
286.325 521 m 1
 195.3375 540.6625 l 1
 271.35 741.0078125 l 1
 405.6625 711.3453125 l 1
 286.325 521 l 1
96.325 521 m 1
 5.3375 540.6625 l 1
 81.35 741.0078125 l 1
 215.6625 711.3453125 l 1
 96.325 521 l 1
EndSplineSet
EndChar

StartChar: multiply
Encoding: 215 215 174
Width: 450
Flags: W
LayerCount: 2
Fore
SplineSet
418.040039062 469.308085938 m 1
 113.691914062 164.959960938 l 1
 31.9599609375 246.691914062 l 1
 336.308085938 551.040039062 l 1
 418.040039062 469.308085938 l 1
336.308085938 164.959960938 m 1
 31.9599609375 469.308085938 l 1
 113.691914062 551.040039062 l 1
 418.040039062 246.691914062 l 1
 336.308085938 164.959960938 l 1
EndSplineSet
EndChar

StartChar: divide
Encoding: 247 247 175
Width: 450
Flags: W
HStem: 108.866 156.454<168.514 281.485> 299.695 116.61<30 420> 450.68 156.454<168.514 281.485>
VStem: 147.323 155.353<130.208 243.978 472.022 585.792>
CounterMasks: 1 e0
LayerCount: 2
Fore
SplineSet
420 299.695 m 1
 30 299.695 l 1
 30 416.305 l 1
 420 416.305 l 1
 420 299.695 l 1
147.3234375 187.092460938 m 0
 147.3234375 234.483575687 177.941001884 265.319804688 224.999023438 265.319804688 c 0
 272.058035626 265.319804688 302.6765625 234.483575687 302.6765625 187.092460938 c 0
 302.6765625 139.701386204 272.058035626 108.86609375 224.999023438 108.86609375 c 0
 177.941001884 108.86609375 147.3234375 139.701386204 147.3234375 187.092460938 c 0
147.3234375 528.907539062 m 0
 147.3234375 576.297703287 177.941001884 607.13390625 224.999023438 607.13390625 c 0
 272.058035626 607.13390625 302.6765625 576.297703287 302.6765625 528.907539062 c 0
 302.6765625 481.515513803 272.058035626 450.680195312 224.999023438 450.680195312 c 0
 177.941001884 450.680195312 147.3234375 481.515513803 147.3234375 528.907539062 c 0
EndSplineSet
EndChar

StartChar: AE
Encoding: 198 198 176
Width: 1024
Flags: W
HStem: 0 135.056<666.131 991.163> 146.148 134.773<229.5 623.131> 297.1 136.137<588.65 931.163> 595.952 135.056<666.131 991.163>
VStem: 510 113.131<146.148 280.92> 588.65 77.4813<297.1 433.238>
LayerCount: 2
Fore
SplineSet
931.1625 297.1 m 1xf4
 588.65 297.1 l 1
 588.65 433.2375 l 1
 931.1625 433.2375 l 1
 931.1625 297.1 l 1xf4
666.13125 595.9515625 m 1
 666.13125 135.05625 l 1xf4
 991.1625 135.05625 l 1
 991.1625 0 l 1
 510 0 l 1
 510 731.0078125 l 1xf8
 991.1625 731.0078125 l 1
 991.1625 595.9515625 l 1
 666.13125 595.9515625 l 1
623.13125 146.1475 m 1xf8
 160.175 146.1475 l 1
 229.5 280.92 l 1
 623.13125 280.92 l 1
 623.13125 146.1475 l 1xf8
569.9875 731.0078125 m 1
 564.987548828 731.0078125 564.987548828 631.862548828 564.987548828 631.862548828 c 1
 185.56375 0 l 1
 7.8375 0 l 1
 480.337402344 731.0078125 l 1
 569.9875 731.0078125 l 1
EndSplineSet
EndChar

StartChar: ae
Encoding: 230 230 177
Width: 872
Flags: W
HStem: -9.99805 113.423<189.757 316.062> -9.99805 122.923<557.715 769.708> 205.911 95.765<455.056 697.842> 219.074 90.1844<199.801 365.79> 391.117 119.894<141.068 316.559> 394.924 116.009<540.023 664.306>
VStem: 31.5875 147.236<115.904 196.17> 349.671 110.495<180.5 356.043> 349.671 16.1186<219.074 309.259> 455.056 46.9161<205.911 301.676>
LayerCount: 2
Fore
SplineSet
349.671210938 200.061523438 m 1x93
 462.15 178.825 l 1
 440.482092619 59.4884318129 367.186878247 -9.998046875 226.902421875 -9.998046875 c 0
 88.5196408395 -9.998046875 31.5875 49.8256656718 31.5875 140.56125 c 0
 31.5875 286.074943551 149.65621659 309.123041394 365.941210938 309.25859375 c 1
 365.789794922 219.07421875 l 1x9280
 200.558040106 218.97980836 178.823632812 196.467262942 178.823632812 156.434023438 c 0
 178.823632812 121.272464764 207.37862573 103.425117188 254.064921875 103.425117188 c 0
 304.540394717 103.425117188 349.671210938 135.13805027 349.671210938 200.061523438 c 1x93
460.166210938 180.5 m 1x0b
 349.671210938 165 l 1x0a80
 349.671210938 292.110742188 l 2
 349.671210937 361.297188778 305.599338836 391.11694336 240.125 391.11694336 c 0
 166.612526333 391.11694336 114.091308594 355.535644532 114.091308594 355.535644532 c 1
 74.7661132812 467.348144532 l 1
 74.7661132812 467.348144532 136.759551047 511.010742188 254.305283203 511.010742188 c 0
 372.957683453 511.010742188 460.166210937 439.453879405 460.166210938 325.010742188 c 2
 460.166210938 180.5 l 1x0b
EndSplineSet
Refer: 43 101 N 1 0 0 1 321 0 2
EndChar

StartChar: Eth
Encoding: 208 208 178
Width: 789
Flags: W
HStem: 0 139.206<276.137 485.419> 295.114 130.773<30.3375 433.663> 591.796 139.212<276.137 485.661>
VStem: 119.838 156.3<139.206 591.796> 594.791 157.149<248.952 480.38>
LayerCount: 2
Fore
SplineSet
433.6625 295.11375 m 1
 30.3375 295.11375 l 1
 30.3375 425.88625 l 1
 433.6625 425.88625 l 1
 433.6625 295.11375 l 1
EndSplineSet
Refer: 5 68 N 1 0 0 1 62 0 2
EndChar

StartChar: eth
Encoding: 240 240 179
Width: 588
Flags: W
HStem: -9.99805 131.484<226.535 363.5> 386.025 124.908<227.593 359.952>
VStem: 40.9088 142.419<168.485 340.897> 409.694 146.317<169.146 440> 409.694 61.7011<281.899 339.675>
LayerCount: 2
Fore
SplineSet
155.165527344 615.983154297 m 1xe0
 482.078613281 709.405029297 l 1
 505.819580078 626.244140625 l 1
 178.905517578 532.821289062 l 1
 155.165527344 615.983154297 l 1xe0
409.69375 251.561523438 m 0xf0
 409.69375 497.115722335 341.776939344 562.688232422 194.520996094 698.398925781 c 1
 327.0859375 771.274414062 l 1
 327.0859375 771.274414062 556.011132812 601 556.011132812 279 c 0xf0
 556.011132812 93.8330078125 457.376675117 -9.998046875 296.959960938 -9.998046875 c 0
 137.79314678 -9.998046875 40.9087890625 94.0830078125 40.9087890625 253.561523438 c 0
 40.9087890625 409.295898438 123.496945726 510.93359375 267.30375 510.93359375 c 0
 386.735401293 510.93359375 471.394882812 423.875357299 471.394882812 281.899023438 c 1xe8
 409.69375 273.561523438 l 1
 409.69375 339.674718353 371.087083469 386.025429688 298.747382812 386.025429688 c 0
 217.894567481 386.025429688 183.327421875 332.993744361 183.327421875 253.561523438 c 0
 183.327421875 174.362654501 217.359480445 121.486367188 296.959960938 121.486367188 c 0
 378.229405758 121.486367188 409.69375 185.77201031 409.69375 251.561523438 c 0xf0
EndSplineSet
EndChar

StartChar: Thorn
Encoding: 222 222 180
Width: 650
Flags: W
HStem: 0 21G<57.8375 214.137> 154 121.833<159.812 429.78> 475.168 125.705<160.812 429.7> 711.008 20G<57.8375 214.137>
VStem: 57.8375 156.3<0 154 275.833 475.168 600.873 731.008> 160.812 53.325<154 275.833 475.168 600.873> 465.352 147.587<310.141 440.15>
LayerCount: 2
Fore
SplineSet
57.8375 0 m 1xfa
 57.8375 731.0078125 l 1xfa
 214.1375 731.0078125 l 1
 214.1375 0 l 1xf6
 57.8375 0 l 1xfa
159.8125 154 m 1
 159.8125 275.8328125 l 1
 332.726171875 275.943164062 l 2
 408.654880482 276.047767861 465.352460938 293.675830919 465.352460938 374.561523438 c 0
 465.352460938 456.27385515 408.646494499 475.037338514 332.726171875 475.064648438 c 2
 160.8125 475.168164062 l 1
 160.8125 600.8728125 l 1xf6
 356.051171875 600.8728125 l 2
 491.21298035 600.8728125 612.93984375 539.237262436 612.93984375 374.561523438 c 0
 612.93984375 213.240207598 490.759109269 154 356.051171875 154 c 2
 159.8125 154 l 1
EndSplineSet
EndChar

StartChar: thorn
Encoding: 254 254 181
Width: 602
Flags: W
HStem: -9.99805 125.687<239.933 379.671> 386.059 124.874<248.744 380.858> 731.002 20G<57.905 204.407>
VStem: 57.905 146.502<-180 751.002> 123.246 81.1611<66.4395 183.562> 146.896 57.5111<283.562 425.747> 423.605 142.486<162.162 342.095>
LayerCount: 2
Fore
SplineSet
57.905 -180 m 1xf2
 57.905 751.001953125 l 1
 204.4075 751.001953125 l 1
 204.4075 -180 l 1
 57.905 -180 l 1xf2
204.4075 213.561523438 m 1
 204.4075 165.87839724 236.193146765 115.688867188 310.540039062 115.688867188 c 0
 389.742314986 115.688867188 423.605078125 170.885388696 423.605078125 253.561523438 c 0
 423.605078125 333.01398261 389.776550191 386.059179688 310.651367188 386.059179688 c 0
 236.902434085 386.059179688 204.4075 345.02475962 204.4075 283.561523438 c 1xf2
 146.896367188 283.561523438 l 1xe6
 146.896367188 425.747070312 223.768862614 510.93359375 342.1625 510.93359375 c 0
 484.402734375 510.93359375 566.091210938 409.295898438 566.091210938 253.561523438 c 0
 566.091210938 94.0830078125 480.61953125 -9.998046875 340.202539062 -9.998046875 c 0
 205.33831411 -9.998046875 123.246367188 66.439453125 123.246367188 183.561523438 c 1xea
 204.4075 213.561523438 l 1
EndSplineSet
EndChar

StartChar: kgreenlandic
Encoding: 312 312 182
Width: 555
Flags: W
HStem: 0 21G<60.0675 206.57 336.431 532.837> 213.905 84.19<111.5 199.795> 481.011 20G<60.0675 206.57 332.689 522.837>
VStem: 60.0675 146.502<0 213.905 298.095 501.011> 111.5 95.07<213.905 298.095>
LayerCount: 2
Fore
SplineSet
199.795 298.095 m 1xe8
 199.795 213.905 l 1
 111.5 213.905 l 1
 111.5 298.095 l 1
 199.795 298.095 l 1xe8
350.523681641 0 m 1
 199.795 213.905 l 1
 199.795 298.095 l 1
 347.219970703 501.010742188 l 1
 522.837402344 501.010742188 l 1
 327.5 269.912597656 l 1
 532.837402344 0 l 1
 350.523681641 0 l 1
60.0675 0 m 1xf0
 60.0675 501.010742188 l 1
 206.57 501.010742188 l 1
 206.57 0 l 1
 60.0675 0 l 1xf0
EndSplineSet
EndChar

StartChar: Eng
Encoding: 330 330 183
Width: 719
Flags: W
HStem: -189.994 120.677<327.157 495.767> 0 21G<57.8375 206.205> 711.008 20G<57.8375 228.287 512.795 661.163>
VStem: 57.8375 148.367<0 467.23> 512.795 148.368<276.037 731.008>
LayerCount: 2
Fore
SplineSet
57.8375 0 m 1
 57.8375 731.0078125 l 1
 215.205 731.0078125 l 1
 512.795 276.037109375 l 1
 512.795 731.0078125 l 1
 661.1625 731.0078125 l 1
 661.1625 -3 l 2
 661.1625 -125.529296875 603.325862069 -189.994140625 463.8375 -189.994140625 c 0
 370.251281184 -189.994140625 315.175 -169.960390625 315.175 -169.960390625 c 1
 329.04 -54.215390625 l 1
 329.04 -54.215390625 371.576160525 -69.316640625 431.11375 -69.316640625 c 0
 480.293994042 -69.316640625 505.837047323 -51.9712258866 511.27119865 -11.8368060134 c 1
 206.205 467.229882812 l 1
 206.205 0 l 1
 57.8375 0 l 1
EndSplineSet
Substitution2: "'ss06' Style Set 6 lookup 7-1" Eng.ss06
EndChar

StartChar: eng
Encoding: 331 331 184
Width: 595
Flags: W
HStem: -189.994 127.293<236.519 373.903> 0 21G<57.905 204.407> 390.722 120.212<246.04 362.311> 481.011 20G<57.905 204.407>
VStem: 57.905 146.502<0 501.011> 391.707 146.502<-45.7781 358.631>
LayerCount: 2
Fore
SplineSet
57.905 0 m 1xdc
 57.905 501.010742188 l 1
 204.4075 501.010742188 l 1
 204.4075 0 l 1
 57.905 0 l 1xdc
204.4075 284 m 1
 142.5825 293.561523438 l 1
 164.842285334 444 218.333853009 510.93359375 349.1625 510.93359375 c 0
 474.00694004 510.93359375 538.20984375 443.86603318 538.20984375 303.886523438 c 2
 538.20984375 13.5 l 2
 538.20984375 -108.980005532 482.736147752 -189.994140625 348.94609375 -189.994140625 c 0
 275.353379094 -189.994140625 224.45234375 -173.494140625 224.45234375 -173.494140625 c 1
 238.31734375 -51.350390625 l 1
 238.31734375 -51.350390625 270.151382965 -62.701640625 314.70859375 -62.701640625 c 0
 368.91946939 -62.701640625 391.70734375 -37.0367309864 391.70734375 22.505859375 c 2
 391.70734375 286.886523438 l 2
 391.70734375 353.148178719 364.269662207 390.721679688 299.675 390.721679688 c 0xec
 233.648309323 390.721679688 204.4075 347.996030535 204.4075 284 c 1
EndSplineSet
EndChar

StartChar: OE
Encoding: 338 338 185
Width: 991
Flags: W
HStem: 0 135.056<631.138 963.163> 0 138.484<306.859 532.777> 297.1 136.137<553.487 903.163> 592.74 138.268<306.432 532.777> 595.952 135.056<631.138 963.163>
VStem: 40.3375 152.25<248.588 480.8> 553.487 77.65<297.1 433.238>
LayerCount: 2
Fore
SplineSet
532.77734375 138.3740625 m 1x76
 532.77734375 0 l 1
 413.888671875 0 l 2
 218.495871511 0 40.3375 97.9169921875 40.3375 364.561523438 c 0
 40.3375 631.206054688 217.345543634 731.0078125 413.888671875 731.0078125 c 2
 532.77734375 731.0078125 l 1
 532.77734375 592.843164062 l 1
 433.888671875 592.739648438 l 2
 296.778168489 592.597438173 192.587382812 550.076958424 192.587382812 364.561523438 c 0
 192.587382812 179.13617975 296.778168504 138.634827864 433.888671875 138.484414062 c 2
 433.888671875 138.484414062 532.77734375 138.3740625 532.77734375 138.3740625 c 1x76
EndSplineSet
Refer: 10 69 N 1 0 0 1 417 0 2
EndChar

StartChar: oe
Encoding: 339 339 186
Width: 920
Flags: W
HStem: -9.99805 130.403<223.286 364.229> -9.99805 122.923<606.452 817.792> 205.911 95.765<504.069 745.842> 380.343 130.591<222.223 365.347> 394.924 116.009<588.756 712.577>
VStem: 37.8375 142.52<168.13 335.922> 408.07 142.915<173.714 329.587> 504.069 46.5211<210.209 295.896>
LayerCount: 2
Fore
SplineSet
180.357382812 253.561523438 m 0xb6
 180.357382812 173.714185791 214.525512325 120.405117188 293.382421875 120.405117188 c 0
 373.42099777 120.405117188 408.069960938 173.714185791 408.069960938 253.561523438 c 0
 408.069960938 329.5865625 373.454959143 380.342929688 293.49375 380.342929688 c 0
 214.558731251 380.342929688 180.357382812 329.5865625 180.357382812 253.561523438 c 0xb6
37.8375 253.561523438 m 0
 37.8375 409.295898438 134.530436241 510.93359375 293.382421875 510.93359375 c 0
 453.267774989 510.93359375 550.58984375 409.295898438 550.58984375 253.561523438 c 0xb5
 550.58984375 94.0830078125 453.267774989 -9.998046875 293.382421875 -9.998046875 c 0
 134.530436241 -9.998046875 37.8375 94.0830078125 37.8375 253.561523438 c 0
407.85 253.561523438 m 0
 407.85 409.295898438 502.27316135 510.93359375 657.394921875 510.93359375 c 0
 836.491792672 510.93359375 892.628320312 373.530076904 892.628320312 275.1496875 c 0
 892.628320312 232.404298096 888.1625 205.91125 888.1625 205.91125 c 1
 504.06875 205.91125 l 1
 504.06875 301.67625 l 1x6d
 745.8425 301.67625 l 1
 745.8425 301.67625 745.500848389 307.825531006 743.43984375 317.325 c 0
 737.314024658 349.606177978 715.642216031 394.924179688 650.175 394.924179688 c 0
 580.691977165 394.924179688 550.984882812 340.832091064 550.984882812 259.811523438 c 0
 550.984882812 163.827203369 591.81350202 112.925117188 694.9525 112.925117188 c 0
 782.061758014 112.925117188 831.701054688 141.056953125 831.701054688 141.056953125 c 1
 855.489648438 17.845703125 l 1
 855.489648438 17.845703125 796.266662584 -9.998046875 693.394921875 -9.998046875 c 0x6e
 496.126009864 -9.998046875 407.85 94.0830078125 407.85 253.561523438 c 0
EndSplineSet
EndChar

StartChar: longs
Encoding: 383 383 187
Width: 269
Flags: W
HStem: 0 21G<61.2488 207.751> 640.901 120.11<226.636 364.636>
VStem: 61.2488 146.502<0 621.649>
LayerCount: 2
Fore
SplineSet
207.75125 558.023242188 m 2
 207.75125 0 l 1
 61.24875 0 l 1
 61.24875 571.023242188 l 2
 61.24875 685.375737727 117.257358231 761.010742188 252.3375 761.010742188 c 0
 325.830460487 761.010742188 376.6625 745.010742188 376.6625 745.010742188 c 1
 362.865 629.765742188 l 1
 362.865 629.765742188 331.385696777 640.900742188 287.325 640.900742188 c 0
 231.301198763 640.900742188 207.75125 615.937265759 207.75125 558.023242188 c 2
EndSplineSet
EndChar

StartChar: uni018F
Encoding: 399 399 188
Width: 765
Flags: W
HStem: -9.99805 141.167<288.331 472.797> 311.102 130.273<198.908 617.397> 597.839 141.282<161.918 453.764>
VStem: 574.257 45.1399<311.102 441.374>
LayerCount: 2
Back
SplineSet
35 364.561523438 m 0
 35 591.206054688 163.541887394 739.12109375 389.888671875 739.12109375 c 0
 653.541980974 739.12109375 740.108398438 551.971330386 740.108398438 365.891601562 c 0
 740.108398438 303.039520695 732 284 732 284 c 1
 162 284 l 1
 160 424 l 1
 562 424 l 1
 562 424 560.13712938 586.659179688 391 586.659179688 c 0
 261.796380576 586.659179688 205.848632812 497.743164062 205.848632812 364.561523438 c 4
 205.848632812 231.379882812 273.845797251 142.463867188 432.888671875 142.463867188 c 0
 580.720714467 142.463867188 659.018554688 179.595703125 659.018554688 179.595703125 c 1
 682.827148438 32.595703125 l 1
 682.827148438 32.595703125 604.343305548 -9.998046875 425.888671875 -9.998046875 c 0
 176.581210181 -9.998046875 35 137.916992188 35 364.561523438 c 0
EndSplineSet
Fore
SplineSet
732.270898438 364.561523438 m 0
 732.270898438 137.916992187 604.756763222 -9.998046875 380.219726562 -9.998046875 c 0
 118.702551461 -9.998046875 32.8375 174.475315286 32.8375 357.893945312 c 0
 32.8375 421.660759148 40.9458984375 441.374296875 40.9458984375 441.374296875 c 1
 617.397148438 441.374296875 l 1
 619.397148438 311.101796875 l 1
 198.908398438 311.101796875 l 1
 198.908398438 311.101796875 198.99405508 296.962155627 203.499616623 274.863750755 c 0
 212.907761203 216.041177453 256.962545911 131.168867188 380.040898438 131.168867188 c 0
 515.400977645 131.168867188 574.257265625 224.606796341 574.257265625 364.561523438 c 0
 574.257265625 504.44729038 502.989055947 597.839179688 337.422226562 597.839179688 c 0
 191.158362877 597.839179688 113.69109375 559.53859375 113.69109375 559.53859375 c 1
 90.11875 695.52734375 l 1
 90.11875 695.52734375 167.735856591 739.12109375 344.219726562 739.12109375 c 0
 591.717440434 739.12109375 732.270898438 591.206054687 732.270898438 364.561523438 c 0
EndSplineSet
EndChar

StartChar: florin
Encoding: 402 402 190
Width: 398
Flags: W
HStem: -190.011 127.259<-53.2209 83.9166> 383.471 117.539<19 377> 640.766 120.245<266.636 404.636>
VStem: 101.249 146.502<-46.0305 621.649>
LayerCount: 2
Fore
SplineSet
19 501.010742188 m 1
 377 501.010742188 l 1
 377 383.47125 l 1
 19 383.47125 l 1
 19 501.010742188 l 1
101.24875 22.0167578125 m 2
 101.24875 571.023242188 l 2
 101.24875 685.375737727 157.257358232 761.010742188 292.3375 761.010742188 c 0
 365.830460487 761.010742188 416.6625 745.010742188 416.6625 745.010742188 c 1
 402.865 629.630742188 l 1
 402.865 629.630742188 371.385696777 640.765742188 327.325 640.765742188 c 0
 271.301198763 640.765742188 247.75125 615.842929019 247.75125 558.023242188 c 2
 247.75125 558.023242188 247.75125 13.1517578125 247.75125 13.1517578125 c 2
 247.75125 -109.130884368 192.544482759 -190.010742188 59.39875 -190.010742188 c 0
 -14.3336319193 -190.010742188 -65.33125 -173.476992188 -65.33125 -173.476992188 c 1
 -51.39875 -51.2657421875 l 1
 -51.39875 -51.2657421875 -19.5931263029 -62.7519921875 24.925 -62.7519921875 c 0
 78.6609448852 -62.7519921875 101.24875 -37.2192361634 101.24875 22.0167578125 c 2
EndSplineSet
EndChar

StartChar: uni01B7
Encoding: 439 439 191
Width: 584
Flags: W
HStem: -9.99805 129.595<119.358 347.474> 596.16 134.84<40.3375 337.261>
VStem: 396.757 155.316<161.075 286.394>
LayerCount: 2
Fore
SplineSet
353.47625 427.3925 m 1
 359.901821029 427.3925 552.073632812 425.394394103 552.073632812 216.569648438 c 0
 552.073632812 54.7986007099 431.318052493 -9.998046875 250 -9.998046875 c 0
 103.146187581 -9.998046875 15.788671875 40.8416796875 15.788671875 40.8416796875 c 1
 58.5381640625 169.386445312 l 1
 58.5381640625 169.386445312 130.39254325 119.596953125 243.10125 119.596953125 c 0
 349.394240631 119.596953125 396.757148438 156.977087571 396.757148438 225.022642822 c 0
 396.757148438 293.508952515 347.017825186 326.375085817 251.651171875 326.682304688 c 2
 166.5 326.945 l 1
 166.5 398.0675 l 1
 337.26125 596.16 l 1
 40.3375 596.16 l 1
 40.3375 731 l 1
 528.6625 731 l 1
 528.6625 627.16 l 1
 353.47625 427.3925 l 1
EndSplineSet
EndChar

StartChar: uni0292
Encoding: 658 658 192
Width: 524
Flags: W
HStem: -189.994 121.75<78.2278 308.363> 375.867 125.144<44 285.43>
VStem: 350.035 142.039<-29.6448 81.7955>
LayerCount: 2
Fore
SplineSet
304.50875 211.595 m 1
 309.099241679 211.595 492.073632812 209.48467422 492.073632812 17.8207800293 c 0
 492.073632812 -130.409347734 379.313161447 -189.994140625 210 -189.994140625 c 0
 94.4968941407 -189.994140625 25.788671875 -159.086914062 25.788671875 -159.086914062 c 1
 55.3419140625 -36.9208984375 l 1
 55.3419140625 -36.9208984375 114.288338608 -68.244140625 206.75 -68.244140625 c 0
 305.868575654 -68.244140625 350.034648438 -33.8433394035 350.034648438 27.4700244141 c 0
 350.034648438 88.0426962406 301.198388282 116.957949236 207.563671875 117.186210938 c 2
 127.175 117.44890625 l 1
 127.175 189.59890625 l 1
 285.43 375.866992188 l 1
 44 375.866992188 l 1
 44 501.010742188 l 1
 473.6625 501.010742188 l 1
 473.6625 406.866992188 l 1
 304.50875 211.595 l 1
EndSplineSet
EndChar

StartChar: Oslash
Encoding: 216 216 193
Width: 802
Flags: W
HStem: -9.99805 141.383<297.963 499.814> 597.738 141.383<297.963 499.814>
VStem: 37.8375 153.399<244.711 484.412> 606.541 153.399<244.711 484.412>
LayerCount: 2
Fore
SplineSet
153.729248047 -91.4697265625 m 1
 536.804199219 801.403320312 l 1
 643.274658203 801.403320312 l 1
 260.199707031 -91.4697265625 l 1
 153.729248047 -91.4697265625 l 1
EndSplineSet
Refer: 1 79 N 1 0 0 1 0 0 2
EndChar

StartChar: oslash
Encoding: 248 248 194
Width: 592
Flags: W
HStem: -9.99805 130.403<223.571 365.104> 380.343 130.591<222.503 366.23>
VStem: 37.8375 142.52<168.13 335.922> 409.42 142.52<168.13 335.922>
LayerCount: 2
Fore
SplineSet
54.4306640625 -91.4697265625 m 1
 421.125732422 581.403320312 l 1
 527.073242188 581.403320312 l 1
 160.378173828 -91.4697265625 l 1
 54.4306640625 -91.4697265625 l 1
EndSplineSet
Refer: 29 111 N 1 0 0 1 0 0 2
EndChar

StartChar: ring
Encoding: 730 730 197
Width: 355
Flags: W
HStem: 481.758 86.7965<136.533 218.389> 674.018 86.984<136.264 220.532>
VStem: 32.2625 96.5019<575.181 667.44> 227.013 96.5019<576.895 667.44>
LayerCount: 2
Fore
SplineSet
128.764375 623.240234375 m 0
 128.764375 590.447854832 143.209783737 568.554296875 176.99609375 568.554296875 c 0
 212.033117234 568.554296875 227.01296875 590.447854832 227.01296875 623.240234375 c 0
 227.01296875 653.689278595 212.062863037 674.01796875 177.094726562 674.01796875 c 0
 143.239529448 674.01796875 128.764375 653.689278595 128.764375 623.240234375 c 0
32.2625 623.473632812 m 0
 32.2625 706.691770735 86.9859581286 761.001953125 176.888671875 761.001953125 c 0
 268.034565951 761.001953125 323.51484375 706.691770735 323.51484375 623.473632812 c 0
 323.51484375 537.722147337 268.034565951 481.7578125 176.888671875 481.7578125 c 0
 86.9859581286 481.7578125 32.2625 537.722147337 32.2625 623.473632812 c 0
EndSplineSet
EndChar

StartChar: ogonek
Encoding: 731 731 198
Width: 307
VWidth: 999
Flags: W
HStem: -254.494 85.92<150.863 263.319>
VStem: 32.8375 108.312<-158.628 -46.2427>
LayerCount: 2
Fore
SplineSet
32.8375 -130 m 0
 32.8375 -30.5220125786 121.175 39 121.175 39 c 1
 224.825 39 l 1
 224.825 39 141.15 -29.6641719745 141.15 -108.675 c 0
 141.15 -151.739164292 163.393777989 -168.57375 202.5275 -168.57375 c 0
 241.613609025 -168.57375 259.2025 -154.3375 259.2025 -154.3375 c 1
 277 -231.49375 l 1
 277 -231.49375 244.426287616 -254.49375 179 -254.49375 c 0
 88.9982104815 -254.49375 32.8375 -210.202288682 32.8375 -130 c 0
EndSplineSet
EndChar

StartChar: minute
Encoding: 8242 8242 203
Width: 235
Flags: W
HStem: 456 275.008<86.35 109.994>
VStem: 6.0125 223.475
LayerCount: 2
Fore
SplineSet
6.0125 456 m 1
 6.0125 456 86.35 731.0078125 86.35 731.0078125 c 1
 229.4875 731.0078125 l 1
 109.99375 456 l 1
 109.99375 456 6.0125 456 6.0125 456 c 1
EndSplineSet
EndChar

StartChar: bullet
Encoding: 8226 8226 206
Width: 325
Flags: W
HStem: 235 256.449<85.7662 239.459>
VStem: 35 255.227<286.01 440.439>
LayerCount: 2
Fore
SplineSet
35 363.224609375 m 0
 35 440.904582656 85.3021371203 491.44921875 162.612304688 491.44921875 c 0
 239.923370709 491.44921875 290.2265625 440.904582656 290.2265625 363.224609375 c 0
 290.2265625 285.543292893 239.923370709 235 162.612304688 235 c 0
 85.3021371203 235 35 285.543292893 35 363.224609375 c 0
EndSplineSet
EndChar

StartChar: dagger
Encoding: 8224 8224 207
Width: 530
Flags: W
HStem: 366.023 128.975<30 500>
VStem: 181.85 166.3<-171.47 -17.4969> 209.012 111.975<272.769 560.687>
LayerCount: 2
Fore
SplineSet
181.85 -171.469726562 m 1xc0
 209.0125 427 l 1
 191.68125 759.469726562 l 1
 338.31875 759.469726562 l 1
 320.9875 426 l 1xa0
 348.15 -171.469726562 l 1
 181.85 -171.469726562 l 1xc0
30 366.023242188 m 1
 30 494.998242188 l 1
 500 494.998242188 l 1
 500 366.023242188 l 1
 30 366.023242188 l 1
EndSplineSet
EndChar

StartChar: daggerdbl
Encoding: 8225 8225 208
Width: 530
Flags: W
HStem: 76.0232 128.975<30 500> 416.023 128.975<30 500>
LayerCount: 2
Fore
SplineSet
30 76.0232421875 m 1
 30 204.998242188 l 1
 500 204.998242188 l 1
 500 76.0232421875 l 1
 30 76.0232421875 l 1
191.5125 -171.469726562 m 1
 209.0125 137 l 1
 191.6475 317 l 1
 209.0125 477 l 1
 191.68125 759.469726562 l 1
 338.31875 759.469726562 l 1
 320.9875 476 l 1
 338.3525 318 l 1
 320.9875 136 l 1
 338.4875 -171.469726562 l 1
 191.5125 -171.469726562 l 1
30 416.023242188 m 1
 30 544.998242188 l 1
 500 544.998242188 l 1
 500 416.023242188 l 1
 30 416.023242188 l 1
EndSplineSet
EndChar

StartChar: uni2116
Encoding: 8470 8470 209
Width: 1126
Flags: W
HStem: 0 21G<57.8375 206.205 491.057 661.163> 242.31 94.9475<736.837 1069.16> 378.736 109.771<856.73 958.298> 629.033 109.959<856.268 958.802> 711.008 20G<57.8375 228.287 512.795 661.163>
VStem: 57.8375 148.367<0 467.23> 512.795 148.368<276.037 731.008> 725.786 115.556<503.071 614.288> 974.658 115.556<503.071 614.288>
LayerCount: 2
Fore
SplineSet
736.8375 337.2575 m 1xe780
 1069.1625 337.2575 l 1
 1069.1625 242.31 l 1
 736.8375 242.31 l 1
 736.8375 337.2575 l 1xe780
841.3421875 561.182226562 m 0
 841.3421875 517.602532407 861.037942767 488.506914062 906.897460938 488.506914062 c 0
 954.301823695 488.506914062 974.6578125 517.602532407 974.6578125 561.182226562 c 0
 974.6578125 601.869369844 954.338959863 629.033320312 907.020507812 629.033320312 c 0xf780
 861.075079769 629.033320312 841.3421875 601.869369844 841.3421875 561.182226562 c 0
725.786328125 560.957617188 m 0
 725.786328125 668.686013735 794.353715733 738.9921875 907 738.9921875 c 0
 1020.88944904 738.9921875 1090.21367188 668.686013735 1090.21367188 560.957617188 c 0
 1090.21367188 450.696016321 1020.88944904 378.735546875 907 378.735546875 c 0
 794.353715733 378.735546875 725.786328125 450.696016321 725.786328125 560.957617188 c 0
EndSplineSet
Refer: 11 78 N 1 0 0 1 0 0 2
EndChar

StartChar: uni20BF
Encoding: 8383 8383 210
Width: 643
Flags: W
HStem: -105 173.12<136.664 263.515 345.764 472.615> 0 135.449<212.887 419.135> 300.669 129.67<159.475 400.038> 595.661 135.347<212.887 397.387> 656.35 173.12<136.664 263.515 345.764 472.615>
VStem: 136.664 126.851<-105 68.1196 656.35 829.47> 159.475 53.4125<300.669 430.339> 345.764 126.851<-105 68.1196 656.35 829.47> 428.041 155.899<456.463 566.435> 451.041 155.899<163.626 273.237>
LayerCount: 2
Fore
SplineSet
345.763916016 -105 m 1xa1
 345.763916016 68.1196289062 l 1
 472.614990234 68.1196289062 l 1
 472.614990234 -105 l 1
 345.763916016 -105 l 1xa1
345.763916016 656.350097656 m 1x29
 345.763916016 829.469726562 l 1
 472.614990234 829.469726562 l 1
 472.614990234 656.350097656 l 1
 345.763916016 656.350097656 l 1x29
136.663818359 -105 m 1xa4
 136.663818359 68.1196289062 l 1
 263.515136719 68.1196289062 l 1
 263.515136719 -105 l 1
 136.663818359 -105 l 1xa4
136.663818359 656.350097656 m 1x2c
 136.663818359 829.469726562 l 1
 263.515136719 829.469726562 l 1
 263.515136719 656.350097656 l 1
 136.663818359 656.350097656 l 1x2c
EndSplineSet
Refer: 19 66 N 1 0 0 1 0 0 2
EndChar

StartChar: uni20A6
Encoding: 8358 8358 211
Width: 874
Flags: W
HStem: 0 21G<151.838 300.137 559.336 729.163> 259.54 84.8187<32.8375 236.637 637.362 841.163> 389.641 84.8187<32.8375 236.637 637.362 841.163> 711.008 20G<151.838 321.973 580.862 729.163>
VStem: 32.8375 267.3<259.54 344.359 389.641 469.73> 151.838 148.3<0 259.54 344.359 389.641> 151.838 84.8<259.54 344.359 389.641 474.46> 580.862 148.3<344.359 389.641 474.46 731.008> 637.362 91.8<259.54 344.359 389.641 474.46>
LayerCount: 2
Fore
SplineSet
841.1625 259.54 m 1xf080
 637.3625 259.54 l 1
 637.3625 344.35875 l 1
 841.1625 344.35875 l 1
 841.1625 259.54 l 1xf080
841.1625 389.64125 m 1
 637.3625 389.64125 l 1
 637.3625 474.46 l 1
 841.1625 474.46 l 1
 841.1625 389.64125 l 1
236.6375 259.54 m 1xf2
 32.8375 259.54 l 1
 32.8375 344.35875 l 1xf8
 236.6375 344.35875 l 1
 236.6375 259.54 l 1xf2
236.6375 389.64125 m 1xf2
 32.8375 389.64125 l 1
 32.8375 474.46 l 1xf8
 236.6375 474.46 l 1
 236.6375 389.64125 l 1xf2
151.8375 0 m 1xf480
 151.8375 731.0078125 l 1
 310.1375 731.0078125 l 1
 580.8625 273.537109375 l 1
 580.8625 731.0078125 l 1
 729.1625 731.0078125 l 1xf3
 729.1625 0 l 1
 570.8625 0 l 1
 300.1375 469.729882812 l 1
 300.1375 0 l 1
 151.8375 0 l 1xf480
EndSplineSet
EndChar

StartChar: uni20BD
Encoding: 8381 8381 212
Width: 703
Flags: W
HStem: 0 21G<133.838 290.137> 159.027 84.65<30 544> 291.527 109.15<30 475.052> 595.559 135.448<290.137 468.902>
VStem: 133.838 156.3<0 595.559> 509.872 156.067<432.4 560.611>
LayerCount: 2
Fore
SplineSet
544 159.0265625 m 1
 30 159.0265625 l 1
 30 243.6765625 l 1
 544 243.6765625 l 1
 544 159.0265625 l 1
30 291.5265625 m 1
 30 400.6765625 l 1
 377.083671875 400.786914062 l 2
 453.105218209 400.891385224 509.872460938 418.005605521 509.872460938 495.986523438 c 0
 509.872460938 576.757036086 452.672374189 595.354425511 376.071171875 595.455898438 c 2
 290.1375 595.559414062 l 1
 290.1375 0 l 1
 133.8375 0 l 1
 133.8375 731.0078125 l 1
 382.051171875 731.0078125 l 2
 564.665429688 731.0078125 665.93984375 661.585963207 665.93984375 495.986523438 c 0
 665.93984375 363.731790537 574.559960938 291.5265625 420.1625 291.5265625 c 2
 30 291.5265625 l 1
EndSplineSet
EndChar

StartChar: dong
Encoding: 8363 8363 213
Width: 645
Flags: W
HStem: 0 84.8187<30.3375 593.663> 149.327 115.549<234.176 359.387> 469.572 113.362<234.661 367.403> 617.074 79.8525<301.337 612.163> 731.002 20G<395.592 542.433>
VStem: 58.9088 142.655<297.099 437.279> 395.592 146.84<354.699 751.002> 395.592 67.1736<387.037 501.436>
LayerCount: 2
Fore
SplineSet
593.6625 0 m 1xfc
 30.3375 0 l 1
 30.3375 84.81875 l 1
 593.6625 84.81875 l 1
 593.6625 0 l 1xfc
612.1625 617.07375 m 1
 301.3375 617.07375 l 1
 301.3375 696.92625 l 1
 612.1625 696.92625 l 1
 612.1625 617.07375 l 1
542.4325 159.325 m 1xfe
 395.5925 159.325 l 1xfd
 395.5925 751.001953125 l 1
 542.4325 751.001953125 l 1
 542.4325 159.325 l 1xfe
395.5925 385.036523438 m 1xfe
 395.5925 426.221789386 370.58330002 469.571679688 299.459960938 469.571679688 c 0
 234.649414749 469.571679688 201.563671875 427.521911066 201.563671875 364.536523438 c 0
 201.563671875 304.77480843 234.615494867 264.876367188 299.348632812 264.876367188 c 0
 370.548705266 264.876367188 395.5925 300.836897765 395.5925 354.699023438 c 1xfe
 457.766132812 366.699023438 l 1
 457.766132812 237.0203125 390.342439911 149.326953125 260.675 149.326953125 c 0
 122.618535675 149.326953125 58.9087890625 240.305348945 58.9087890625 364.536523438 c 0
 58.9087890625 492.49316926 129.079055985 582.93359375 265.634960938 582.93359375 c 0
 400.23862957 582.93359375 462.766132812 501.435803449 462.766132812 387.036523438 c 1xfd
 395.5925 385.036523438 l 1xfe
EndSplineSet
EndChar

StartChar: uni1E9E
Encoding: 7838 7838 220
Width: 743
Flags: W
HStem: -10 124.099<339.545 521.431> 0 21G<57.8375 214.137> 596.202 134.806<261.523 474.038>
VStem: 57.8375 156.3<0 551.787> 560.329 154.834<150.325 281.225>
LayerCount: 2
Fore
SplineSet
57.8375 484.5 m 2x78
 57.8375 657.927018681 143.965681818 731.0078125 336.4875 731.0078125 c 2
 662.5 731.0078125 l 1
 662.5 642.8640625 l 1
 515.8675 421.825 l 1
 588.79454745 421.825 715.1625 383.932850241 715.1625 215.4125 c 0
 715.1625 63.1601973684 623.235213415 -10 472 -10 c 0
 353.274564794 -10 297.8375 26 297.8375 26 c 1
 329.75 140.225 l 1
 329.75 140.225 373.282598689 114.099023438 445.853125 114.099023438 c 0xb8
 515.572830125 114.099023438 560.32875 148.782953042 560.32875 218.4125 c 0
 560.32875 288.68306701 515.996781915 320.1475 411.5 320.1475 c 2
 333.8375 320.1475 l 1
 333.8375 381.1625 l 1
 474.0375 596.2015625 l 1
 342.8375 596.2015625 l 2
 244.275964024 596.2015625 214.1375 552.785363072 214.1375 451.5078125 c 2
 214.1375 0 l 1
 57.8375 0 l 1
 57.8375 484.5 l 2x78
EndSplineSet
EndChar

StartChar: germandbls
Encoding: 223 223 221
Width: 725
Flags: W
HStem: -9.99805 115.292<344.61 536.969> 0 21G<59.0863 205.589> 395.227 115.957<446.154 553.612> 635.954 125.056<271.335 466.067>
VStem: 59.0862 146.502<0 570.585> 293.292 145.195<322.286 385.061> 514.991 146.539<509.163 584.858> 543.796 144.056<116.962 176.939>
LayerCount: 2
Fore
SplineSet
459.008963623 196.188048096 m 0xbd
 328.966441012 226.210300539 293.291601562 275.410098345 293.291601562 353.8375 c 0
 293.291601562 451.853363587 366.582146507 511.18359375 472 511.18359375 c 0
 503.701300014 511.18359375 514.99125 509.1625 514.99125 509.1625 c 1
 512.478674639 591.578591277 474.056354616 635.954492188 370 635.954492188 c 0
 249.108251942 635.954492188 205.58875 579.598482646 205.58875 468.360742188 c 2
 205.58875 0 l 1
 59.08625 0 l 1
 59.08625 481.360742188 l 2
 59.08625 652.138990291 135.789323607 761.010742188 361 761.010742188 c 0
 616.00996997 761.010742188 661.530664062 632.596645445 661.530664062 499.46 c 0x7e
 661.530664062 426.140615674 639.294921875 368.949335938 639.294921875 368.949335938 c 1
 639.294921875 368.949335938 589.966120055 395.226796875 517.256914062 395.226796875 c 0
 462.922269697 395.226796875 438.48671875 379.583113141 438.48671875 354.356054688 c 0
 438.48671875 331.721782953 454.228532045 318.509332709 507.251124268 305.696098632 c 0
 646.419804657 271.620697671 687.851953125 226.606527097 687.851953125 144.56484375 c 0
 687.851953125 49.3095010516 614.392028659 -9.998046875 476.856445312 -9.998046875 c 0
 358.72040064 -9.998046875 283.8375 26.5625 283.8375 26.5625 c 1
 314.314453125 139.673828125 l 1
 314.314453125 139.673828125 379.870376669 105.293945312 460.243164062 105.293945312 c 0
 516.847022904 105.293945312 543.795507812 119.48102736 543.795507812 146.999414062 c 0
 543.795507812 169.545923951 528.843742598 180.205138598 459.008963623 196.188048096 c 0xbd
EndSplineSet
EndChar

StartChar: uni2113
Encoding: 8467 8467 222
Width: 619
Flags: W
HStem: -10 132.882<302.034 488.367> 638.133 122.869<320.23 417.282>
VStem: 91.5125 156.428<139.414 509.964> 433.141 139.661<493.831 624.735>
LayerCount: 2
Fore
SplineSet
91.5125 294.424609375 m 0
 91.5125 601.6255521 188.268830992 761.001953125 370.460390625 761.001953125 c 0
 515.502069108 761.001953125 572.802148438 663.501933223 572.802148438 572.56453125 c 0
 572.802148438 225.890062119 21.53375 166.0675 21.53375 166.0675 c 1
 7.87125 282.0225 l 1
 7.87125 282.0225 433.141054688 343.648349177 433.141054688 567.859453125 c 0
 433.141054688 612.027450267 412.379220002 638.133320312 372.460390625 638.133320312 c 0
 284.708829419 638.133320312 247.940742188 504.815194627 247.940742188 310.2 c 0
 247.940742188 188.589337457 270.70840503 122.882382812 383.48625 122.882382812 c 0
 467.31722246 122.882382812 525.045507812 163.244804688 525.045507812 163.244804688 c 1
 563 42 l 1
 563 42 502.27833556 -10 368.075390625 -10 c 0
 189.429054588 -10 91.5125 90.2394198066 91.5125 294.424609375 c 0
EndSplineSet
EndChar

StartChar: uni20B8
Encoding: 8376 8376 223
Width: 614
Flags: W
HStem: 0 21G<228.85 385.15> 377.969 135.056<32.5 228.85 385.15 581.5> 377.969 105.056<228.85 385.15> 595.944 135.056<32.5 581.5>
VStem: 228.85 156.3<0 483.025>
LayerCount: 2
Fore
SplineSet
581.5 595.94375 m 1x98
 32.5 595.94375 l 1
 32.5 731 l 1
 581.5 731 l 1
 581.5 595.94375 l 1x98
581.5 377.96875 m 1xd8
 32.5 377.96875 l 1
 32.5 513.025 l 1
 581.5 513.025 l 1
 581.5 377.96875 l 1xd8
228.85 0 m 1
 228.85 483.025 l 1
 385.15 483.025 l 1xb8
 385.15 0 l 1
 228.85 0 l 1
EndSplineSet
EndChar

StartChar: uni20BC
Encoding: 8380 8380 224
Width: 839
Flags: W
HStem: 0 21G<57.8375 214.137 341.35 497.65 621.64 777.94> 425.704 140.302<300.934 534.844> 711.008 20G<341.35 497.65>
VStem: 57.8375 156.3<0 339.181> 341.35 156.3<0 731.008> 621.64 156.3<0 339.181>
LayerCount: 2
Fore
SplineSet
417.888671875 566.005859375 m 0
 686.778376123 566.005859375 777.93984375 439.410316293 777.93984375 245.433789062 c 2
 777.93984375 0 l 1
 621.63984375 0 l 1
 621.63984375 215.433789062 l 2
 621.63984375 341.522662971 593.547559159 425.703945312 417.888671875 425.703945312 c 0
 242.229784591 425.703945312 214.1375 341.522662971 214.1375 215.433789062 c 2
 214.1375 0 l 1
 57.8375 0 l 1
 57.8375 245.433789062 l 2
 57.8375 439.410316293 148.998967627 566.005859375 417.888671875 566.005859375 c 0
341.35 0 m 1
 341.35 731.0078125 l 1
 497.65 731.0078125 l 1
 497.65 0 l 1
 341.35 0 l 1
EndSplineSet
EndChar

StartChar: Ohorn
Encoding: 416 416 225
Width: 802
Flags: W
HStem: -9.99805 141.383<297.963 499.814> 597.738 141.383<297.963 499.814>
VStem: 37.8375 153.399<244.711 484.412> 587.004 128.861<672.741 814.018> 606.541 153.399<244.711 484.412>
LayerCount: 2
Fore
SplineSet
557.074462891 825.799804688 m 1xf0
 693.815429688 825.799804688 l 1
 693.815429688 825.799804688 715.864746094 795.200195312 715.864746094 738.9921875 c 0
 715.864746094 645.47680664 634.154541016 593.382080078 634.154541016 593.382080078 c 1
 541.89819336 641.360351562 l 1
 541.89819336 641.360351562 587.00415039 688 587.00415039 733.729492188 c 0
 587.00415039 790.55078125 557.074462891 825.799804688 557.074462891 825.799804688 c 1xf0
EndSplineSet
Refer: 1 79 N 1 0 0 1 0 0 2
EndChar

StartChar: ohorn
Encoding: 417 417 226
Width: 592
Flags: W
HStem: -9.99805 130.403<223.571 365.104> 380.343 130.591<222.503 366.23>
VStem: 37.8375 142.52<168.13 335.922> 409.42 142.52<168.13 335.922> 413.156 123.089<462.741 604.018>
LayerCount: 2
Fore
SplineSet
383.225830078 615.799804688 m 1xe8
 514.1953125 615.799804688 l 1
 514.1953125 615.799804688 536.244873047 585.200195312 536.244873047 528.9921875 c 0
 536.244873047 435.476806641 454.534423828 383.382080078 454.534423828 383.382080078 c 1
 368.049804688 431.360351562 l 1
 368.049804688 431.360351562 413.155517578 478 413.155517578 523.729492188 c 0
 413.155517578 580.55078125 383.225830078 615.799804688 383.225830078 615.799804688 c 1xe8
EndSplineSet
Refer: 29 111 N 1 0 0 1 0 0 2
EndChar

StartChar: Uhorn
Encoding: 431 431 227
Width: 777
Flags: W
HStem: -9.99805 141.417<269.317 446.46> 662.013 163.787<625.163 709.305> 711.008 20G<57.8375 214.137 501.64 657.94>
VStem: 57.8375 156.3<184.889 731.008> 501.64 156.3<184.889 731.008> 611.525 132.638<738.173 815.402>
LayerCount: 2
Fore
SplineSet
577.605078125 825.799804688 m 1xd4
 714.922265625 825.799804688 l 1
 714.922265625 825.799804688 744.1625 800.117987224 744.1625 752.3375 c 0
 744.1625 692.782554945 696.1625 662.0125 625.1625 662.0125 c 1xd4
 538.525 731.0078125 l 1xb4
 572.525 731.0078125 611.525 732.480474404 611.525 770 c 0
 611.525 804 577.605078125 825.799804688 577.605078125 825.799804688 c 1xd4
EndSplineSet
Refer: 6 85 N 1 0 0 1 0 0 2
EndChar

StartChar: uhorn
Encoding: 432 432 228
Width: 660
Flags: W
HStem: -9.92285 120.212<233.804 350.09> 0 21G<391.707 538.21> 481.011 20G<57.905 204.407 391.707 538.21>
VStem: 57.905 146.502<142.38 501.011> 391.707 146.502<207.449 501.011> 494.525 132.638<509.366 596.865>
LayerCount: 2
Fore
SplineSet
452.284765625 615.799804688 m 1x34
 589.601953125 615.799804688 l 1
 589.601953125 615.799804688 627.1625 584.8751348 627.1625 527.340429688 c 0
 627.1625 464.488781336 579.434768908 432.015429688 508.8375 432.015429688 c 1
 421.525 501.010742188 l 1
 455.525 501.010742188 494.525 502.67223835 494.525 545.002929688 c 0
 494.525 588.140961505 452.284765625 615.799804688 452.284765625 615.799804688 c 1x34
EndSplineSet
Refer: 50 117 N 1 0 0 1 0 0 2
EndChar

StartChar: integral
Encoding: 8747 8747 229
Width: 448
Flags: W
HStem: -190.011 128.394<-54.9485 76.9715> 640.279 120.731<317.831 454.549>
LayerCount: 2
Fore
SplineSet
101.18125 31.9892578125 m 2
 151.18125 570.010742188 l 2
 161.630386194 684.972002616 207.308564782 761.010742188 342.675 761.010742188 c 0
 415.968452148 761.010742188 466.6625 745.010742188 466.6625 745.010742188 c 1
 452.6625 629.279492188 l 1
 452.6625 629.279492188 420.923786316 640.279492188 376.5 640.279492188 c 0
 321.104562295 640.279492188 303.301493051 615.788103557 297.81875 557.010742188 c 2
 247.81875 20.9892578125 l 2
 236.24256227 -105.898360508 191.691271552 -190.010742188 56.325 -190.010742188 c 0
 -16.9684635069 -190.010742188 -67.6625 -174.010742188 -67.6625 -174.010742188 c 1
 -53.6625 -50.6169921875 l 1
 -53.6625 -50.6169921875 -21.924072383 -61.6169921875 22.5 -61.6169921875 c 0
 77.8957492065 -61.6169921875 95.0533292994 -33.9498020177 101.18125 31.9892578125 c 2
EndSplineSet
EndChar

StartChar: dotlessi
Encoding: 305 305 231
Width: 269
Flags: W
HStem: 0 21G<61.2488 207.751> 481.011 20G<61.2488 207.751>
VStem: 61.2488 146.502<0 501.011>
LayerCount: 2
Fore
SplineSet
61.24875 0 m 1
 61.24875 501.010742188 l 1
 207.75125 501.010742188 l 1
 207.75125 0 l 1
 61.24875 0 l 1
EndSplineSet
EndChar

StartChar: uni0237
Encoding: 567 567 232
Width: 269
Flags: W
HStem: -190 127.259<-85.4582 43.9607> 481.011 20G<61.2488 207.751>
VStem: 61.2488 146.502<-46.0198 501.011>
LayerCount: 2
Fore
SplineSet
61.24875 22.0275 m 2
 61.24875 501.010742188 l 1
 207.75125 501.010742188 l 1
 207.75125 501.010742188 207.75125 13.1625 207.75125 13.1625 c 2
 207.75125 -109.12014218 152.574159483 -190 19.5 -190 c 0
 -49.8587151132 -190 -97.83125 -173.46625 -97.83125 -173.46625 c 1
 -83.89875 -51.255 l 1
 -83.89875 -51.255 -55.2185253789 -62.74125 -15.075 -62.74125 c 0
 38.6609448852 -62.74125 61.24875 -37.2084939759 61.24875 22.0275 c 2
EndSplineSet
EndChar

StartChar: uni20B3
Encoding: 8371 8371 233
Width: 824
Flags: W
HStem: 0 21G<70 240.545 583.669 754> 139.675 84.65<32.8375 791.163> 269.675 84.65<62.8375 761.163> 711.008 20G<324.511 504.319>
LayerCount: 2
Fore
SplineSet
497.295625 731.0078125 m 1
 754 0 l 1
 590.048125 0 l 1
 415.376679688 547.675976562 l 1
 233.918125 0 l 1
 70 0 l 1
 331.670625 731.0078125 l 1
 497.295625 731.0078125 l 1
761.1625 269.675 m 1
 62.8375 269.675 l 1
 62.8375 354.325 l 1
 761.1625 354.325 l 1
 761.1625 269.675 l 1
791.1625 139.675 m 1
 32.8375 139.675 l 1
 32.8375 224.325 l 1
 791.1625 224.325 l 1
 791.1625 139.675 l 1
EndSplineSet
EndChar

StartChar: hookabovecomb
Encoding: 777 777 234
Width: 0
Flags: W
HStem: 468 110.178<47.8099 147.312> 649.579 89.4137<17.4699 151.076>
VStem: 46.0591 103.336<468 516.66> 155.407 113.817<582.805 642.287>
LayerCount: 2
Fore
SplineSet
147.903007812 516.659570312 m 1
 149.395195312 468 l 1
 46.059140625 468 l 1
 47.7925390625 582.5975 l 1
 47.7925390625 582.5975 71.5598318398 578.177578125 101.399726562 578.177578125 c 0
 137.928545723 578.177578125 155.406992188 589.601639186 155.406992188 610.901757812 c 0
 155.406992188 637.725370971 131.878811017 649.578515625 97.3558203125 649.578515625 c 0
 52.037052111 649.578515625 22.3451171875 630.308007812 22.3451171875 630.308007812 c 1
 0 715.311523438 l 1
 0 715.311523438 40.1669478236 738.9921875 109.153320312 738.9921875 c 0
 202.964484323 738.9921875 269.22390625 702.867391894 269.22390625 614.381992188 c 0
 269.22390625 547.751138199 222.32969616 515.7015625 169.894091796 515.7015625 c 0
 155.529457759 515.7015625 147.903007812 516.659570312 147.903007812 516.659570312 c 1
EndSplineSet
EndChar

